<ttFont>
          <CharString index="0">
            229 505 rmoveto
            -150 -45 -161 -117 -172 98 -61 89 108 63 99 164 hvcurveto
            14 -1 14 13 vvcurveto
            61 10 66 29 26 43 -15 27 rcurveline
            -34 -33 -49 -26 -55 hhcurveto
            -6 hlineto
            89 -13 -39 69 -105 hhcurveto
            10 -93 callsubr
            return
          </CharString>
          <CharString index="1">
            -104 callgsubr
            -14 35 rlineto
            75 101 43 70 76 vvcurveto
            return
          </CharString>
          <CharString index="2">
            -30 23 -23 30 29 25 23 30 29 -25 25 -29 -30 -23 -25 -29 vhcurveto
            return
          </CharString>
          <CharString index="3">
            -61 callgsubr
            86 hlineto
            -216 -446 rlineto
            262 hlineto
            70 44 46 39 hvcurveto
            return
          </CharString>
          <CharString index="4">
            -37 29 -29 37 36 31 29 37 36 -31 31 -36 -37 -29 -31 -36 vhcurveto
            return
          </CharString>
          <CharString index="5">
            -37 hlineto
            -72 -15 -25 -37 -32 hhcurveto
            -74 callgsubr
            return
          </CharString>
          <CharString index="6">
            393 656 rmoveto
            6 -19 -18 2 -14 hhcurveto
            -132 -43 -188 -152 -244 110 -86 133 205 61 204 176 192 -73 184 -245 -190 -150 -110 -136 -74 44 -37 72 hvcurveto
            return
          </CharString>
          <CharString index="7">
            1 -5 0 -6 -6 vvcurveto
            -59 -50 -74 -40 -53 vhcurveto
            -96 244 rlineto
            return
          </CharString>
          <CharString index="8">
            359 375 rmoveto
            106 -67 24 -66 -144 -47 -168 -112 -171 89 -60 92 102 95 87 98 34 vhcurveto
            -20 callsubr
            -63 -72 callgsubr
            -218 -136 rmoveto
            98 34 119 70 32 18 -21 -50 -75 -60 -56 -94 -15 vhcurveto
            return
          </CharString>
          <CharString index="9">
            hstemhm
            16 74 157 123 245 110 hintmask 11011110
            615 748 rmoveto
            -539 vlineto
            -123 -62 -16 -61 -61 -61 16 121 vhcurveto
            538 vlineto
            hintmask 10111110
            4 -21 -11 0 callgsubr
            -162 -145 -109 -128 -80 56 -39 54 hvcurveto
            -6 10 -30 25 77 vvcurveto
            107 58 72 99 22 vhcurveto
            -502 vlineto
            -76 33 -136 204 206 35 138 75 vhcurveto
            hintmask 11011110
            542 vlineto
            return
          </CharString>
          <CharString index="10">
            vvcurveto
            149 106 75 133 114 99 -55 -260 -163 -39 -166 -109 -102 -15 148 88 136 36 174 67 40 vhcurveto
            return
          </CharString>
          <CharString index="11">
            42 callgsubr
            hintmask 10111100
            315 -65 callgsubr
            -48 vlineto
            hintmask 11011100
            -105 callgsubr
            hintmask 10111100
            -72 callsubr
            hintmask 11011100
            -84 callsubr
            return
          </CharString>
          <CharString index="12">
            -71 callgsubr
            hintmask 1101111011000000
            807 179 rmoveto
            -18 -15 -22 -17 -22 -15 rrcurveto
            1 6 0 6 7 vvcurveto
            -42 callgsubr
            vhcurveto
            -56 callgsubr
            -107 callgsubr
            42 63 12 58 32 hvcurveto
            38 27 45 34 39 54 rrcurveto
            -610 -109 -40 callgsubr
            return
          </CharString>
          <CharString index="13">
            -95 callgsubr
            64 vlineto
            89 27 44 25 21 142 rrcurveto
            -37 hlineto
            -14 -112 -35 -24 -68 -22 rrcurveto
            return
          </CharString>
          <CharString index="14">
            12 callgsubr
            30 26 -16 -46 16 hvcurveto
            -26 -1 -14 -11 -31 vvcurveto
            return
          </CharString>
          <CharString index="15">
            -20 hstemhm
            47 118 255 76 hintmask 10111100
            555 180 rmoveto
            -84 -36 -56 -36 -86 hhcurveto
            -135 -77 89 218 175 50 172 121 50 34 -30 -63 -37 -12 -33 -12 -9 hvcurveto
            hintmask 11011100
            -12 11 18 -6 18 hhcurveto
            39 14 28 42 104 -86 52 -101 -205 -57 -217 -183 -244 101 -122 171 126 101 66 120 34 hvcurveto
            return
          </CharString>
          <CharString index="16">
            -20 7 callgsubr
            hintmask 11011100
            273 347 rmoveto
            -39 callgsubr
            26 33 78 -45 42 -84 -151 -34 -167 -111 -173 99 -60 92 98 89 87 98 32 hvcurveto
            -34 hlineto
            -74 -34 -48 -35 -70 hhcurveto
            -65 -53 30 140 hvcurveto
            hintmask 10111100
            95 22 117 72 35 20 -22 -31 -19 -6 -24 -11 -9 vhcurveto
            return
          </CharString>
          <CharString index="17">
            -10 8 9 -4 10 hhcurveto
            16 16 14 25 22 -10 14 -12 8 hvcurveto
            20 72 30 66 8 74 rrcurveto
            37 -174 19 -29 -82 vvcurveto
            return
          </CharString>
          <CharString index="18">
            -30 -18 20 30 37 26 29 66 30 hvcurveto
            -70 -66 callgsubr
            return
          </CharString>
          <CharString index="19">
            -38 20 -34 37 26 19 17 14 return
          </CharString>
          <CharString index="20">
            389 179 rmoveto
            -18 -15 -21 -17 -22 -15 -1 102 -19 43 -63 254 -101 -20 rcurveline
            -69 callgsubr
            43 66 20 52 30 vhcurveto
            38 27 43 33 38 53 rrcurveto
            -209 -40 22 callgsubr
            return
          </CharString>
          <CharString index="21">
            44 -80 callgsubr
            return
          </CharString>
          <CharString index="22">
            18 167 30 return
          </CharString>
          <CharString index="23">
            93 33 127 60 callsubr
            -228 -36 callgsubr
            return
          </CharString>
          <CharString index="24">
            28 callgsubr
            -130 -12 -109 -79 hvcurveto
            -575 vlineto
            -62 -28 -68 -46 -59 vvcurveto
            -71 60 -32 71 66 33 27 143 vhcurveto
            545 81 35 -81 return
          </CharString>
          <CharString index="25">
            -28 26 -18 26 25 26 15 47 64 -48 59 -103 -135 -47 -102 -86 vhcurveto
            -574 vlineto
            -64 -27 -66 -45 -74 vvcurveto
            -53 33 -38 73 70 54 35 135 vhcurveto
            545 vlineto
            return
          </CharString>
          <CharString index="26">
            45 callsubr
            -75 callgsubr
            vhcurveto
            -53 callgsubr
            return
          </CharString>
          <CharString index="27">
            -89 callsubr
            endchar
          </CharString>
          <CharString index="28">
            rmoveto
            -17 -7 -52 -4 -56 -49 -52 3 -30 hhcurveto
            328 697 rlineto
            -340 hlineto
            -68 -42 -36 -37 -43 38 -27 31 27 16 21 21 15 -7 15 -17 11 hvcurveto
            return
          </CharString>
          <CharString index="29">
            -415 rmoveto
            -12 -2 -15 -9 -24 hhcurveto
            -27 -85 5 1 -17 hvcurveto
            -48 callgsubr
            return
          </CharString>
          <CharString index="30">
            74 18 19 35 42 hhcurveto
            50 6 -48 -47 hvcurveto
            -334 100 320 vlineto
            78 11 26 -88 callgsubr
            return
          </CharString>
          <CharString index="31">
            -20 hstemhm
            31 112 231 112 hintmask 10101110
            399 71 -79 callsubr
            hintmask 10011110
            -64 callgsubr
            hintmask 01101110
            -31 callsubr
            return
          </CharString>
          <CharString index="32">
            66 -106 callsubr
            return
          </CharString>
          <CharString index="33">
            rmoveto
            -80 callsubr
          </CharString>
          <CharString index="34">
            10 -23 -24 4 -23 hhcurveto
            -135 -93 -119 -109 -90 39 -39 83 hvcurveto
            -19 16 -29 29 82 vvcurveto
            89 44 55 73 25 vhcurveto
            -689 67 563 vlineto
            251 -563 rlineto
            134 hlineto
            return
          </CharString>
          <CharString index="35">
            -26 callgsubr
            -187 -430 rmoveto
            -58 -33 46 114 hvcurveto
            return
          </CharString>
          <CharString index="36">
            -250 52 192 76 return
          </CharString>
          <CharString index="37">
            rmoveto
            -85 hlineto
            101 -189 rlineto
            55 hlineto
            endchar
          </CharString>
          <CharString index="38">
            rmoveto
            -104 vlineto
            -99 -33 -17 -35 -31 -27 14 32 -25 vhcurveto
            4 20 2 24 28 vvcurveto
            68 vlineto
            41 12 49 12 55 10 rrcurveto
            return
          </CharString>
          <CharString index="39">
            50 23 35 40 41 -25 42 -53 -50 -28 -37 -40 -40 28 -41 55 hvcurveto
            -1 34 rmoveto
            -28 -14 25 21 22 15 23 26 27 12 -25 -23 -23 -13 -20 -25 hvcurveto
            endchar
          </CharString>
          <CharString index="40">
            -93 -21 135 -21 286 168 -41 41 248 48 return
          </CharString>
          <CharString index="41">
            49 50 -33 59 hhcurveto
            68 57 47 43 1 hvcurveto
            endchar
          </CharString>
          <CharString index="42">
            -250 52 212 76 360 55 -5 -20 hstemhm
            32 105 47 39 92 100 hintmask 11011110
            315 -65 callgsubr
            -48 vlineto
            hintmask 11101110
            -38 callgsubr
            return
          </CharString>
          <CharString index="43">
            rmoveto
            -104 -38 -96 -76 -41 -18 29 61 vhcurveto
            263 vlineto
            20 18 23 14 27 hhcurveto
            38 29 -28 -42 17 hvcurveto
            return
          </CharString>
          <CharString index="44">
            214 430 rlineto
            return
          </CharString>
          <CharString index="45">
            hlineto
            -77 -26 -25 -34 return
          </CharString>
          <CharString index="46">
            13 -17 6 13 vvcurveto
            return
          </CharString>
          <CharString index="47">
            31 callsubr
            -32 -46 -9 -80 -37 vhcurveto
            50 -16 -32 39 -70 hhcurveto
            -34 -42 -10 -64 -34 hvcurveto
            return
          </CharString>
          <CharString index="48">
            46 -65 callgsubr
            -500 100 320 vlineto
            return
          </CharString>
          <CharString index="49">
            rmoveto
            132 110 113 143 143 -110 112 -132 -132 -110 -113 -143 -142 110 -113 132 hvcurveto
            -216 255 rmoveto
            132 99 102 119 118 99 -102 -132 -132 -99 -102 -118 -119 -99 102 132 vhcurveto
            return
          </CharString>
          <CharString index="50">
            -60 callgsubr
            -79 -85 -61 -59 -115 vhcurveto
            return
          </CharString>
          <CharString index="51">
            -14 0 callgsubr
            -152 -145 -109 -127 return
          </CharString>
          <CharString index="52">
            -698 rmoveto
            -27 -19 -59 callgsubr
            8 callgsubr
            vhcurveto
            endchar
          </CharString>
          <CharString index="53">
            -71 callsubr
            395 35 return
          </CharString>
          <CharString index="54">
            122 -45 45 return
          </CharString>
          <CharString index="55">
            22 26 33 31 37 60 29 return
          </CharString>
          <CharString index="56">
            -101 callsubr
            -6 4 -25 return
          </CharString>
          <CharString index="57">
            vlineto
            -187 -410 rmoveto
            -58 -33 43 107 hvcurveto
            hintmask 11101110
            89 33 121 60 callsubr
            -213 vlineto
            -59 -47 -45 -40 vhcurveto
            43 -288 -74 callsubr
          </CharString>
          <CharString index="58">
            122 -20 -81 33 -61 hhcurveto
            -43 -30 -16 -23 -22 hvcurveto
            237 vlineto
            -100 -14 rlineto
            return
          </CharString>
          <CharString index="59">
            100 295 -53 callsubr
            return
          </CharString>
          <CharString index="60">
            105 -19 41 -64 257 vhcurveto
            -23 -392 22 callgsubr
            -90 callsubr
            return
          </CharString>
          <CharString index="61">
            84 9 54 71 33 13 -3 -2 15 vhcurveto
            return
          </CharString>
          <CharString index="62">
            rmoveto
            -217 -114 vlineto
            14 50 42 47 56 vvcurveto
            47 -39 25 -24 vhcurveto
            5 -11 10 -11 -43 vvcurveto
            -67 -42 -75 -6 -49 vhcurveto
            154 -149 59 149 34 hlineto
            3 31 rlineto
            -37 225 hlineto
            endchar
          </CharString>
          <CharString index="63">
            -76 -16 -25 -33 -31 hhcurveto
            -44 -1 65 21 hvcurveto
            return
          </CharString>
          <CharString index="64">
            88 -14 -39 68 -104 hhcurveto
            -150 -45 -161 -117 -172 98 -61 89 108 63 99 164 15 0 14 -2 15 hvcurveto
            50 14 55 38 28 54 75 -189 rcurveline
            -66 -39 -67 -75 -72 vvcurveto
            return
          </CharString>
          <CharString index="65">
            27 47 -10 vhcurveto
            -10 8 return
          </CharString>
          <CharString index="66">
            rmoveto
            8 callgsubr
            38 callsubr
            vhcurveto
            endchar
          </CharString>
          <CharString index="67">
            133 hstemhm
            29 -22 callgsubr
            return
          </CharString>
          <CharString index="68">
            -6 76 380 55 return
          </CharString>
          <CharString index="69">
            24 22 29 27 vvcurveto
            8 -2 9 -12 7 vhcurveto
            -50 -25 -42 -85 -64 vvcurveto
            -45 20 -35 51 vhcurveto
            return
          </CharString>
          <CharString index="70">
            -6 -28 callgsubr
            return
          </CharString>
          <CharString index="71">
            102 187 99 return
          </CharString>
          <CharString index="72">
            52 24 39 23 20 vhcurveto
            -4 31 rlineto
            -23 -17 -18 -21 -27 hhcurveto
            return
          </CharString>
          <CharString index="73">
            -50 -1 57 26 hvcurveto
            58 5 69 44 vvcurveto
            79 30 callgsubr
            return
          </CharString>
          <CharString index="74">
            37 26 29 66 30 5 callgsubr
          </CharString>
          <CharString index="75">
            rmoveto
            175 195 -219 185 -31 -44 167 -140 -143 -151 rlineto
            return
          </CharString>
          <CharString index="76">
            40 -37 20 -28 -26 -21 -15 -25 -14 9 -18 16 -10 vhcurveto
            return
          </CharString>
          <CharString index="77">
            -80 callgsubr
            vhcurveto
            -37 hlineto
            return
          </CharString>
          <CharString index="78">
            -44 0 59 31 hvcurveto
            return
          </CharString>
          <CharString index="79">
            25 callgsubr
            121 vstem
            return
          </CharString>
          <CharString index="80">
            rmoveto
            -13 -10 -21 -7 -22 hhcurveto
            return
          </CharString>
          <CharString index="81">
            -103 45 39 -43 -75 callsubr
            return
          </CharString>
          <CharString index="82">
            6 -29 3 -39 -37 vvcurveto
            -118 -30 -132 -82 -49 -9 46 44 vhcurveto
            340 return
          </CharString>
          <CharString index="83">
            64 45 -18 hvcurveto
            return
          </CharString>
          <CharString index="84">
            18 23 24 29 -27 20 -26 -5 -5 0 -2 -5 vhcurveto
            return
          </CharString>
          <CharString index="85">
            460 419 rmoveto
            -153 -10 -50 -87 -88 hhcurveto
            -99 -59 109 139 145 64 142 131 58 46 -28 -65 -59 -37 -12 -6 hvcurveto
            return
          </CharString>
          <CharString index="86">
            68 callgsubr
            225 8 callsubr
            return
          </CharString>
          <CharString index="87">
            -32 hlineto
            -78 -35 -60 -31 return
          </CharString>
          <CharString index="88">
            -44 -75 callsubr
            return
          </CharString>
          <CharString index="89">
            -70 -66 callgsubr
            endchar
          </CharString>
          <CharString index="90">
            vlineto
            -187 -630 rmoveto
            -58 -33 46 114 93 33 127 86 30 20 -22 -21 9 hvcurveto
            66 callgsubr
          </CharString>
          <CharString index="91">
            4 callgsubr
            vhcurveto
            -26 -1 -14 -11 -31 vvcurveto
            return
          </CharString>
          <CharString index="92">
            rlineto
            -65 -48 -54 -29 -43 44 callgsubr
            return
          </CharString>
          <CharString index="93">
            -8 -7 -4 -11 -17 vvcurveto
            -26 9 -15 22 -6 vhcurveto
            return
          </CharString>
          <CharString index="94">
            -65 callgsubr
            127 -321 return
          </CharString>
          <CharString index="95">
            76 256 179 -53 53 return
          </CharString>
          <CharString index="96">
            289 -6 76 644 36 return
          </CharString>
          <CharString index="97">
            -6 76 -49 -21 return
          </CharString>
          <CharString index="98">
            -17 28 12 -9 24 hhcurveto
            55 10 48 35 114 -109 31 -95 -213 -89 -155 -176 -188 101 -124 147 hvcurveto
            return
          </CharString>
          <CharString index="99">
            229 505 rmoveto
            -150 -45 -161 -117 -172 98 -61 89 108 63 99 164 16 0 15 -2 16 hvcurveto
            44 return
          </CharString>
          <CharString index="100">
            -31 -78 hhcurveto
            -70 -49 24 106 -8 52 callsubr
            return
          </CharString>
          <CharString index="101">
            -52 -52 35 71 hvcurveto
            -69 hlineto
            -95 86 -48 86 86 86 48 95 vhcurveto
            return
          </CharString>
          <CharString index="102">
            -71 callsubr
            430 -20 return
          </CharString>
          <CharString index="103">
            136 -106 106 -84 84 return
          </CharString>
          <CharString index="104">
            4 11 1 10 7 vvcurveto
            47 -39 23 -53 -89 -27 -64 -58 -70 39 -83 134 143 61 94 155 vhcurveto
            376 vlineto
            return
          </CharString>
          <CharString index="105">
            -29 callsubr
            -26 callgsubr
            -340 -582 -41 callsubr
          </CharString>
          <CharString index="106">
            -6 76 386 49 return
          </CharString>
          <CharString index="107">
            vlineto
            -65 23 -80 92 44 65 18 167 30 vhcurveto
            -102 callsubr
            540 vlineto
            return
          </CharString>
          <CharString index="108">
            73 59 31 64 35 hvcurveto
            -238 vlineto
            -104 -49 -30 -46 -54 -46 42 57 38 21 29 46 15 25 -3 -25 23 vhcurveto
            return
          </CharString>
          <CharString index="109">
            -48 callgsubr
            -88 callsubr
            hvcurveto
            -61 callsubr
            return
          </CharString>
          <CharString index="110">
            140 122 -89 89 33 106 92 106 return
          </CharString>
          <CharString index="111">
            56 -56 125 120 -53 callsubr
            return
          </CharString>
          <CharString index="112">
            -6 -11 callgsubr
            return
          </CharString>
          <CharString index="113">
            hstemhm
            -10 callgsubr
            return
          </CharString>
          <CharString index="114">
            28 -71 -36 21 -92 hhcurveto
            return
          </CharString>
          <CharString index="115">
            131 -54 54 return
          </CharString>
          <CharString index="116">
            50 vvcurveto
            92 -74 85 -157 -176 -145 -107 -134 -78 46 -38 74 vhcurveto
            -7 13 -28 29 73 vvcurveto
            return
          </CharString>
          <CharString index="117">
            -65 callgsubr
            -512 -31 callgsubr
            return
          </CharString>
          <CharString index="118">
            596 748 rmoveto
            -654 vlineto
            -278 642 rlineto
            return
          </CharString>
          <CharString index="119">
            -20 hstemhm
            36 107 153 64 244 -53 callsubr
            return
          </CharString>
          <CharString index="120">
            34 callsubr
            -546 57 callgsubr
            return
          </CharString>
          <CharString index="121">
            -128 rmoveto
            45 -25 25 -50 -15 -17 -3 -5 -19 vhcurveto
            return
          </CharString>
          <CharString index="122">
            34 57 -18 42 hhcurveto
            45 14 21 32 22 -7 10 -2 9 hvcurveto
            -31 -23 -26 -9 -29 hhcurveto
            return
          </CharString>
          <CharString index="123">
            80 -12 55 195 57 233 221 -36 36 return
          </CharString>
          <CharString index="124">
            92 -16 76 464 226 -36 36 return
          </CharString>
          <CharString index="125">
            -145 43 callsubr
            return
          </CharString>
          <CharString index="126">
            rmoveto
            -33 -15 25 22 34 36 42 56 34 hvcurveto
            -81 -66 callgsubr
            endchar
          </CharString>
          <CharString index="127">
            rmoveto
            37 -29 29 -37 -36 -31 -29 -37 -36 31 -31 36 37 29 31 36 vhcurveto
            endchar
          </CharString>
          <CharString index="128">
            -100 callsubr
            -114 hlineto
            return
          </CharString>
          <CharString index="129">
            -20 hstemhm
            47 67 callgsubr
            return
          </CharString>
          <CharString index="130">
            rmoveto
            -32 25 -25 32 32 26 25 32 32 -26 26 -32 -32 -25 -26 -32 vhcurveto
            return
          </CharString>
          <CharString index="131">
            vlineto
            -65 20 -80 100 62 return
          </CharString>
          <CharString index="132">
            rmoveto
            -48 -38 45 108 return
          </CharString>
          <CharString index="133">
            23 -107 hhcurveto
            -218 -80 -103 -109 -108 52 -37 66 hvcurveto
            -19 22 return
          </CharString>
          <CharString index="134">
            90 21 118 75 31 22 -21 -34 -17 -6 -24 -11 -9 vhcurveto
            endchar
          </CharString>
          <CharString index="135">
            54 41 callgsubr
            return
          </CharString>
          <CharString index="136">
            68 callsubr
            154 98 -98 181 return
          </CharString>
          <CharString index="137">
            -29 -36 -24 -35 hvcurveto
            return
          </CharString>
          <CharString index="138">
            hhcurveto
            -44 -1 65 21 hvcurveto
            -58 callgsubr
            return
          </CharString>
          <CharString index="139">
            180 -207 39 166 70 41 70 345 228 -38 38 return
          </CharString>
          <CharString index="140">
            1 -11 1 -12 -12 vvcurveto
            endchar
          </CharString>
          <CharString index="141">
            146 548 rmoveto
            -46 callsubr
            return
          </CharString>
          <CharString index="142">
            -179 110 809 -20 hstem
            18 84 145 109 vstem
            return
          </CharString>
          <CharString index="143">
            vlineto
            -89 68 -48 69 138 47 192 151 vhcurveto
            endchar
          </CharString>
          <CharString index="144">
            195 21 -21 745 -20 25 -20 return
          </CharString>
          <CharString index="145">
            -27 -19 -52 callsubr
            return
          </CharString>
          <CharString index="146">
            47 638 rmoveto
            -138 -34 -35 34 return
          </CharString>
          <CharString index="147">
            hstemhm
            20 74 117 67 318 67 return
          </CharString>
          <CharString index="148">
            -229 -21 1000 -20 hstem
            return
          </CharString>
          <CharString index="149">
            vlineto
            7 callsubr
            return
          </CharString>
          <CharString index="150">
            -698 rmoveto
            -27 -19 22 26 return
          </CharString>
          <CharString index="151">
            -21 254 -20 hstemhm
            return
          </CharString>
          <CharString index="152">
            vlineto
            -3 callgsubr
            return
          </CharString>
          <CharString index="153">
            29 27 17 29 30 32 -19 -43 -33 -18 -45 -55 -14 vhcurveto
            return
          </CharString>
          <CharString index="154">
            1 -5 0 -6 -6 vvcurveto
            -52 -39 -64 -37 -51 vhcurveto
            endchar
          </CharString>
          <CharString index="155">
            210 -55 55 return
          </CharString>
          <CharString index="156">
            48 61 -24 hvcurveto
            -14 35 rlineto
            75 101 43 70 76 vvcurveto
            return
          </CharString>
          <CharString index="157">
            284 36 hstemhm
            17 85 130 108 147 82 return
          </CharString>
          <CharString index="158">
            -73 78 -93 -45 -34 -19 -26 -25 return
          </CharString>
          <CharString index="159">
            hvcurveto
            135 16 82 61 105 vvcurveto
            return
          </CharString>
          <CharString index="160">
            -156 -242 49 422 50 422 49 hstemhm
            return
          </CharString>
          <CharString index="161">
            -8 34 26 -9 34 hhcurveto
            109 67 98 164 return
          </CharString>
          <CharString index="162">
            36 hstemhm
            18 76 148 108 211 119 return
          </CharString>
          <CharString index="163">
            136 -55 55 -5 -20 return
          </CharString>
          <CharString index="164">
            -81 33 -72 84 28 42 11 67 vhcurveto
            7 vlineto
            return
          </CharString>
          <CharString index="165">
            -5 68 callsubr
            135 100 142 97 return
          </CharString>
          <CharString index="166">
            54 -36 36 -36 48 213 130 -26 26 return
          </CharString>
          <CharString index="167">
            86 30 20 -22 -21 9 vhcurveto
            return
          </CharString>
          <CharString index="168">
            46 686 rmoveto
            -686 100 return
          </CharString>
          <CharString index="169">
            641 rmoveto
            -641 108 return
          </CharString>
          <CharString index="170">
            -218 30 -30 60 61 39 return
          </CharString>
          <CharString index="171">
            31 -31 170 110 128 -25 25 return
          </CharString>
          <CharString index="172">
            157 49 95 152 vhcurveto
            710 vlineto
            return
          </CharString>
          <CharString index="173">
            -228 vlineto
            -58 -41 -51 -51 vhcurveto
            endchar
          </CharString>
          <CharString index="174">
            -6 75 60 87 return
          </CharString>
          <CharString index="175">
            -20 9 callgsubr
            return
          </CharString>
        <CharString name=".notdef">
          -28 endchar
        </CharString>
        <CharString name="A">
          -67 callsubr
          -20 callgsubr
          hintmask 11101111
          -103 callgsubr
          hintmask 11011111
          -102 callgsubr
          endchar
        </CharString>
        <CharString name="A.salt">
          116 -93 -21 135 -21 380 38 284 48 hstem
          27 107 239 110 vstem
          483 hmoveto
          736 vlineto
          10 -26 -34 4 -20 hhcurveto
          -217 -159 -476 -223 -147 83 -18 59 hvcurveto
          -29 54 -6 57 58 vvcurveto
          96 17 119 29 110 vhcurveto
          193 -380 hlineto
          702 vmoveto
          -284 -182 vlineto
          45 153 67 126 70 5 rrcurveto
          endchar
        </CharString>
        <CharString name="AE">
          420 -93 -21 114 70 216 168 -100 59 244 74 -74 93 hstemhm
          10 109 35 107 239 110 hintmask 1110011110000000
          734 657 rmoveto
          45 38 14 79 5 hvcurveto
          hintmask 1110101110000000
          -9 -24 -52 -10 -35 hhcurveto
          hintmask 1110011110000000
          -48 -76 19 -47 hhcurveto
          -124 -102 -137 -161 -68 hvcurveto
          2 -16 -15 0 -15 hhcurveto
          -109 -81 -38 -67 -45 36 -18 31 20 22 7 26 15 -7 11 -19 6 hvcurveto
          -1 2 0 2 2 vvcurveto
          hintmask 1101011110000000
          33 61 21 77 2 vhcurveto
          -49 -129 -27 -139 -89 vvcurveto
          -151 79 -19 63 vhcurveto
          -29 54 -6 57 58 vvcurveto
          107 20 130 34 117 vhcurveto
          65 -8 70 -17 50 -24 rrcurveto
          -360 330 70 -220 284 147 59 -147 266 vlineto
          -11 40 43 -11 41 hhcurveto
          -409 -215 rmoveto
          44 137 62 111 69 11 rrcurveto
          -311 vlineto
          -44 21 -65 19 -66 12 rrcurveto
          endchar
        </CharString>
        <CharString name="Aacute">
          -67 callsubr
          250 -20 -20 callgsubr
          hintmask 1110111110000000
          -103 callgsubr
          hintmask 1101111110000000
          -102 callgsubr
          126 369 -101 callgsubr
          endchar
        </CharString>
        <CharString name="Acircumflex">
          -67 callsubr
          228 -20 -20 callgsubr
          hintmask 1110111110000000
          -103 callgsubr
          hintmask 1101111110000000
          -102 callgsubr
          283 369 -99 callgsubr
        </CharString>
        <CharString name="Adieresis">
          -67 callsubr
          92 107 hstemhm
          -43 109 35 107 90 107 42 110 hintmask 1110111111000000
          -103 callgsubr
          hintmask 1101111111000000
          -102 callgsubr
          185 453 rmoveto
          -105 callsubr
          -159 hmoveto
          -105 callsubr
          endchar
        </CharString>
        <CharString name="Agrave">
          -67 callsubr
          250 -20 -20 callgsubr
          hintmask 1110111110000000
          -103 callgsubr
          hintmask 1101111110000000
          -102 callgsubr
          116 558 -70 callsubr
        </CharString>
        <CharString name="Aogonek">
          -193 49 165 -21 286 168 -41 41 248 48 hstemhm
          -43 109 35 107 192 65 -18 110 hintmask 1110111010000000
          -103 callgsubr
          hintmask 1101111010000000
          33 62 21 77 2 vhcurveto
          -49 -129 -28 -139 -94 vvcurveto
          -147 82 -18 60 vhcurveto
          -29 54 -6 57 58 vvcurveto
          104 21 132 33 118 vhcurveto
          66 -8 69 -17 50 -24 rrcurveto
          -360 vlineto
          hintmask 1110111100000000
          -31 -32 -16 -37 -32 vvcurveto
          -39 35 -53 62 -35 callsubr
          -42 -20 33 35 30 13 30 25 16 hvcurveto
          hintmask 1110111010000000
          -231 442 rmoveto
          45 143 64 113 66 4 rrcurveto
          -312 vlineto
          -44 21 -65 19 -66 12 rrcurveto
          endchar
        </CharString>
        <CharString name="Aring">
          -67 callsubr
          55 34 91 33 hstemhm
          -43 109 35 107 130 40 69 47 -47 110 hintmask 1110111111010000
          -103 callgsubr
          hintmask 1101111111100000
          33 62 21 77 2 vhcurveto
          -49 -129 -28 -139 -94 vvcurveto
          -147 82 -18 60 vhcurveto
          -29 54 -6 57 58 vvcurveto
          104 21 132 33 118 vhcurveto
          66 -8 69 -17 50 -24 rrcurveto
          -360 vlineto
          hintmask 1110111111010000
          -175 442 rmoveto
          45 143 64 113 66 4 rrcurveto
          -312 vlineto
          -44 21 -65 19 -66 12 rrcurveto
          149 363 rmoveto
          hintmask 1110111111100000
          -68 callsubr
        </CharString>
        <CharString name="Atilde">
          -67 callsubr
          75 70 -37 37 -37 66 -20 callgsubr
          hintmask 1110110011100000
          -103 callgsubr
          hintmask 1101101011100000
          -102 callgsubr
          325 473 -27 callsubr
          hintmask 1110100111100000
          -86 callgsubr
          hintmask 1110110011100000
          -66 callsubr
        </CharString>
        <CharString name="B">
          257 -17 81 -43 -21 394 36 50 callsubr
          -26 118 hintmask 01111110
          -17 callgsubr
          390 vlineto
          2 22 27 2 16 hhcurveto
          hintmask 10111101
          86 52 -53 -126 -68 -15 -83 -68 -24 -31 10 29 -19 hvcurveto
          -3 -9 -1 -17 -8 vvcurveto
          -57 52 -29 59 137 31 157 85 126 -68 73 -102 10 vhcurveto
          hintmask 10111110
          50 35 28 54 9 callsubr
          endchar
        </CharString>
        <CharString name="B.salt">
          259 -27 76 -28 -21 393 37 50 callsubr
          -23 23 -23 118 hintmask 0111111000000000
          -17 callgsubr
          39 vlineto
          hintmask 1011110010000000
          -37 35 56 -29 63 hhcurveto
          130 40 158 95 114 -69 81 -105 12 hvcurveto
          hintmask 1011110100000000
          51 35 28 55 9 callsubr
          297 -114 rmoveto
          90 57 -59 -130 -73 -25 -83 -73 -44 -38 25 21 -26 hvcurveto
          295 vlineto
          2 19 23 2 17 hhcurveto
          endchar
        </CharString>
        <CharString name="C">
          17 callsubr
          hstemhm
          47 118 255 76 hintmask 10111000
          555 180 rmoveto
          -84 -36 -56 -36 -86 hhcurveto
          -135 -77 89 218 175 50 172 121 50 34 -30 -63 -37 -12 -33 -12 -9 hvcurveto
          hintmask 11011000
          -12 11 18 -6 18 hhcurveto
          39 14 28 42 104 -86 52 -101 -205 -57 -217 -183 -244 101 -122 171 126 101 66 120 34 hvcurveto
          endchar
        </CharString>
        <CharString name="Cacute">
          17 callsubr
          250 -92 callsubr
          -276 641 -101 callgsubr
          endchar
        </CharString>
        <CharString name="Ccaron">
          17 callsubr
          242 -92 callsubr
          -363 822 -82 callgsubr
        </CharString>
        <CharString name="Ccedilla">
          94 63 callsubr
          43 75 464 226 -36 36 hstemhm
          48 118 238 57 -40 76 hintmask 1011011100000000
          461 14 callsubr
          9 51 114 8 91 64 32 113 rlinecurve
          -25 10 rlineto
          -84 -36 -56 -36 -86 hhcurveto
          -135 -77 89 218 175 50 172 121 hvcurveto
          hintmask 1011101010000000
          50 34 -30 -63 -37 -12 -33 -12 -9 hvcurveto
          -12 11 18 -6 18 hhcurveto
          39 14 28 42 104 -86 52 -101 -205 -57 -217 -183 -235 94 -122 159 -8 hvcurveto
          -14 -104 61 callgsubr
          hintmask 1011101100000000
          38 callgsubr
          hintmask 0111101100000000
          -41 callgsubr
        </CharString>
        <CharString name="Ccircumflex">
          17 callsubr
          228 -92 callsubr
          -129 641 -99 callgsubr
        </CharString>
        <CharString name="D">
          292 -13 65 -31 -21 714 55 callsubr
          hintmask 01111100
          242 62 callsubr
          45 vlineto
          hintmask 10111100
          -33 callgsubr
          11 callgsubr
          578 vlineto
          endchar
        </CharString>
        <CharString name="E">
          -4 callgsubr
          -13 callgsubr
          192 67 hintmask 11001010
          -76 callgsubr
          hintmask 10100110
          -105 25 -7 106 28 vvcurveto
          66 40 71 72 39 41 -21 -51 -38 -22 -26 -19 -8 vhcurveto
          hintmask 11001010
          -92 callgsubr
          hintmask 11010010
          -85 -35 -50 -75 -98 vvcurveto
          -108 60 -119 153 114 117 67 121 36 vhcurveto
          endchar
        </CharString>
        <CharString name="E.salt">
          169 0 70 284 59 233 53 callgsubr
          480 646 rmoveto
          hintmask 11011100
          46 31 callgsubr
          -45 12 -69 hhcurveto
          -195 -83 -104 -112 -98 36 -43 83 hvcurveto
          -24 20 -21 50 75 vvcurveto
          112 56 33 67 6 7 0 -1 7 vhcurveto
          -682 340 70 -232 284 160 59 -160 251 vlineto
          hintmask 11101100
          -9 45 46 -9 43 hhcurveto
          endchar
        </CharString>
        <CharString name="E_x">
          363 -18 79 -67 67 394 105 -17 209 -38 38 hstemhm
          42 111 -66 66 -66 91 192 67 192 -53 callsubr
          hintmask 1010101011000000
          421 462 rmoveto
          112 -283 2 -7 rlineto
          -60 -37 -84 -51 -99 hhcurveto
          -114 -48 69 96 96 49 76 88 20 hvcurveto
          hintmask 1010100111000000
          -100 24 -12 99 36 vvcurveto
          66 40 71 72 39 41 -21 -51 -38 -22 -26 -19 -8 vhcurveto
          hintmask 1001001011000000
          -92 callgsubr
          hintmask 1010110011000000
          -85 -35 -50 -74 -100 vvcurveto
          -107 57 -119 163 112 120 55 95 58 vhcurveto
          hintmask 0110110011000000
          -97 43 39 -41 65 hhcurveto
          43 61 -85 callsubr
          hvcurveto
          -35 hlineto
          -64 -13 -28 -45 -33 hhcurveto
          -40 -19 -24 callsubr
          -14 35 rlineto
          75 101 43 70 76 -73 callgsubr
          hintmask 1010110010100000
          1 -5 0 -6 -6 vvcurveto
          -59 -50 -74 -40 -53 vhcurveto
          -81 206 rlineto
          endchar
        </CharString>
        <CharString name="Eacute">
          -4 callgsubr
          248 -96 callgsubr
          -270 641 -101 callgsubr
          endchar
        </CharString>
        <CharString name="Ecircumflex">
          -4 callgsubr
          226 -96 callgsubr
          -102 641 -99 callgsubr
        </CharString>
        <CharString name="Edieresis">
          -4 callgsubr
          90 107 -13 callgsubr
          -49 107 52 107 -25 67 hintmask 1101010010000000
          -76 callgsubr
          hintmask 1011001001000000
          -105 25 -7 106 28 vvcurveto
          66 40 71 72 39 41 -21 -51 -38 -22 -26 -19 -8 vhcurveto
          hintmask 1101010001000000
          -92 callgsubr
          hintmask 1101100010000000
          -85 -35 -50 -75 -98 vvcurveto
          -108 60 -119 153 114 117 67 121 36 vhcurveto
          hintmask 1101000110000000
          -393 725 rmoveto
          -105 callsubr
          159 hmoveto
          -105 callsubr
          endchar
        </CharString>
        <CharString name="Egrave">
          -4 callgsubr
          248 -96 callgsubr
          -284 830 -70 callsubr
        </CharString>
        <CharString name="Eogonek">
          34 -193 49 126 79 482 209 -38 38 -13 callgsubr
          135 76 -19 67 hintmask 1110010100000000
          -76 callgsubr
          hintmask 1101001010000000
          -103 24 -9 100 33 vvcurveto
          69 40 70 72 39 41 -21 -51 -38 -22 -26 -19 -8 vhcurveto
          hintmask 1110010010000000
          -92 callgsubr
          hintmask 1110100100000000
          -85 -35 -50 -75 -98 vvcurveto
          -108 60 -119 153 37 37 7 13 34 vhcurveto
          -33 -32 -17 -39 -32 vvcurveto
          -39 35 -53 62 -35 callsubr
          -30 -21 28 42 33 6 44 35 36 hvcurveto
          37 37 38 38 17 56 rrcurveto
          endchar
        </CharString>
        <CharString name="Eth">
          292 -13 65 -31 -21 352 61 301 55 callsubr
          hintmask 10111110
          94 507 rmoveto
          11 callgsubr
          274 82 61 -82 243 vlineto
          -108 -15 rlineto
          -228 -64 -61 64 vlineto
          hintmask 01111110
          -352 108 45 vlineto
          hintmask 10111110
          -33 callgsubr
          endchar
        </CharString>
        <CharString name="Euro">
          203 -16 76 234 40 75 40 75 226 -36 36 hstemhm
          101 116 255 76 hintmask 11101110
          28 334 rmoveto
          -40 73 vlineto
          -207 14 98 -103 158 hhcurveto
          96 81 38 71 48 hvcurveto
          -26 25 rlineto
          -40 -34 -46 -18 -61 hhcurveto
          -119 -74 69 165 -16 hvcurveto
          210 40 -213 33 hlineto
          14 0 14 1 14 vhcurveto
          212 40 -209 hlineto
          143 13 52 122 102 hhcurveto
          50 34 -30 -63 -37 -12 -33 -12 -9 hvcurveto
          hintmask 11110110
          -12 11 18 -6 18 hhcurveto
          39 14 28 42 104 -86 52 -101 -169 -69 -147 -154 -19 hvcurveto
          -76 -40 73 hlineto
          -2 -20 0 -20 -19 vvcurveto
          -16 vlineto
          endchar
        </CharString>
        <CharString name="F">
          141 21 -21 376 59 211 53 callgsubr
          479 646 rmoveto
          hintmask 11011100
          47 31 callgsubr
          -46 12 -68 hhcurveto
          -195 -83 -99 -127 -88 40 -43 79 hvcurveto
          -24 20 -21 51 71 vvcurveto
          114 54 34 70 6 6 0 -1 7 vhcurveto
          -682 108 376 148 59 -148 229 vlineto
          hintmask 11101100
          -9 45 46 -9 42 hhcurveto
          endchar
        </CharString>
        <CharString name="F_i">
          353 -10 callsubr
          376 59 65 -20 135 115 -48 68 hstemhm
          81 71 145 109 190 100 hintmask 1011101110000000
          628 615 rmoveto
          76 15 47 87 hvcurveto
          -14 -51 -47 -5 -43 hhcurveto
          hintmask 0111011110000000
          15 callgsubr
          87 48 52 97 4 vhcurveto
          -682 109 376 128 59 -128 234 vlineto
          hintmask 1011101110000000
          -19 83 74 -35 65 hhcurveto
          -32 -115 rmoveto
          -361 vlineto
          -65 23 -80 92 44 65 18 167 30 vhcurveto
          -102 callsubr
          -26 callgsubr
          endchar
        </CharString>
        <CharString name="G">
          32 callsubr
          hstemhm
          33 121 26 73 -73 208 60 109 -97 79 hintmask 1110111001000000
          -22 callsubr
          hintmask 1111011001000000
          -9 callsubr
          hintmask 1111011010000000
          1 callsubr
          hintmask 1111010110000000
          -3 callsubr
          endchar
        </CharString>
        <CharString name="Gbreve">
          32 callsubr
          58 37 -37 143 hstemhm
          33 121 26 61 -61 73 -73 208 60 109 -97 56 -56 79 hintmask 1110110110000100
          -22 callsubr
          hintmask 1111010110000100
          -9 callsubr
          hintmask 1111010101010000
          1 callsubr
          hintmask 1111010100110000
          -3 callsubr
          hintmask 1111001110000100
          -107 535 rmoveto
          hintmask 1111010110010000
          -71 -1 -52 -35 -52 hhcurveto
          hintmask 1111001110001000
          -6 callsubr
          endchar
        </CharString>
        <CharString name="H">
          281 21 -21 376 59 315 -20 hstem
          18 78 118 109 216 109 vstem
          539 717 rmoveto
          -282 -216 313 vlineto
          1 -13 -13 0 callgsubr
          -136 -128 -107 -126 -91 56 -33 68 hvcurveto
          -18 9 -28 17 92 vvcurveto
          89 45 68 73 29 vhcurveto
          -697 109 376 216 -376 109 748 vlineto
          endchar
        </CharString>
        <CharString name="I">
          -10 21 -21 750 -20 hstem
          18 84 145 110 vstem
          357 748 rmoveto
          1 -13 -94 callgsubr
          -691 110 vlineto
          endchar
        </CharString>
        <CharString name="IJ">
          247 -207 41 149 71 -33 -21 750 -20 hstemhm
          18 84 145 77 -77 110 -110 189 66 112 hintmask 1011101010000000
          357 748 rmoveto
          1 -13 -94 callgsubr
          -691 16 vlineto
          -10 -19 -5 -22 -23 vvcurveto
          -69 48 -74 112 65 callsubr
          -112 -27 rlineto
          -757 vlineto
          -93 -49 -39 -51 vhcurveto
          hintmask 1101110010000000
          -54 -24 41 39 35 19 34 34 19 21 -8 -17 18 hvcurveto
          hintmask 1101100110000000
          5 1 5 4 vvcurveto
          hintmask 1101101010000000
          57 -29 23 -50 2 vhcurveto
          endchar
        </CharString>
        <CharString name="Iacute">
          -10 21 -21 750 -20 270 -20 hstem
          18 84 145 110 vstem
          357 748 rmoveto
          1 -13 -94 callgsubr
          -691 110 vlineto
          -85 811 -101 callgsubr
          endchar
        </CharString>
        <CharString name="Icircumflex">
          -10 21 -21 750 -20 248 -20 hstem
          18 84 145 110 vstem
          357 748 rmoveto
          1 -13 -94 callgsubr
          -691 110 vlineto
          82 811 -99 callgsubr
        </CharString>
        <CharString name="Idieresis">
          -10 21 -21 750 -20 112 107 hstemhm
          18 84 66 107 -28 110 -30 107 hintmask 11110100
          357 748 rmoveto
          1 -13 -94 callgsubr
          -691 110 vlineto
          hintmask 11111010
          -30 895 rmoveto
          -105 callsubr
          -159 hmoveto
          -105 callsubr
          endchar
        </CharString>
        <CharString name="Igrave">
          -10 21 -21 750 -20 270 -20 hstem
          18 84 145 110 vstem
          357 748 rmoveto
          1 -13 -94 callgsubr
          -691 110 vlineto
          -102 1000 -70 callsubr
        </CharString>
        <CharString name="J">
          20 -207 41 163 71 682 -20 hstemhm
          1 77 -77 201 -155 84 144 112 hintmask 11100110
          346 750 rmoveto
          -153 -146 -106 -135 -79 50 -37 80 hvcurveto
          -18 14 -28 30 70 vvcurveto
          96 52 67 92 22 vhcurveto
          -726 vlineto
          -93 -49 -39 -51 vhcurveto
          hintmask 11110010
          -47 -50 32 55 49 30 27 35 19 21 -8 -17 18 hvcurveto
          hintmask 11101010
          5 1 5 4 vvcurveto
          60 -31 22 -54 -90 -26 -67 -57 -86 51 -65 129 65 callsubr
          endchar
        </CharString>
        <CharString name="K">
          235 4 -21 38 -21 393 33 319 -20 25 -20 hstemhm
          17 79 150 110 134 106 hintmask 01101111
          36 callgsubr
          -109 -127 -88 56 -33 65 hvcurveto
          -36 32 -6 42 42 vvcurveto
          93 58 64 92 26 vhcurveto
          -692 110 383 vlineto
          3 13 14 2 12 58 callgsubr
          hintmask 10101111
          -60 29 -43 59 vhcurveto
          hintmask 01110111
          32 callgsubr
          93 -23 74 -136 -11 -14 -1 -1 -18 vhcurveto
          224 321 rlineto
          -88 hlineto
          -179 -320 rlineto
          endchar
        </CharString>
        <CharString name="L">
          40 35 callsubr
          357 738 rmoveto
          1 -13 -94 callgsubr
          -704 vlineto
          -23 callgsubr
          715 vlineto
          endchar
        </CharString>
        <CharString name="Lslash">
          76 35 callsubr
          247 -23 rmoveto
          -23 callgsubr
          397 vlineto
          109 83 -6 44 -103 -78 rlineto
          272 vlineto
          1 -12 -94 callgsubr
          -297 vlineto
          -99 -75 7 -43 92 69 rlineto
          endchar
        </CharString>
        <CharString name="M">
          339 21 -21 750 -20 hstem
          21 83 484 106 vstem
          462 hmoveto
          106 524 40 -524 rlineto
          114 hlineto
          -56 736 rlineto
          -114 hlineto
          -117 -581 -100 581 rlineto
          10 -18 -22 4 -21 hhcurveto
          -111 -142 -111 -132 -78 49 -36 71 hvcurveto
          -9 6 -28 19 91 vvcurveto
          111 47 61 84 19 vhcurveto
          -110 -700 rlineto
          60 hlineto
          81 514 89 -514 rlineto
          endchar
        </CharString>
        <CharString name="N">
          37 callgsubr
          40 callsubr
          hintmask 11011100
          11 callsubr
          hintmask 10111100
          -73 callsubr
          hintmask 11011100
          748 vlineto
          endchar
        </CharString>
        <CharString name="N.salt">
          288 -10 callsubr
          677 73 hstemhm
          17 84 145 110 171 105 hintmask 01111100
          36 callgsubr
          -106 -135 -79 50 -37 80 hvcurveto
          -20 17 -26 29 67 vvcurveto
          97 56 64 89 25 vhcurveto
          -692 110 542 vlineto
          63 22 72 64 44 41 -34 -142 vhcurveto
          -54 -6 -171 -66 vvcurveto
          hintmask 10111100
          -164 37 -52 77 54 63 25 160 21 vhcurveto
          -24 hlineto
          -53 -6 -36 -56 -32 hhcurveto
          -31 -12 21 120 hvcurveto
          65 7 188 53 vvcurveto
          160 -65 73 -88 -58 -47 -32 -53 -25 vhcurveto
          endchar
        </CharString>
        <CharString name="Nacute">
          37 callgsubr
          270 -20 40 callsubr
          hintmask 11011110
          11 callsubr
          hintmask 10111110
          -73 callsubr
          hintmask 11011110
          748 vlineto
          -259 63 -101 callgsubr
          endchar
        </CharString>
        <CharString name="Ntilde">
          37 callgsubr
          95 70 -37 37 -37 66 40 callsubr
          hintmask 1101001110000000
          11 callsubr
          hintmask 1011001110000000
          -73 callsubr
          hintmask 1100101110000000
          748 vlineto
          -65 167 -27 callsubr
          hintmask 1010011110000000
          -86 callgsubr
          hintmask 1011001110000000
          -66 callsubr
        </CharString>
        <CharString name="O">
          -11 callsubr
          hstem
          18 -28 callsubr
          -51 callsubr
          17 76 -97 callsubr
          endchar
        </CharString>
        <CharString name="OE">
          470 0 70 -55 -21 360 59 233 92 -24 36 hstemhm
          18 25 callgsubr
          120 hintmask 01110111
          393 656 rmoveto
          6 -19 -18 2 -14 hhcurveto
          -132 -43 -188 -152 -244 110 -86 133 hvcurveto
          hintmask 10110111
          20 20 2 4 17 hvcurveto
          404 70 -285 hlineto
          62 70 24 110 3 104 rrcurveto
          140 59 -140 hlineto
          -6 105 -30 99 -71 63 rrcurveto
          -9 68 82 -25 71 hhcurveto
          hintmask 10101111
          46 39 12 92 3 hvcurveto
          hintmask 10110111
          -9 -26 -29 -3 -33 hhcurveto
          hintmask 10101111
          -67 -46 12 -69 hhcurveto
          -51 -34 -10 -13 -33 hvcurveto
          15 -37 -43 8 -51 hhcurveto
          -190 -150 -110 -136 -74 44 -37 72 hvcurveto
          -6 4 -25 18 75 -97 callsubr
          endchar
        </CharString>
        <CharString name="Oacute">
          -11 callsubr
          250 -20 hstem
          18 -28 callsubr
          -101 callsubr
          -7 4 -24 17 76 -97 callsubr
          -9 155 -101 callgsubr
          endchar
        </CharString>
        <CharString name="Ocircumflex">
          -11 callsubr
          228 -20 hstem
          18 -28 callsubr
          -101 callsubr
          -7 3 -24 18 76 -97 callsubr
          159 155 -99 callgsubr
        </CharString>
        <CharString name="Odieresis">
          -11 callsubr
          92 107 hstemhm
          18 85 64 123 -8 107 52 107 7 121 hintmask 11111011
          -51 callsubr
          19 74 -97 callsubr
          hintmask 11110111
          -111 239 rmoveto
          -105 callsubr
          159 hmoveto
          -105 callsubr
          endchar
        </CharString>
        <CharString name="Ograve">
          -11 callsubr
          250 -20 hstem
          18 -28 callsubr
          -101 callsubr
          -7 4 -24 17 76 -97 callsubr
          -13 344 -70 callsubr
        </CharString>
        <CharString name="Ohungarumlaut">
          -11 callsubr
          61 189 hstem
          18 -28 callsubr
          -101 callsubr
          -4 3 -27 20 74 -97 callsubr
          -74 155 -101 callgsubr
          79 -189 -101 callgsubr
          endchar
        </CharString>
        <CharString name="Oslash">
          277 -50 -21 65 76 644 36 3 -20 hstemhm
          16 85 64 123 111 32 122 121 hintmask 11011111
          391 656 rmoveto
          6 -19 -18 2 -14 hhcurveto
          -132 -43 -188 -152 -239 104 -87 130 -4 hvcurveto
          -65 32 66 vlineto
          185 15 58 195 169 vvcurveto
          171 -58 163 -185 35 vhcurveto
          10 -32 -5 vlineto
          hintmask 11101111
          1 -14 -14 0 callgsubr
          -190 -150 -110 -136 -74 44 -37 72 hvcurveto
          -7 5 -24 18 74 vvcurveto
          149 106 75 133 20 20 -2 -5 19 vhcurveto
          -637 vlineto
          -98 5 -13 144 87 vvcurveto
          136 36 174 67 40 vhcurveto
          162 -257 rmoveto
          -149 -34 -151 -88 -26 vhcurveto
          624 vlineto
          71 -31 51 -81 -186 vvcurveto
          endchar
        </CharString>
        <CharString name="Otilde">
          -11 callsubr
          75 26 callgsubr
          18 25 callgsubr
          24 -24 121 hintmask 1101011010000000
          -51 callsubr
          17 76 -97 callsubr
          181 259 -27 callsubr
          hintmask 1100111100000000
          -86 callgsubr
          hintmask 1110011100000000
          -66 callsubr
        </CharString>
        <CharString name="P">
          188 21 -21 285 31 398 36 hstem
          18 78 136 108 166 94 vstem
          232 62 callsubr
          285 22 vlineto
          158 80 138 112 120 -100 95 -177 -162 -143 -109 -127 -86 46 -35 74 hvcurveto
          -10 9 -32 28 82 vvcurveto
          130 94 72 118 173 25 -109 -85 -97 -48 -106 -118 -1 vhcurveto
          -26 callgsubr
          endchar
        </CharString>
        <CharString name="Q">
          314 -91 62 23 76 50 30 564 36 hstem
          17 -28 callsubr
          392 656 rmoveto
          6 -19 -18 2 -14 hhcurveto
          -132 -43 -188 -152 -244 110 -86 132 40 35 8 13 29 hvcurveto
          -52 35 39 -54 75 hhcurveto
          43 23 18 46 11 hvcurveto
          -1 -7 -7 -1 -10 hhcurveto
          -66 -42 38 41 -41 hvcurveto
          82 73 28 132 124 vvcurveto
          186 -63 185 -246 -189 -160 -110 -137 -72 44 -38 72 vhcurveto
          -5 3 -26 20 72 vvcurveto
          151 116 75 133 113 90 -55 -255 -114 -18 -110 -44 -62 vhcurveto
          19 -26 -30 13 -38 hhcurveto
          -19 -31 -3 -11 -32 hvcurveto
          -23 50 -4 70 47 vvcurveto
          140 36 173 67 40 vhcurveto
          -3 -536 rmoveto
          29 23 -13 -20 19 hvcurveto
          -11 -16 -18 -6 -20 hhcurveto
          -32 -23 14 22 -17 hvcurveto
          10 19 21 4 15 hhcurveto
          endchar
        </CharString>
        <CharString name="R">
          239 4 -21 38 -21 388 35 291 36 hstemhm
          17 85 129 108 151 90 -90 106 hintmask 01111101
          231 62 callsubr
          381 vlineto
          4 16 25 3 15 58 callgsubr
          hintmask 10111110
          -60 29 -43 59 vhcurveto
          hintmask 01111101
          32 callgsubr
          81 -14 68 -99 15 vhcurveto
          hintmask 01111110
          61 39 31 68 55 vvcurveto
          97 -96 68 -160 -169 -138 -111 -125 -89 63 -32 55 vhcurveto
          -8 9 -25 13 94 vvcurveto
          128 93 77 124 140 33 -75 -64 -73 -47 -79 -80 vhcurveto
          -26 233 hlineto
          endchar
        </CharString>
        <CharString name="S">
          16 callsubr
          hstemhm
          34 94 -63 63 -63 97 196 82 -82 121 hintmask 1101010010000000
          440 612 rmoveto
          124 -128 13 -46 -104 -97 -68 -134 vhcurveto
          -232 293 87 -223 vvcurveto
          -88 -45 -48 -61 -52 -72 35 72 34 16 51 64 3 vhcurveto
          44 -16 -20 13 -29 hhcurveto
          hintmask 1110100010000000
          -72 -37 -80 -66 -114 109 -47 103 117 116 60 161 hvcurveto
          hintmask 1101001100000000
          267 -317 -78 194 vvcurveto
          67 38 54 70 67 29 -49 -46 -28 -11 -28 -18 -13 vhcurveto
          hintmask 1110100100000000
          -14 13 12 -7 18 hhcurveto
          36 24 31 53 hvcurveto
          endchar
        </CharString>
        <CharString name="Sacute">
          16 callsubr
          251 -84 callgsubr
          -207 199 -101 callgsubr
          endchar
        </CharString>
        <CharString name="Scaron">
          16 callsubr
          243 -84 callgsubr
          -289 380 -82 callgsubr
        </CharString>
        <CharString name="T">
          258 21 -21 630 96 -54 77 hstemhm
          20 77 213 108 hintmask 11011000
          582 630 rmoveto
          71 35 26 57 10 -1 12 -2 12 hvcurveto
          -11 -25 -38 -10 -55 hhcurveto
          hintmask 10111000
          -83 -59 26 callsubr
          -22 37 80 vvcurveto
          107 61 34 112 13 13 0 -2 14 vhcurveto
          -670 108 654 vlineto
          hintmask 11011000
          -13 59 57 -11 48 hhcurveto
          endchar
        </CharString>
        <CharString name="T_h">
          570 0 70 -55 -21 435 76 167 77 hstemhm
          20 73 216 110 143 100 154 103 hintmask 10111111
          913 156 rmoveto
          52 6 71 47 vvcurveto
          77 30 callgsubr
          147 vlineto
          85 4 41 10 41 vhcurveto
          -11 -25 -39 -1 -55 -83 -49 26 callsubr
          -26 37 80 vvcurveto
          107 65 34 112 13 13 -1 -1 13 vhcurveto
          -670 110 662 vlineto
          52 -9 47 -7 44 -2 rrcurveto
          -644 100 320 vlineto
          78 19 30 -88 callgsubr
          hintmask 01111111
          -81 33 -72 84 42 -30 callsubr
          hintmask 10111111
          -44 callsubr
          endchar
        </CharString>
        <CharString name="T_i">
          307 -10 callsubr
          500 -20 135 115 -48 68 hstemhm
          20 71 215 108 136 100 hintmask 01101111
          246 682 rmoveto
          20 20 -2 -3 20 hvcurveto
          -677 108 653 vlineto
          hintmask 10110111
          -18 64 60 -20 49 hhcurveto
          76 15 47 87 hvcurveto
          -14 -51 -67 -5 -43 hhcurveto
          hintmask 10101111
          15 callgsubr
          90 51 53 104 vhcurveto
          304 -182 rmoveto
          -361 vlineto
          -65 23 -80 92 44 65 18 167 30 vhcurveto
          -102 callsubr
          -26 callgsubr
          endchar
        </CharString>
        <CharString name="Thorn">
          187 21 -21 175 30 399 36 109 -20 hstem
          18 73 125 109 188 85 vstem
          216 734 rmoveto
          -110 vlineto
          -116 -34 -82 -87 -102 vvcurveto
          -72 40 -43 68 vhcurveto
          -5 10 -30 20 81 vvcurveto
          102 47 64 78 27 vhcurveto
          -590 109 176 vlineto
          -1 13 20 0 2 hhcurveto
          158 80 133 109 122 -101 101 -168 hvcurveto
          -4 109 hlineto
          188 -337 rmoveto
          -109 -61 -98 -105 vhcurveto
          -22 399 hlineto
          151 -6 37 -101 -85 vvcurveto
          endchar
        </CharString>
        <CharString name="U">
          -27 callgsubr
          hstemhm
          16 74 157 123 245 110 hintmask 11011100
          615 748 rmoveto
          -539 vlineto
          -123 -62 -16 -61 -61 -61 16 121 vhcurveto
          538 vlineto
          hintmask 10111100
          4 -21 -11 0 callgsubr
          -162 -145 -109 -128 -80 56 -39 54 hvcurveto
          -6 10 -30 25 77 vvcurveto
          107 58 72 99 22 vhcurveto
          -502 vlineto
          -76 33 -136 204 206 35 138 75 vhcurveto
          hintmask 11011100
          542 vlineto
          endchar
        </CharString>
        <CharString name="Uacute">
          -27 callgsubr
          270 -20 -98 callsubr
          -271 63 -101 callgsubr
          endchar
        </CharString>
        <CharString name="Ucircumflex">
          -27 callgsubr
          248 -20 -98 callsubr
          -92 63 -99 callgsubr
        </CharString>
        <CharString name="Udieresis">
          -27 callgsubr
          112 107 hstemhm
          16 74 157 123 -12 107 52 107 -9 110 hintmask 1101110010000000
          615 748 rmoveto
          -539 vlineto
          -123 -62 -16 -61 -61 -61 16 121 vhcurveto
          538 vlineto
          hintmask 1011110010000000
          4 -21 -11 0 callgsubr
          -162 -145 -109 -128 -80 56 -39 54 hvcurveto
          -6 10 -30 25 77 vvcurveto
          107 58 72 99 22 vhcurveto
          -502 vlineto
          -76 33 -136 204 206 35 138 75 vhcurveto
          hintmask 1101110010000000
          542 vlineto
          hintmask 1011101100000000
          -208 147 rmoveto
          -105 callsubr
          -159 hmoveto
          -105 callsubr
          endchar
        </CharString>
        <CharString name="Ugrave">
          -27 callgsubr
          270 -20 -98 callsubr
          -280 252 -70 callsubr
        </CharString>
        <CharString name="Uhungarumlaut">
          -27 callgsubr
          81 189 -98 callsubr
          -199 63 -101 callgsubr
          -181 -189 -101 callgsubr
          endchar
        </CharString>
        <CharString name="V">
          231 -35 callgsubr
          30 79 107 vhcurveto
          149 -693 rlineto
          111 hlineto
          hintmask 10110000
          168 745 rlineto
          -57 hlineto
          -139 -665 rlineto
          endchar
        </CharString>
        <CharString name="W">
          583 -35 callgsubr
          37 79 100 vhcurveto
          159 -693 rlineto
          111 hlineto
          115 542 120 -542 rlineto
          111 hlineto
          hintmask 10110000
          158 745 rlineto
          -57 hlineto
          -129 -665 -143 665 rlineto
          -74 hlineto
          -129 -665 rlineto
          endchar
        </CharString>
        <CharString name="X">
          202 21 -21 745 -20 26 -20 hstemhm
          20 70 hintmask 11010000
          630 hmoveto
          -167 388 140 357 rlineto
          -47 hlineto
          -118 -298 -129 301 rlineto
          hintmask 10110000
          2 -13 -14 1 -14 hhcurveto
          -131 -117 -91 -134 -100 40 -23 67 hvcurveto
          -18 18 -19 37 61 vvcurveto
          90 48 85 74 20 vhcurveto
          153 -354 -143 -360 rlineto
          47 hlineto
          122 301 131 -301 rlineto
          endchar
        </CharString>
        <CharString name="Y">
          37 callsubr
          hstemhm
          20 62 276 108 hintmask 11011000
          13 callgsubr
          -129 -381 -145 384 rlineto
          hintmask 10111000
          -51 callgsubr
          157 -406 rlineto
          -308 vlineto
          endchar
        </CharString>
        <CharString name="Yacute">
          37 callsubr
          270 -20 hstemhm
          20 62 276 108 hintmask 11011100
          13 callgsubr
          -129 -381 -145 384 rlineto
          hintmask 10111100
          -51 callgsubr
          157 -406 rlineto
          -308 vlineto
          51 811 -101 callgsubr
          endchar
        </CharString>
        <CharString name="Ydieresis">
          37 callsubr
          112 107 hstemhm
          20 62 204 107 -35 108 -21 107 hintmask 11011010
          13 callgsubr
          hintmask 10111101
          -129 -381 -145 384 rlineto
          -51 callgsubr
          hintmask 11011010
          157 -406 rlineto
          -308 vlineto
          hintmask 11011101
          87 895 rmoveto
          -105 callsubr
          -159 hmoveto
          -105 callsubr
          endchar
        </CharString>
        <CharString name="Z">
          -14 callgsubr
          hstemhm
          31 112 231 112 hintmask 10101100
          399 71 -79 callsubr
          hintmask 10011100
          -64 callgsubr
          hintmask 01101100
          -31 callsubr
          endchar
        </CharString>
        <CharString name="Zacute">
          -14 callgsubr
          250 -76 callsubr
          -158 740 -101 callgsubr
          endchar
        </CharString>
        <CharString name="Zcaron">
          -14 callgsubr
          242 -76 callsubr
          -236 921 -82 callgsubr
        </CharString>
        <CharString name="Zdotaccent">
          -14 callgsubr
          80 115 hstemhm
          31 112 72 115 44 112 hintmask 10101111
          215 887 23 callsubr
          184 -816 -79 callsubr
          hintmask 10011111
          -64 callgsubr
          hintmask 01101111
          -31 callsubr
          endchar
        </CharString>
        <CharString name="a">
          6 callgsubr
          hstemhm
          32 105 178 100 hintmask 10111000
          315 -65 callgsubr
          -48 vlineto
          hintmask 11011000
          -105 callgsubr
          hintmask 10111000
          -72 callsubr
          hintmask 11011000
          -84 callsubr
          endchar
        </CharString>
        <CharString name="a.end">
          86 -39 callsubr
          -5 42 callgsubr
          hintmask 10111000
          315 -65 callgsubr
          -48 vlineto
          hintmask 11011000
          -90 callgsubr
          hintmask 10111000
          46 callgsubr
          hintmask 11011000
          -49 callgsubr
          endchar
        </CharString>
        <CharString name="a_x">
          444 -39 callsubr
          -55 110 -60 -20 hstemhm
          32 105 178 -48 callsubr
          hintmask 10011110
          315 -65 callgsubr
          -48 vlineto
          hintmask 11001110
          41 -19 -41 12 -35 hhcurveto
          -134 -54 -160 -125 -162 90 -64 80 64 47 42 52 20 hvcurveto
          -54 9 28 -40 71 hhcurveto
          53 83 23 106 60 hvcurveto
          -91 42 39 -38 62 -106 callsubr
          hintmask 10101110
          -106 callgsubr
          hintmask 10011101
          21 callsubr
          127 -321 63 callgsubr
          -67 -39 -56 -29 -48 hhcurveto
          -44 -17 25 65 hvcurveto
          46 callgsubr
          hintmask 11001110
          -49 callgsubr
          endchar
        </CharString>
        <CharString name="a_x.end">
          445 -39 callsubr
          -55 110 -60 -20 hstemhm
          32 105 178 -48 callsubr
          hintmask 10011110
          315 -65 callgsubr
          -48 vlineto
          hintmask 11001110
          41 -19 -41 12 -35 hhcurveto
          -134 -54 -160 -125 -162 90 -64 80 64 47 42 52 20 hvcurveto
          -54 9 28 -40 71 hhcurveto
          53 83 23 106 60 hvcurveto
          -91 42 40 -38 59 -44 callgsubr
          -36 -19 49 callsubr
          hintmask 10101110
          -106 callgsubr
          hintmask 10011101
          21 callsubr
          132 -334 rlineto
          -67 -39 -56 -29 -48 hhcurveto
          -44 -17 25 65 hvcurveto
          46 callgsubr
          hintmask 11001110
          -49 callgsubr
          endchar
        </CharString>
        <CharString name="a_z">
          454 -37 callsubr
          136 -55 55 -5 42 callgsubr
          99 -36 callsubr
          hintmask 1000011111000000
          315 -65 callgsubr
          -48 vlineto
          hintmask 1001001111000000
          -90 callgsubr
          hintmask 1000011111000000
          -26 callgsubr
          406 -78 callsubr
          hvcurveto
          hintmask 0011001111000000
          -88 callsubr
          vhcurveto
          -61 callsubr
          -104 callsubr
          hintmask 0101001111000000
          -98 callgsubr
          hintmask 1000101111000000
          -598 -15 2 callgsubr
        </CharString>
        <CharString name="aacute">
          6 callgsubr
          270 -96 callsubr
          -23 491 -101 callgsubr
          endchar
        </CharString>
        <CharString name="aacute.end">
          86 -39 callsubr
          -5 -20 270 42 callgsubr
          hintmask 10111100
          315 -65 callgsubr
          -48 vlineto
          hintmask 11011100
          -90 callgsubr
          hintmask 10111100
          46 callgsubr
          hintmask 11011100
          -49 callgsubr
          -12 491 -101 callgsubr
          endchar
        </CharString>
        <CharString name="acircumflex">
          6 callgsubr
          248 -96 callsubr
          153 491 -99 callgsubr
        </CharString>
        <CharString name="acute">
          -126 582 -21 189 -20 hstem
          -8 561 -101 callgsubr
          endchar
        </CharString>
        <CharString name="adieresis">
          6 callgsubr
          112 107 hstemhm
          32 105 -11 107 52 107 -77 100 hintmask 10111001
          315 -65 callgsubr
          -48 vlineto
          hintmask 11011001
          -105 callgsubr
          hintmask 10111001
          -72 callsubr
          hintmask 11010101
          -84 callsubr
          -102 575 rmoveto
          -105 callsubr
          hintmask 11011010
          159 hmoveto
          -105 callsubr
          endchar
        </CharString>
        <CharString name="ae">
          204 -6 76 170 50 167 48 hstem
          46 105 154 88 151 64 vstem
          71 427 rmoveto
          34 -29 rlineto
          33 22 27 26 60 hhcurveto
          62 29 -53 -59 -17 -2 -26 -4 -16 hvcurveto
          2 -14 -19 2 -29 hhcurveto
          -110 -81 47 callgsubr
          35 55 27 callgsubr
          -76 -29 44 98 -9 hvcurveto
          135 11 77 56 92 vvcurveto
          106 -67 28 -66 -47 -40 -22 -24 -27 vhcurveto
          32 -49 -46 14 -43 hhcurveto
          -71 -43 -28 -50 -38 hvcurveto
          423 29 rmoveto
          32 18 -21 -50 -74 -57 -50 -94 -10 hvcurveto
          103 27 102 74 vhcurveto
          -191 -218 rmoveto
          -52 -1 -3 -116 -75 hhcurveto
          -42 -31 31 52 61 43 26 69 13 13 0 -2 14 hvcurveto
          endchar
        </CharString>
        <CharString name="agrave">
          6 callgsubr
          270 -96 callsubr
          -22 680 -70 callsubr
        </CharString>
        <CharString name="ampersand">
          230 -18 79 237 77 168 209 -38 38 hstemhm
          36 111 -66 66 -66 91 139 195 -142 67 46 29 hintmask 1110100100000000
          631 413 rmoveto
          -30 -10 -39 -13 -38 -24 -23 5 -30 hhcurveto
          -95 -57 -50 -71 -4 hvcurveto
          7 -1 rlineto
          30 13 29 15 43 hhcurveto
          hintmask 1110010011000000
          22 27 -4 -2 25 hvcurveto
          -128 -4 -37 -103 -131 hhcurveto
          -108 -50 69 96 96 49 76 88 20 hvcurveto
          hintmask 1101001011000000
          -104 26 -8 98 32 vvcurveto
          71 40 69 72 39 41 -21 -51 -38 -22 -26 -19 -8 vhcurveto
          hintmask 1110010011000000
          -92 callgsubr
          hintmask 1110100100000000
          -80 -33 -55 -71 -105 vvcurveto
          -107 57 -119 161 159 89 117 193 4 vhcurveto
          77 6 55 54 48 vvcurveto
          4 0 5 -1 4 vhcurveto
          endchar
        </CharString>
        <CharString name="aogonek">
          72 -193 49 138 76 380 55 -5 42 callgsubr
          -44 62 hintmask 11011100
          315 -65 callgsubr
          -48 vlineto
          hintmask 11101010
          17 callgsubr
          -159 -123 -168 90 -61 81 63 47 43 52 20 hvcurveto
          9 -45 22 -42 50 -6 rrcurveto
          -28 -23 -15 -37 -34 vvcurveto
          -49 31 -46 66 -35 callsubr
          -45 -20 32 37 26 10 28 19 19 hvcurveto
          39 11 44 40 24 130 rrcurveto
          -37 hlineto
          -72 -15 -25 -37 -32 hhcurveto
          hintmask 11011100
          -74 callgsubr
          -72 callsubr
          hintmask 11101100
          -84 callsubr
          endchar
        </CharString>
        <CharString name="aring">
          6 callgsubr
          75 34 91 33 hstemhm
          32 105 45 40 80 36 -23 100 hintmask 1011111010000000
          315 -65 callgsubr
          -48 vlineto
          hintmask 1101111010000000
          -105 callgsubr
          hintmask 1011111010000000
          -72 callsubr
          hintmask 1101111010000000
          -84 callsubr
          37 485 rmoveto
          hintmask 1101111100000000
          -68 callsubr
        </CharString>
        <CharString name="asciicircum">
          8 582 -21 167 -20 hstem
          219 561 -99 callgsubr
        </CharString>
        <CharString name="asciitilde">
          -12 581 26 callgsubr
          hintmask 01000000
          370 671 -27 callsubr
          hintmask 00100000
          -86 callgsubr
          hintmask 10000000
          -66 callsubr
        </CharString>
        <CharString name="asterisk">
          -17 397 -21 376 -20 hstem
          172 52 vstem
          172 752 rmoveto
          -146 vlineto
          -116 67 -24 -40 119 -69 -119 -69 24 -40 116 67 rlineto
          -146 52 146 vlineto
          116 -67 24 40 -120 69 120 69 -24 40 -116 -67 rlineto
          146 vlineto
          endchar
        </CharString>
        <CharString name="at">
          152 -38 71 87 56 -40 40 223 33 82 43 hstemhm
          34 80 68 52 251 48 hintmask 11011111
          238 -38 rmoveto
          124 80 46 63 16 -5 19 -18 8 hvcurveto
          -48 -22 -60 -33 -70 hhcurveto
          -117 -36 65 86 142 105 188 153 87 26 -62 -61 -87 -55 -128 -52 -11 -4 9 11 13 5 15 2 8 hvcurveto
          45 192 -55 6 -4 -15 rlineto
          9 -7 -13 8 -19 hhcurveto
          -72 -63 -136 -88 -60 27 -28 36 28 23 18 23 14 hvcurveto
          hintmask 10111111
          -15 9 16 -10 24 hhcurveto
          97 77 134 130 138 -97 19 -61 -186 -155 -175 -218 -154 110 -48 94 hvcurveto
          64 235 rmoveto
          -14 -9 -11 -11 -18 hhcurveto
          -24 -6 33 19 51 40 124 53 9 7 -7 -8 5 hvcurveto
          -43 -168 rlineto
          -2 -6 -1 -7 -6 vvcurveto
          endchar
        </CharString>
        <CharString name="atilde">
          6 callgsubr
          95 70 -37 37 -37 66 6 callsubr
          hintmask 10110011
          315 -65 callgsubr
          -48 vlineto
          hintmask 11010011
          -105 callgsubr
          hintmask 10110011
          -72 callsubr
          hintmask 11001011
          -84 callsubr
          178 595 -27 callsubr
          hintmask 11000111
          -86 callgsubr
          hintmask 11010011
          -66 callsubr
        </CharString>
        <CharString name="b">
          5 -6 69 387 52 198 -20 hstem
          46 101 173 89 vstem
          46 179 rmoveto
          -139 61 -5 callgsubr
          173 -96 43 -71 -43 -30 -16 -23 -22 vhcurveto
          237 vlineto
          -100 -14 rlineto
          273 -423 rmoveto
          -104 -38 -96 -76 -41 -18 29 61 vhcurveto
          263 vlineto
          20 18 23 14 27 hhcurveto
          67 38 -84 -103 hvcurveto
          endchar
        </CharString>
        <CharString name="b_s">
          346 67 callsubr
          234 52 198 -20 hstemhm
          47 100 3 callsubr
          hintmask 1111110110000000
          807 179 rmoveto
          -18 -15 -22 -17 -22 -15 rrcurveto
          1 6 0 6 7 vvcurveto
          -42 callgsubr
          vhcurveto
          -101 -20 -39 -89 -54 -67 -65 -8 rlinecurve
          -49 callsubr
          -507 vlineto
          -139 60 -5 callgsubr
          vhcurveto
          18 vlineto
          66 20 66 55 33 80 rrcurveto
          47 -202 19 -50 -56 vvcurveto
          -61 -22 -21 -48 -54 -15 -42 callsubr
          7 -4 9 hhcurveto
          17 16 13 26 32 -23 16 -23 -26 -34 -19 -59 -58 32 -86 116 42 63 12 58 32 hvcurveto
          38 27 45 34 39 54 rrcurveto
          hintmask 1111101110000000
          -529 84 -64 callsubr
          hintmask 1111110110000000
          -14 callsubr
          hintmask 1111101110000000
          33 callsubr
        </CharString>
        <CharString name="b_s.end">
          358 67 callsubr
          234 52 198 -20 hstemhm
          46 101 3 callsubr
          hintmask 1111110110000000
          -78 callgsubr
          hintmask 1111101110000000
          273 -423 -64 callsubr
          hintmask 1111110110000000
          -14 callsubr
          hintmask 1111101110000000
          33 callsubr
        </CharString>
        <CharString name="b_s_x">
          698 67 callsubr
          239 47 -47 105 -60 -20 220 -20 hstemhm
          47 100 3 callsubr
          218 -53 callsubr
          hintmask 1100111101110000
          -9 callgsubr
          -39 -89 -54 -67 -65 -8 rlinecurve
          hintmask 1110011101110000
          -49 callsubr
          -507 vlineto
          -139 60 -5 callgsubr
          vhcurveto
          18 vlineto
          66 20 66 55 33 80 rrcurveto
          47 -202 19 -50 -56 vvcurveto
          -61 -22 -21 -48 -54 -15 -42 callsubr
          7 -4 9 hhcurveto
          17 16 13 26 32 -23 16 -23 -26 -34 -19 -59 -58 32 -86 116 35 49 8 36 34 hvcurveto
          39 17 85 42 49 50 rrcurveto
          -108 46 40 -45 67 -106 callsubr
          hintmask 1101011101110000
          -106 callgsubr
          hintmask 1100111011101000
          -100 callsubr
          -535 -237 -64 callsubr
          hintmask 1110011101110000
          -14 callsubr
          hintmask 1110011011110000
          33 callsubr
        </CharString>
        <CharString name="b_s_z">
          701 -6 75 -75 150 -123 -21 129 87 153 8 callsubr
          2 -20 218 -20 hstemhm
          46 101 3 callsubr
          15 -36 callsubr
          hintmask 1001001111011110
          -78 callgsubr
          1021 -601 rmoveto
          -12 -2 -15 -9 -24 hhcurveto
          -27 -85 5 1 -17 hvcurveto
          hintmask 1001100111011110
          2 callsubr
          hintmask 0011010111011110
          -104 callsubr
          hintmask 0100100110111110
          -98 callgsubr
          -748 178 -64 callsubr
          hintmask 1001100111011110
          -14 callsubr
          hintmask 1001100110111110
          33 callsubr
        </CharString>
        <CharString name="backslash">
          91 41 callsubr
          439 -250 rmoveto
          50 hlineto
          -425 1000 rlineto
          -50 hlineto
          endchar
        </CharString>
        <CharString name="bar">
          55 callgsubr
          124 751 rmoveto
          -53 -1001 53 hlineto
          endchar
        </CharString>
        <CharString name="braceleft">
          53 callsubr
          64 57 -57 167 -113 57 cntrmask 11100000
          hintmask 11101000
          231 -189 rmoveto
          -1 -11 -10 -3 -9 hhcurveto
          hintmask 11110000
          -62 -18 43 56 hvcurveto
          hintmask 11100100
          95 54 101 82 vvcurveto
          25 -5 24 -15 21 vhcurveto
          15 21 5 24 25 vvcurveto
          hintmask 11110000
          82 -54 101 95 vvcurveto
          56 18 43 62 vhcurveto
          hintmask 11101000
          9 10 -3 -1 11 hvcurveto
          47 vlineto
          4 -14 -16 2 -14 hhcurveto
          -94 -29 -82 -63 hvcurveto
          hintmask 11100100
          -86 54 -97 -76 vvcurveto
          -32 -10 -35 -42 -7 -12 1 2 -12 vhcurveto
          -56 vlineto
          2 12 12 1 7 hhcurveto
          42 10 -35 -32 hvcurveto
          hintmask 11101000
          -76 -54 -97 -86 vvcurveto
          -63 29 -82 94 14 16 2 4 14 vhcurveto
          endchar
        </CharString>
        <CharString name="braceright">
          53 callsubr
          26 167 -111 57 -3 57 cntrmask 11100000
          hintmask 11110000
          27 -236 rmoveto
          -4 14 15 -2 14 hhcurveto
          94 29 82 63 hvcurveto
          hintmask 11101000
          86 -54 97 76 vvcurveto
          32 10 35 42 7 12 -1 -2 12 vhcurveto
          56 vlineto
          -2 -12 -12 -1 -7 hhcurveto
          -42 -10 35 32 hvcurveto
          hintmask 11110000
          76 54 97 86 vvcurveto
          63 -29 82 -94 -14 -16 -2 -4 -14 vhcurveto
          -47 vlineto
          1 11 10 3 9 hhcurveto
          hintmask 11100100
          62 18 -43 -56 hvcurveto
          hintmask 11101000
          -95 -54 -101 -82 vvcurveto
          -25 5 -24 15 -21 vhcurveto
          -15 -21 -5 -24 -25 vvcurveto
          hintmask 11100100
          -82 54 -101 -95 vvcurveto
          -56 -18 -43 -62 -9 -9 3 1 -11 vhcurveto
          endchar
        </CharString>
        <CharString name="bracketleft">
          -128 -250 62 876 62 hstemhm
          71 73 -73 193 hintmask 11100000
          265 -188 rmoveto
          -121 876 hlineto
          hintmask 11010000
          120 62 -193 -1000 194 hlineto
          endchar
        </CharString>
        <CharString name="bracketright">
          -128 -250 62 876 62 hstemhm
          21 193 -73 73 hintmask 11100000
          20 -250 rmoveto
          194 1000 -193 -62 hlineto
          hintmask 11010000
          120 -876 -121 hlineto
          endchar
        </CharString>
        <CharString name="breve">
          18 560 37 -37 143 hstemhm
          -72 69 209 66 hintmask 01110000
          206 703 rmoveto
          hintmask 10110000
          -71 -1 -52 -35 -52 hhcurveto
          hintmask 01110000
          -6 callsubr
          endchar
        </CharString>
        <CharString name="brokenbar">
          55 callgsubr
          71 222 rmoveto
          -472 53 472 vlineto
          79 vmoveto
          450 -53 -450 vlineto
          endchar
        </CharString>
        <CharString name="bullet">
          -21 callgsubr
        </CharString>
        <CharString name="c">
          40 callgsubr
          7 callgsubr
          hintmask 11011000
          273 347 rmoveto
          -39 callgsubr
          26 33 78 -45 42 -84 -151 -34 -167 -111 -173 99 -60 92 98 89 87 98 32 hvcurveto
          -34 hlineto
          -74 -34 -48 -35 -70 hhcurveto
          -65 -53 30 140 hvcurveto
          hintmask 10111000
          95 22 117 72 35 20 -22 -31 -19 -6 -24 -11 -9 vhcurveto
          endchar
        </CharString>
        <CharString name="c.end">
          -33 -6 -12 callsubr
          7 callgsubr
          hintmask 11011000
          273 347 rmoveto
          21 callgsubr
          -105 -183 99 -56 96 68 65 28 95 hvcurveto
          54 callgsubr
          hintmask 10111000
          27 callsubr
        </CharString>
        <CharString name="c_x">
          338 -6 -12 callsubr
          -53 108 -60 -20 hstemhm
          36 106 149 59 254 -53 callsubr
          hintmask 1000111100000000
          381 -65 callgsubr
          126 -319 rlineto
          -76 -55 -84 -35 -96 hhcurveto
          -77 -53 23 149 hvcurveto
          hintmask 1010011100000000
          93 21 117 74 32 22 -21 -34 -17 -6 -24 -11 -9 vhcurveto
          hintmask 1100011100000000
          21 callgsubr
          -106 -178 92 -60 110 110 104 61 86 72 hvcurveto
          -103 45 39 -19 callsubr
          hintmask 1001011100000000
          -106 callgsubr
          hintmask 1000111010000000
          -100 callsubr
          endchar
        </CharString>
        <CharString name="c_z">
          318 0 68 callgsubr
          -129 -21 332 174 -131 131 -48 48 5 -20 7 callgsubr
          40 102 176 99 hintmask 1001000111100000
          685 85 rmoveto
          -12 -2 -15 -9 -24 hhcurveto
          -27 -85 5 1 -17 hvcurveto
          -63 callsubr
          -237 -62 callsubr
          hvcurveto
          hintmask 1000100111100000
          -88 callsubr
          vhcurveto
          -61 callsubr
          -61 callgsubr
          75 hlineto
          -216 -446 rlineto
          262 hlineto
          70 44 46 39 hvcurveto
          hintmask 0101000111100000
          -98 callgsubr
          -412 262 rmoveto
          -39 callgsubr
          24 38 hvcurveto
          hintmask 0010001111100000
          72 -45 45 -81 -155 -33 -167 -105 -183 99 -56 96 68 64 33 90 1 vhcurveto
          54 callgsubr
          hintmask 1000010111100000
          27 callsubr
        </CharString>
        <CharString name="cacute">
          40 callgsubr
          245 -91 callsubr
          -66 214 -101 callgsubr
          endchar
        </CharString>
        <CharString name="caron">
          -119 596 -21 167 -20 hstem
          -55 742 -82 callgsubr
        </CharString>
        <CharString name="ccaron">
          40 callgsubr
          237 -91 callsubr
          -174 395 -82 callgsubr
        </CharString>
        <CharString name="ccedilla">
          -49 63 callsubr
          52 -12 callsubr
          7 callgsubr
          -20 57 hintmask 1011011010000000
          386 14 callsubr
          12 66 79 21 67 75 27 83 rlinecurve
          -34 hlineto
          -74 -34 -48 -35 -70 hhcurveto
          -65 -53 30 140 95 22 117 72 hvcurveto
          hintmask 1011101100000000
          35 20 -22 -31 -19 -6 -24 -11 -9 hvcurveto
          -39 callgsubr
          26 33 78 -45 42 -84 -151 -34 -167 -111 -173 99 -60 94 hvcurveto
          -16 -113 61 callgsubr
          hintmask 1011101010000000
          38 callgsubr
          hintmask 0111101010000000
          -41 callgsubr
        </CharString>
        <CharString name="ccircumflex">
          40 callgsubr
          223 -91 callsubr
          74 214 -99 callgsubr
        </CharString>
        <CharString name="cedilla">
          -186 63 callsubr
          87 -20 hstemhm
          195 57 hintmask 10111000
          252 14 callsubr
          13 72 -40 23 -21 -148 61 callgsubr
          38 callgsubr
          hintmask 01111000
          -41 callgsubr
        </CharString>
        <CharString name="cent">
          -40 -6 -21 238 230 277 -20 hstem
          28 95 67 44 51 53 vstem
          341 255 rmoveto
          -26 -27 -35 -18 -43 hhcurveto
          -6 hlineto
          8 347 rlineto
          26 -5 21 -21 -25 vvcurveto
          -18 -5 -21 -11 -8 vhcurveto
          -11 9 11 -8 14 hhcurveto
          24 11 24 29 64 -41 35 -58 7 hvcurveto
          3 118 rlineto
          -58 hlineto
          2 -118 rlineto
          -124 -18 -34 -137 -93 vvcurveto
          -149 85 -55 82 -5 vhcurveto
          3 -170 rlineto
          27 hlineto
          4 171 rlineto
          53 7 59 28 76 vvcurveto
          -218 109 rmoveto
          68 19 83 45 31 vhcurveto
          6 -330 rlineto
          -55 16 -15 51 81 vvcurveto
          endchar
        </CharString>
        <CharString name="circumflex">
          -120 582 -21 167 -20 hstem
          169 561 -99 callgsubr
        </CharString>
        <CharString name="circunflex">
          -120 582 -21 167 -20 hstem
          169 561 -99 callgsubr
        </CharString>
        <CharString name="colon">
          -162 79 133 108 133 hstem
          59 133 vstem
          59 386 rmoveto
          -103 callsubr
          -241 vmoveto
          -103 callsubr
          endchar
        </CharString>
        <CharString name="comma">
          -197 -105 44 callsubr
          39 -4 callsubr
          hintmask 11100000
          39 69 rmoveto
          hintmask 11001000
          -84 52 53 -60 vvcurveto
          hintmask 11010000
          -89 callgsubr
          hintmask 11100000
          30 callsubr
          endchar
        </CharString>
        <CharString name="copyright">
          141 76 21 85 42 216 44 81 22 hstem
          35 26 75 44 316 23 vstem
          136 336 rmoveto
          -83 59 -71 81 49 52 26 42 28 vhcurveto
          -34 23 rlineto
          -34 -22 -37 -15 -30 hhcurveto
          -66 -36 57 56 51 36 52 67 40 39 -22 -43 9 hvcurveto
          37 14 rlineto
          65 -20 -51 30 -52 hhcurveto
          -73 -76 -58 -90 hvcurveto
          141 -260 -58 callsubr
          endchar
        </CharString>
        <CharString name="currency">
          44 185 -21 26 40 232 40 27 -20 hstem
          73 41 232 40 vstem
          45 492 rmoveto
          57 -57 rlineto
          -18 -25 -11 -31 -34 vvcurveto
          -33 11 -31 18 -25 vhcurveto
          -56 -56 36 -36 56 56 rlineto
          -19 26 32 -11 34 hhcurveto
          34 31 11 18 25 hvcurveto
          55 -55 36 36 -55 55 rlineto
          19 26 11 31 34 vvcurveto
          34 -11 32 -19 26 vhcurveto
          55 55 -36 36 -56 -56 rlineto
          18 -25 -31 11 -33 hhcurveto
          -34 -31 -11 -19 -26 hvcurveto
          -56 56 rlineto
          147 -66 rmoveto
          64 52 -52 -64 -64 -52 -52 -64 -64 -52 52 64 64 52 52 64 hvcurveto
          endchar
        </CharString>
        <CharString name="d">
          72 -39 callsubr
          195 -20 hstem
          -10 callgsubr
          vstem
          315 686 rmoveto
          -234 vlineto
          -105 callgsubr
          540 -17 callsubr
        </CharString>
        <CharString name="d.end">
          84 -39 callsubr
          195 -20 hstem
          -10 callgsubr
          vstem
          315 686 rmoveto
          -234 vlineto
          -90 callgsubr
          540 vlineto
          -192 -630 2 callgsubr
        </CharString>
        <CharString name="dagger">
          -3 -229 -21 586 92 322 -20 hstem
          167 73 vstem
          240 59 callgsubr
          -586 73 586 150 92 -150 hlineto
          endchar
        </CharString>
        <CharString name="daggerdbl">
          14 -229 -21 351 92 143 92 322 -20 hstem
          175 73 vstem
          248 59 callgsubr
          -143 -146 -92 146 -351 73 351 150 92 -150 143 150 92 -150 hlineto
          endchar
        </CharString>
        <CharString name="dcroat">
          72 -39 callsubr
          70 35 90 -20 hstem
          -10 callgsubr
          vstem
          315 686 rmoveto
          -76 -34 -35 34 -123 vlineto
          -105 callgsubr
          415 77 35 -77 90 -17 callsubr
        </CharString>
        <CharString name="degree">
          -96 374 39 257 32 hstem
          42 56 126 51 vstem
          161 702 rmoveto
          -76 -43 -69 -94 -114 48 -51 67 87 31 90 78 79 -25 81 -89 hvcurveto
          -63 -167 rmoveto
          75 25 60 42 29 30 -28 -100 -71 -20 -58 -40 -59 -7 86 36 vhcurveto
          endchar
        </CharString>
        <CharString name="dieresis">
          -21 592 107 hstem
          -65 107 52 107 vstem
          -65 645 rmoveto
          -105 callsubr
          159 hmoveto
          -105 callsubr
          endchar
        </CharString>
        <CharString name="divide">
          5 0 133 82 70 80 133 hstem
          143 133 vstem
          143 431 rmoveto
          -103 callsubr
          1 -365 rmoveto
          -103 callsubr
          240 219 48 callgsubr
        </CharString>
        <CharString name="dollar">
          -34 -6 -21 134 199 412 -20 hstemhm
          28 66 -45 73 54 30 58 83 -67 53 hintmask 11110110
          184 -27 rmoveto
          14 134 hlineto
          85 3 64 44 79 vvcurveto
          97 -77 44 -64 37 vhcurveto
          171 vlineto
          hintmask 11101101
          50 -5 24 -29 -34 vvcurveto
          -14 -5 -19 -10 -12 vhcurveto
          -15 17 14 -3 7 hhcurveto
          22 8 33 24 70 -64 28 -59 5 hvcurveto
          107 -41 -107 vlineto
          -66 -6 -54 -43 -63 vvcurveto
          -78 68 -34 59 -40 vhcurveto
          -206 vlineto
          hintmask 11110110
          -38 3 -44 30 57 vvcurveto
          22 7 27 23 3 vhcurveto
          16 -16 -16 7 -15 hhcurveto
          -27 -22 -25 -44 -83 66 -44 87 -3 hvcurveto
          83 115 rmoveto
          -45 -26 -30 -37 -5 vhcurveto
          185 vlineto
          37 -26 26 -32 -47 vvcurveto
          hintmask 11101110
          -142 290 rmoveto
          26 13 32 36 10 vhcurveto
          -148 vlineto
          -27 21 -22 24 35 vvcurveto
          endchar
        </CharString>
        <CharString name="dotlessi">
          23 callgsubr
          hstem
          47 100 vstem
          47 -65 callgsubr
          -361 vlineto
          -65 23 -80 92 44 65 18 167 30 vhcurveto
          -102 callsubr
          -26 callgsubr
          endchar
        </CharString>
        <CharString name="dotlessi.end">
          -182 -6 76 430 22 callsubr
          hintmask 11010000
          47 500 rmoveto
          -365 -81 callsubr
          hintmask 11100000
          -29 callsubr
          -26 callgsubr
          endchar
        </CharString>
        <CharString name="e">
          -45 -1 callsubr
          hstem
          35 106 154 64 vstem
          -99 callsubr
          endchar
        </CharString>
        <CharString name="e.end">
          -23 -1 callsubr
          -68 callgsubr
          endchar
        </CharString>
        <CharString name="e_x">
          313 -1 callsubr
          -49 104 -60 12 callsubr
          hintmask 10011110
          381 -13 callsubr
          rlineto
          -78 -64 -96 -7 callsubr
          hintmask 11001110
          -15 callgsubr
          110 120 61 89 62 vhcurveto
          -106 46 40 -19 callsubr
          hintmask 10101110
          -106 callgsubr
          hintmask 10011101
          -100 callsubr
          hintmask 11001110
          -249 -25 callgsubr
          endchar
        </CharString>
        <CharString name="e_x.end">
          339 -1 callsubr
          -49 104 -60 12 callsubr
          hintmask 10011110
          380 -65 callgsubr
          127 -322 rlineto
          -77 -64 -95 -7 callsubr
          hintmask 11001110
          -15 callgsubr
          109 120 61 88 62 vhcurveto
          -105 46 41 -44 63 -44 callgsubr
          -37 -18 48 61 -24 hvcurveto
          -14 34 rlineto
          76 101 43 71 76 vvcurveto
          hintmask 10101110
          -106 callgsubr
          hintmask 10011101
          1 -5 0 -6 -6 vvcurveto
          -59 -51 -75 -39 -53 vhcurveto
          -97 245 rlineto
          hintmask 11001110
          -248 -25 callgsubr
          endchar
        </CharString>
        <CharString name="e_z">
          341 -37 callsubr
          136 -49 49 -5 -20 hstemhm
          45 callgsubr
          42 -36 callsubr
          hintmask 1001001111000000
          359 375 rmoveto
          106 -67 24 -66 -144 -47 -168 -112 -169 101 -62 90 74 67 40 60 7 -1 9 -1 9 vhcurveto
          -36 -25 -40 -13 -43 -72 callgsubr
          349 -290 rmoveto
          -12 -2 -15 -9 -24 hhcurveto
          -27 -85 5 1 -17 hvcurveto
          hintmask 1000011111000000
          -48 callgsubr
          hvcurveto
          hintmask 0011001111000000
          -88 callsubr
          vhcurveto
          -61 callsubr
          -104 callsubr
          hintmask 0100101111000000
          -98 callgsubr
          -567 154 rmoveto
          98 34 119 70 32 18 -21 -50 -75 -60 -56 -94 -15 vhcurveto
          endchar
        </CharString>
        <CharString name="eacute">
          -45 -1 callsubr
          245 -20 hstem
          35 106 154 64 vstem
          -99 callsubr
          60 322 -101 callgsubr
          endchar
        </CharString>
        <CharString name="eacute.end">
          -23 -1 callsubr
          245 -20 -68 callgsubr
          67 322 -101 callgsubr
          endchar
        </CharString>
        <CharString name="eacute_x">
          338 -1 callsubr
          -49 104 -60 -20 270 12 callsubr
          hintmask 1001111100000000
          381 -13 callsubr
          rlineto
          -78 -64 -96 -7 callsubr
          hintmask 1100111100000000
          -15 callgsubr
          110 120 61 89 62 vhcurveto
          -106 46 40 -19 callsubr
          hintmask 1010111100000000
          -106 callgsubr
          hintmask 1001111010000000
          -100 callsubr
          hintmask 1100111100000000
          -249 -25 callgsubr
          -50 105 -101 callgsubr
          endchar
        </CharString>
        <CharString name="ecircumflex">
          -45 -1 callsubr
          223 -20 hstem
          35 106 154 64 vstem
          -99 callsubr
          220 322 -99 callgsubr
        </CharString>
        <CharString name="edieresis">
          -45 -1 callsubr
          87 107 hstemhm
          35 106 -52 107 52 111 -64 64 hintmask 11110010
          -99 callsubr
          hintmask 11101100
          -52 406 rmoveto
          -105 callsubr
          159 hmoveto
          -105 callsubr
          endchar
        </CharString>
        <CharString name="egrave">
          -45 -1 callsubr
          245 -20 hstem
          35 106 154 64 vstem
          -99 callsubr
          36 511 -70 callsubr
        </CharString>
        <CharString name="eight">
          116 -6 72 638 46 hstemhm
          38 103 -66 96 186 94 -74 115 hintmask 11100100
          262 66 rmoveto
          -78 -43 82 65 70 49 71 67 23 hvcurveto
          80 -41 40 -54 -71 vvcurveto
          -72 -42 -73 -73 vhcurveto
          -1 -72 rmoveto
          146 85 104 122 84 -40 79 -103 34 hvcurveto
          hintmask 11011000
          70 40 32 70 60 vvcurveto
          90 -72 73 -116 -123 -65 -82 -85 -62 34 -63 73 -41 vhcurveto
          hintmask 11101000
          -91 -31 -53 -70 -101 vvcurveto
          -129 86 -92 137 vhcurveto
          1 456 rmoveto
          hintmask 11011000
          -64 36 -27 56 52 vvcurveto
          60 37 50 59 58 32 -47 -51 -54 -35 -66 -60 -36 vhcurveto
          endchar
        </CharString>
        <CharString name="ellipsis">
          278 -5 133 hstem
          38 133 104 133 112 133 vstem
          38 61 rmoveto
          -103 callsubr
          237 hmoveto
          -103 callsubr
          245 hmoveto
          -103 callsubr
          endchar
        </CharString>
        <CharString name="emdash">
          56 231 70 hstem
          410 301 rmoveto
          -351 -70 351 hlineto
          endchar
        </CharString>
        <CharString name="endash">
          -34 231 70 hstem
          320 301 rmoveto
          -261 -70 261 hlineto
          endchar
        </CharString>
        <CharString name="eogonek">
          -44 -193 49 138 76 386 49 hstem
          36 106 71 61 22 64 vstem
          360 382 rmoveto
          94 -67 29 -63 -150 -44 -168 -116 -164 89 -63 91 16 14 2 3 14 vhcurveto
          -31 -32 -16 -38 -28 vvcurveto
          -42 34 -52 64 51 27 32 21 18 vhcurveto
          -4 31 rlineto
          -23 -17 -19 -12 -27 hhcurveto
          -45 -21 31 50 22 4 30 39 29 hvcurveto
          29 22 70 35 32 104 rrcurveto
          -20 callsubr
          -64 hhcurveto
          -56 -48 24 106 -10 52 callsubr
          -218 -143 rmoveto
          99 34 118 71 31 18 -23 -44 -80 -58 -54 -96 -16 vhcurveto
          endchar
        </CharString>
        <CharString name="equal">
          53 133 80 103 80 hstem
          403 396 rmoveto
          -340 -80 340 hlineto
          -103 vmoveto
          -340 -80 340 hlineto
          endchar
        </CharString>
        <CharString name="eth">
          72 -39 callsubr
          195 -20 hstem
          -10 callgsubr
          vstem
          232 595 rmoveto
          6 -30 70 19 rlineto
          5 -22 2 -25 -30 vvcurveto
          -55 vlineto
          -105 callgsubr
          317 vlineto
          58 -9 39 -18 32 vhcurveto
          58 16 -6 30 -72 -20 -22 24 -31 20 -42 24 rlinecurve
          -35 hlineto
          30 -31 19 -26 12 -30 rrcurveto
          16 -434 rmoveto
          -61 -46 -48 -41 -58 -33 46 114 93 33 127 60 callsubr
          endchar
        </CharString>
        <CharString name="exclam">
          -174 -5 133 572 -20 hstemhm
          54 133 -110 82 hintmask 11010000
          144 231 rmoveto
          31 469 rlineto
          -112 hlineto
          28 -469 rlineto
          hintmask 11100000
          -37 -170 rmoveto
          -103 callsubr
          endchar
        </CharString>
        <CharString name="exclamdown">
          -187 -227 -21 572 133 hstemhm
          45 133 -106 83 hintmask 11010000
          88 221 rmoveto
          -31 -469 rlineto
          112 hlineto
          -28 469 rlineto
          hintmask 11100000
          37 170 20 callsubr
        </CharString>
        <CharString name="f">
          -174 29 callgsubr
          -19 callgsubr
          vstem
          146 548 rmoveto
          -70 callgsubr
          81 35 -81 vlineto
          -145 -55 callsubr
        </CharString>
        <CharString name="f_f_t">
          308 -54 callsubr
          186 63 1 -20 hstemhm
          -19 callgsubr
          145 100 141 100 hintmask 1110111110000000
          197 750 rmoveto
          -79 callgsubr
          141 -57 callgsubr
          200 vlineto
          hintmask 1111011110000000
          7 callsubr
          -67 -36 -29 -39 -19 hvcurveto
          hintmask 1110111110000000
          50 -22 -42 19 -50 hhcurveto
          -51 -729 -43 callgsubr
          100 526 rmoveto
          hintmask 1111011110000000
          -46 callsubr
          -181 -141 vlineto
          -245 48 rmoveto
          81 9 57 67 44 24 -26 -81 1 vhcurveto
          -79 -67 callgsubr
        </CharString>
        <CharString name="f_i_x">
          415 -71 callsubr
          385 45 -45 105 4 16 callgsubr
          295 122 -45 45 hintmask 1110101111000000
          458 -34 callgsubr
          340 -100 -361 24 callsubr
          73 30 100 67 -93 callgsubr
          hintmask 1101101111000000
          -106 callgsubr
          hintmask 1110011110100000
          -100 callsubr
          -345 -35 -54 callgsubr
          hintmask 1110101111000000
          -82 callsubr
          -100 -547 -41 callsubr
        </CharString>
        <CharString name="f_i_z">
          407 -250 52 198 64 -64 43 callgsubr
          8 callsubr
          -35 3 callgsubr
          -100 183 -2 -36 callsubr
          hintmask 1100001011110110
          227 465 -54 callgsubr
          hintmask 1100001101110110
          -82 callsubr
          628 -380 rmoveto
          -12 -2 -15 -9 -24 hhcurveto
          -27 -85 5 1 -17 hvcurveto
          -48 callgsubr
          hvcurveto
          hintmask 1100100101110110
          -88 callsubr
          vhcurveto
          -61 callsubr
          hintmask 1100010101110110
          -104 callsubr
          hintmask 1010100101110110
          -98 callgsubr
          -488 415 rmoveto
          -365 vlineto
          hintmask 1001100101101010
          -3 callgsubr
          39 45 18 46 vhcurveto
          hintmask 1100100101111010
          7 -1 5 -1 6 vhcurveto
          -53 callgsubr
          -2 callsubr
        </CharString>
        <CharString name="f_l_x">
          416 -54 callsubr
          -35 95 126 63 hstemhm
          -19 callgsubr
          141 -48 callsubr
          hintmask 1110111110000000
          459 -65 callgsubr
          132 -336 rlineto
          -65 -48 -54 -29 -43 hhcurveto
          -55 -4 46 44 -83 callsubr
          48 vlineto
          -46 callsubr
          -542 24 callsubr
          73 30 100 67 -93 callgsubr
          hintmask 1101111110000000
          -106 callgsubr
          hintmask 1110111101000000
          -100 callsubr
          -571 -698 -63 callgsubr
        </CharString>
        <CharString name="f_l_z">
          404 -250 52 192 -28 callgsubr
          8 callsubr
          -35 35 186 63 hstemhm
          -19 callgsubr
          141 67 callgsubr
          -6 -36 callsubr
          hintmask 1100100111101100
          13 callsubr
          hintmask 1100100111010100
          -75 callgsubr
          hvcurveto
          -53 callgsubr
          hintmask 1100001111101100
          -44 0 59 31 -83 callsubr
          vlineto
          625 -78 callsubr
          hvcurveto
          hintmask 1100100111101100
          -88 callsubr
          vhcurveto
          -61 callsubr
          hintmask 1001010111101100
          -104 callsubr
          hintmask 1010100111101100
          -98 callgsubr
          -769 -283 -63 callgsubr
        </CharString>
        <CharString name="f_t">
          63 -54 callsubr
          186 63 hstem
          -19 callgsubr
          141 100 vstem
          188 749 rmoveto
          -130 -12 -109 -79 hvcurveto
          -575 vlineto
          -62 -28 -68 -46 -59 vvcurveto
          -71 60 -32 71 66 33 27 143 vhcurveto
          545 141 -57 callgsubr
          200 42 callsubr
          -42 -201 rmoveto
          -46 callsubr
          -181 -141 vlineto
          -144 -698 -63 callgsubr
        </CharString>
        <CharString name="f_u">
          262 -54 callsubr
          186 64 hstem
          -19 callgsubr
          121 100 138 100 vstem
          505 -65 callgsubr
          -91 callgsubr
          -221 48 vlineto
          -70 callgsubr
          121 -316 vlineto
          -55 callgsubr
          45 45 29 65 25 vhcurveto
          -49 10 26 -45 61 hhcurveto
          -86 callsubr
          hvcurveto
          -102 callsubr
          -26 callgsubr
          -604 -55 callsubr
        </CharString>
        <CharString name="f_u.end">
          276 -54 callsubr
          186 64 hstem
          -19 callgsubr
          121 100 138 100 vstem
          505 -65 callgsubr
          -91 callgsubr
          -221 48 vlineto
          -70 callgsubr
          121 -316 vlineto
          -55 callgsubr
          45 45 29 65 25 vhcurveto
          -68 12 37 -26 41 hhcurveto
          39 36 24 40 -29 callgsubr
          -15 -3 -10 hhcurveto
          -47 -1 59 31 hvcurveto
          -26 callgsubr
          -604 -55 callsubr
        </CharString>
        <CharString name="f_x">
          218 -250 52 150 96 -54 76 395 35 -35 95 126 64 hstemhm
          -19 callgsubr
          94 4 callsubr
          hintmask 1101011101100000
          146 548 rmoveto
          -60 callgsubr
          -78 -86 -61 -59 -115 vhcurveto
          -589 vlineto
          -64 -27 -66 -45 -74 vvcurveto
          -53 33 -38 73 70 54 35 135 vhcurveto
          545 124 vlineto
          103 -248 rlineto
          -65 -38 -68 -73 -76 vvcurveto
          -56 36 -22 35 36 -23 callsubr
          hintmask 1010111110100000
          -1 4 0 3 4 vvcurveto
          43 49 45 45 30 vhcurveto
          -124 53 38 -57 75 hhcurveto
          42 61 -85 callsubr
          hvcurveto
          -35 hlineto
          -61 -12 -29 -48 -32 hhcurveto
          -34 -22 55 54 -22 hvcurveto
          -20 49 rlineto
          78 73 46 83 77 -73 callgsubr
          hintmask 1101011110010000
          1 -5 0 -6 -6 vvcurveto
          -61 -55 -72 -41 -42 vhcurveto
          -96 233 rlineto
          -224 hlineto
          -145 -55 callsubr
        </CharString>
        <CharString name="ff">
          71 29 callgsubr
          -19 callgsubr
          145 100 vstem
          197 750 rmoveto
          -79 callgsubr
          81 35 -81 48 vlineto
          -60 callgsubr
          -78 -55 -45 -25 -47 -25 vhcurveto
          53 -23 -42 19 -51 hhcurveto
          -51 -729 -43 callgsubr
          -145 526 rmoveto
          81 9 57 67 45 24 -26 -84 vhcurveto
          -76 -67 callgsubr
        </CharString>
        <CharString name="ffi">
          283 -54 callsubr
          64 185 -63 63 -45 45 1 -20 hstemhm
          -19 callgsubr
          145 100 135 100 hintmask 1110010111100000
          391 548 rmoveto
          84 16 72 73 29 32 -11 -37 8 vhcurveto
          -17 -3 -11 -24 -19 vvcurveto
          hintmask 1111000111100000
          -28 26 -18 26 25 26 15 47 64 -48 59 -103 -80 -49 -36 -46 -27 vhcurveto
          hintmask 1110001111100000
          61 -21 -45 22 -54 hhcurveto
          -79 callgsubr
          81 35 -81 vlineto
          -245 -479 rmoveto
          444 145 -410 vlineto
          -46 -9 -51 -11 -48 -14 rrcurveto
          380 479 rmoveto
          -361 vlineto
          -65 23 -80 92 44 65 18 167 30 vhcurveto
          -102 callsubr
          -26 callgsubr
          -335 -478 -69 callsubr
          -145 526 rmoveto
          hintmask 1110100111100000
          81 9 57 67 45 24 -26 -84 vhcurveto
          -76 -67 callgsubr
        </CharString>
        <CharString name="ffl">
          288 -54 callsubr
          186 63 1 -20 hstemhm
          -19 callgsubr
          145 100 141 100 hintmask 1111011110000000
          391 548 rmoveto
          -46 callsubr
          -542 0 callsubr
          28 -71 -36 21 -92 hhcurveto
          -67 -36 -29 -39 -19 hvcurveto
          hintmask 1110111110000000
          50 -22 -42 19 -50 hhcurveto
          -79 callgsubr
          81 35 -81 vlineto
          -245 -479 -43 callgsubr
          -145 526 rmoveto
          hintmask 1111011110000000
          81 9 57 67 45 24 -26 -84 vhcurveto
          -76 -67 callgsubr
        </CharString>
        <CharString name="fi">
          43 -250 52 192 76 395 3 callgsubr
          hintmask 11101111
          227 465 -54 callgsubr
          hintmask 11110111
          -82 callsubr
          140 35 rmoveto
          -361 vlineto
          -65 23 -80 92 44 65 18 167 30 vhcurveto
          -102 callsubr
          -26 callgsubr
          -340 -582 -41 callsubr
        </CharString>
        <CharString name="fi.end">
          57 -250 52 192 76 395 3 callgsubr
          -100 183 hintmask 1110111100000000
          227 465 -54 callgsubr
          hintmask 1111011100000000
          -82 callsubr
          140 35 39 callgsubr
          hintmask 1111011010000000
          -75 callgsubr
          hvcurveto
          -53 callgsubr
          hintmask 1111011100000000
          -2 callsubr
        </CharString>
        <CharString name="five">
          92 -6 64 333 74 151 100 33 -20 hstem
          32 87 239 113 vstem
          420 749 rmoveto
          -25 -52 -37 -8 -53 hhcurveto
          -49 -38 7 9 -62 hvcurveto
          -70 -387 rlineto
          22 30 55 24 59 hhcurveto
          92 63 -58 -105 -79 -36 -91 -90 -58 -55 38 66 41 22 23 45 4 hvcurveto
          35 -16 -29 16 -29 hhcurveto
          -45 -35 -37 -75 -135 114 -40 93 159 73 116 125 119 -66 111 -145 -41 -39 -9 -22 -42 hvcurveto
          41 207 rlineto
          -7 43 63 -18 54 hhcurveto
          69 25 32 45 20 -5 16 -8 20 hvcurveto
          endchar
        </CharString>
        <CharString name="fl">
          43 -54 callsubr
          186 63 hstem
          -19 callgsubr
          141 100 vstem
          34 callsubr
          -542 vlineto
          -65 23 -80 92 44 65 18 167 30 vhcurveto
          -37 hlineto
          -72 -15 -25 -37 -32 hhcurveto
          -43 -2 64 26 -83 callsubr
          vlineto
          -144 -698 -63 callgsubr
        </CharString>
        <CharString name="fl.end">
          56 -54 callsubr
          186 63 hstemhm
          -19 callgsubr
          141 67 callgsubr
          hintmask 11111110
          13 callsubr
          hintmask 11111101
          -75 callgsubr
          hvcurveto
          -53 callgsubr
          hintmask 11111110
          -44 0 59 31 -83 callsubr
          vlineto
          -144 -698 -63 callgsubr
        </CharString>
        <CharString name="florin">
          -142 29 callgsubr
          -76 39 91 100 vstem
          10 465 rmoveto
          44 -479 hlineto
          -63 -27 -67 -45 -67 vvcurveto
          -62 33 -35 72 66 59 29 141 vhcurveto
          545 81 35 -81 48 vlineto
          -57 callsubr
          -76 -44 vlineto
          -1 -55 callsubr
        </CharString>
        <CharString name="four">
          63 21 -21 290 59 401 -20 hstem
          116 82 70 108 vstem
          268 735 rmoveto
          -386 -183 vlineto
          30 84 83 67 116 vvcurveto
          78 -38 53 -63 1 vhcurveto
          11 -25 8 -57 -41 vvcurveto
          -140 -94 -95 -12 -100 vhcurveto
          258 -290 108 290 81 hlineto
          2 59 rlineto
          -83 401 hlineto
          endchar
        </CharString>
        <CharString name="g">
          72 -65 callsubr
          64 vlineto
          89 27 44 25 21 142 rrcurveto
          -37 hlineto
          -14 -112 -35 -24 -68 -22 rrcurveto
          hintmask 11011110
          479 -50 callsubr
        </CharString>
        <CharString name="g.end">
          46 -65 callsubr
          hintmask 11011110
          579 -50 callsubr
        </CharString>
        <CharString name="g_p">
          494 -250 52 192 64 -44 44 392 55 -5 -20 57 -20 hstemhm
          32 105 47 39 92 100 116 101 170 100 hintmask 1100111111100000
          531 537 rmoveto
          -469 vlineto
          -39 -3 -39 -7 -38 -11 rrcurveto
          453 -100 -48 vlineto
          hintmask 1011011111100000
          41 -19 -41 12 -36 hhcurveto
          -132 -55 -152 -122 -156 90 -61 79 51 38 25 35 25 hvcurveto
          -68 vlineto
          -77 -41 -54 -58 -60 vvcurveto
          -52 40 -45 66 67 58 46 125 vhcurveto
          82 vlineto
          36 11 39 6 41 1 rrcurveto
          -271 vlineto
          101 25 rlineto
          236 vlineto
          hintmask 1101011111100000
          54 callsubr
          171 51 callsubr
          hvcurveto
          -8 callgsubr
          -479 -350 rmoveto
          -47 -38 42 102 96 34 120 82 35 19 -23 -20 8 hvcurveto
          -208 vlineto
          -57 -40 -52 -53 vhcurveto
          49 -288 19 callsubr
        </CharString>
        <CharString name="g_x">
          443 -71 callsubr
          -56 76 360 55 -55 110 -60 -20 hstemhm
          32 105 46 39 92 -48 callsubr
          hintmask 1100011111000000
          486 -65 callgsubr
          125 -318 -71 -115 -22 -16 -104 -32 rlinecurve
          481 -100 -46 vlineto
          hintmask 1011001111000000
          40 -19 -41 11 -32 hhcurveto
          -136 -54 -153 -119 -161 90 -58 81 47 39 24 35 25 hvcurveto
          -86 vlineto
          -65 -26 -66 -41 -71 vvcurveto
          -55 40 -44 66 67 58 46 125 vhcurveto
          62 vlineto
          103 33 54 25 58 99 rrcurveto
          hintmask 1100101111000000
          -26 callsubr
          63 -30 36 -39 -31 -22 -23 -29 -32 26 -21 29 7 7 1 3 7 vhcurveto
          hintmask 1010011110100000
          -100 callsubr
          -372 -410 rmoveto
          -58 -33 43 107 hvcurveto
          hintmask 1011001111000000
          89 33 121 86 29 20 -20 -20 9 vhcurveto
          -225 vlineto
          -54 -6 -42 -41 -38 hhcurveto
          42 -288 20 callgsubr
        </CharString>
        <CharString name="g_z">
          438 -250 52 198 68 callgsubr
          -130 76 279 56 callsubr
          hstemhm
          32 105 47 39 92 100 83 -36 callsubr
          hintmask 1100001111110000
          315 -65 callgsubr
          -48 vlineto
          hintmask 1001100111110000
          -38 callgsubr
          hintmask 1100001111110000
          579 vlineto
          390 -78 callsubr
          hvcurveto
          hintmask 1100100111110000
          -88 callsubr
          vhcurveto
          -61 callsubr
          -104 callsubr
          hintmask 1010100111110000
          -98 callgsubr
          hintmask 1001010111110000
          -577 5 rmoveto
          -58 -33 43 107 89 33 121 86 30 20 -22 -21 9 hvcurveto
          -208 -36 callgsubr
          43 -288 -74 callsubr
        </CharString>
        <CharString name="gbreve">
          72 -250 52 212 76 360 55 -5 -20 80 37 -37 143 hstemhm
          32 105 -49 69 27 39 92 100 -49 66 hintmask 1101101011000000
          315 -65 callgsubr
          -48 vlineto
          hintmask 1110101011000000
          -38 callgsubr
          64 vlineto
          89 27 44 25 21 142 rrcurveto
          -37 hlineto
          -14 -112 -35 -24 -68 -22 rrcurveto
          hintmask 1101101011000000
          479 vlineto
          -187 -410 rmoveto
          -58 -33 43 107 hvcurveto
          hintmask 1110011011000000
          89 33 121 60 callsubr
          -208 -36 callgsubr
          hintmask 1110011010100000
          138 613 rmoveto
          hintmask 1110101011000000
          -71 -1 -52 -35 -52 hhcurveto
          hintmask 1110010110100000
          -6 callsubr
          -161 -901 56 callgsubr
          hintmask 1110101011000000
          -33 callsubr
        </CharString>
        <CharString name="germandbls">
          37 -229 -21 250 41 599 60 hstemhm
          53 110 155 49 0 73 hintmask 11111000
          163 530 rmoveto
          72 1 40 38 40 hhcurveto
          39 35 -33 -60 -44 -25 -49 -55 -13 hvcurveto
          -4 -38 rlineto
          87 -19 46 -59 -110 vvcurveto
          -79 -23 -95 -77 vhcurveto
          -39 vlineto
          -1 11 11 -1 11 hhcurveto
          hintmask 11110100
          60 80 62 147 111 -41 77 -97 30 hvcurveto
          44 23 21 49 47 vvcurveto
          97 -60 57 -108 -66 -80 -27 -143 vhcurveto
          -780 vlineto
          110 36 rlineto
          endchar
        </CharString>
        <CharString name="grave">
          -212 582 -21 189 -20 hstem
          -43 750 -70 callsubr
        </CharString>
        <CharString name="greater">
          -54 122 -21 328 -20 hstem
          57 374 rmoveto
          219 -120 -219 -96 rlineto
          -57 vlineto
          275 124 rlineto
          54 vlineto
          -275 150 rlineto
          endchar
        </CharString>
        <CharString name="guillemotleft">
          101 90 -21 380 -20 hstem
          196 449 -32 callgsubr
          157 45 -32 callgsubr
          endchar
        </CharString>
        <CharString name="guillemotright">
          104 90 -21 380 -20 hstem
          319 69 -32 callsubr
          -157 -45 -32 callsubr
          endchar
        </CharString>
        <CharString name="guilsinglleft">
          -107 90 -21 380 -20 hstem
          196 449 -32 callgsubr
          endchar
        </CharString>
        <CharString name="guilsinglright">
          -104 90 -21 380 -20 hstem
          111 69 -32 callsubr
          endchar
        </CharString>
        <CharString name="h">
          54 -12 callgsubr
          195 68 callsubr
          154 97 hintmask 01111100
          61 callsubr
          320 vlineto
          78 19 30 -88 callgsubr
          hintmask 10111100
          -81 callgsubr
          276 vlineto
          endchar
        </CharString>
        <CharString name="h.end">
          68 -12 callgsubr
          195 29 callsubr
          hintmask 01111010
          61 callsubr
          320 vlineto
          78 19 30 -88 callgsubr
          hintmask 10111010
          -16 callgsubr
          hintmask 10111100
          -34 callsubr
          276 vlineto
          endchar
        </CharString>
        <CharString name="hungarumlaut">
          23 561 189 hstem
          1 561 -101 callgsubr
          79 -189 -101 callgsubr
          endchar
        </CharString>
        <CharString name="hyphen">
          -95 231 70 hstem
          59 200 vstem
          259 301 rmoveto
          -200 -70 200 hlineto
          endchar
        </CharString>
        <CharString name="i">
          23 callgsubr
          98 -40 callsubr
          hintmask 11101000
          47 -65 callgsubr
          -361 vlineto
          hintmask 11110000
          -65 23 -80 92 44 -30 callsubr
          -72 -15 -25 -37 -32 hhcurveto
          hintmask 11101000
          -74 callgsubr
          -26 callgsubr
          hintmask 11110000
          -118 144 rmoveto
          -103 callsubr
          endchar
        </CharString>
        <CharString name="i.end">
          -182 -6 64 callgsubr
          98 -40 callsubr
          -100 183 hintmask 11110000
          29 644 rmoveto
          -103 callsubr
          hintmask 11101000
          18 -144 39 callgsubr
          hintmask 11100100
          -75 callgsubr
          hvcurveto
          -53 callgsubr
          hintmask 11101000
          -29 callsubr
          -26 callgsubr
          endchar
        </CharString>
        <CharString name="i_x">
          176 -6 76 385 105 -60 -20 98 -40 callsubr
          295 122 -45 45 hintmask 10110110
          219 -34 callgsubr
          340 -100 -361 24 callsubr
          73 30 100 67 -93 callgsubr
          hintmask 11011010
          -106 callgsubr
          hintmask 10111001
          -100 callsubr
          -304 144 rmoveto
          -103 callsubr
          endchar
        </CharString>
        <CharString name="i_x.end">
          177 -6 76 385 105 -60 -20 98 -40 callsubr
          295 122 -45 45 hintmask 10110110
          219 -34 callgsubr
          340 -100 -361 24 callsubr
          73 30 100 67 vhcurveto
          -91 42 40 -39 59 -44 callgsubr
          -36 -19 49 callsubr
          hintmask 11011010
          -106 callgsubr
          hintmask 10111001
          -100 callsubr
          -304 144 rmoveto
          -103 callsubr
          endchar
        </CharString>
        <CharString name="i_z">
          180 -37 callsubr
          8 callsubr
          78 -40 callsubr
          -100 183 10 -36 callsubr
          hintmask 1001011001100000
          29 644 rmoveto
          -103 callsubr
          hintmask 1001010101100000
          18 -144 39 callgsubr
          hintmask 1001010011100000
          -75 callgsubr
          hvcurveto
          -53 callgsubr
          hintmask 1001010101100000
          -29 callsubr
          -26 callgsubr
          400 -78 callsubr
          -88 callsubr
          hvcurveto
          13 -17 6 13 vvcurveto
          hintmask 0010111001100000
          -104 callsubr
          hintmask 0101011001100000
          -98 callgsubr
          endchar
        </CharString>
        <CharString name="iacute">
          23 callgsubr
          270 -20 hstem
          47 100 vstem
          47 -65 callgsubr
          -361 vlineto
          -65 23 -80 92 44 65 18 167 30 vhcurveto
          -102 callsubr
          -26 callgsubr
          -78 61 -101 callgsubr
          endchar
        </CharString>
        <CharString name="iacute.end">
          -182 -6 64 callgsubr
          270 22 callsubr
          hintmask 11101000
          47 500 rmoveto
          -365 -81 callsubr
          hintmask 11110000
          -29 callsubr
          -26 callgsubr
          -79 61 -101 callgsubr
          endchar
        </CharString>
        <CharString name="iacute_x">
          176 -6 76 385 105 -60 -20 270 -20 hstemhm
          47 -48 callsubr
          hintmask 10111100
          219 -65 callgsubr
          132 -335 rlineto
          -66 -48 -53 -29 -44 44 callgsubr
          340 -100 -361 24 callsubr
          72 30 100 68 -93 callgsubr
          hintmask 11011100
          -106 callgsubr
          hintmask 10111010
          -100 callsubr
          -263 61 -101 callgsubr
          endchar
        </CharString>
        <CharString name="iacute_z">
          180 -37 callsubr
          8 callsubr
          250 22 callsubr
          10 -36 callsubr
          hintmask 1001010111000000
          47 500 rmoveto
          -365 -81 callsubr
          hintmask 1001011011000000
          -29 callsubr
          -26 callgsubr
          400 -78 callsubr
          -88 callsubr
          hvcurveto
          13 -17 6 13 vvcurveto
          hintmask 0010111011000000
          -104 callsubr
          hintmask 0101011011000000
          -98 callgsubr
          -479 476 -101 callgsubr
          endchar
        </CharString>
        <CharString name="icircumflex">
          23 callgsubr
          248 -20 hstem
          47 100 vstem
          47 -65 callgsubr
          -361 vlineto
          -65 23 -80 92 44 65 18 167 30 vhcurveto
          -102 callsubr
          -26 callgsubr
          98 61 -99 callgsubr
        </CharString>
        <CharString name="idieresis">
          23 callgsubr
          112 107 hstemhm
          -36 107 -24 100 -24 107 hintmask 11101000
          47 -65 callgsubr
          -361 vlineto
          -65 23 -80 92 44 65 18 167 30 vhcurveto
          -102 callsubr
          -26 callgsubr
          hintmask 11110100
          -183 145 rmoveto
          -105 callsubr
          159 hmoveto
          -105 callsubr
          endchar
        </CharString>
        <CharString name="igrave">
          23 callgsubr
          270 -20 hstem
          47 100 vstem
          47 -65 callgsubr
          -361 vlineto
          -65 23 -80 92 44 65 18 167 30 vhcurveto
          -102 callsubr
          -26 callgsubr
          -97 250 -70 callsubr
        </CharString>
        <CharString name="ij">
          37 -5 callsubr
          98 -40 callsubr
          2 39 -39 81 32 -22 callgsubr
          hintmask 1111010101000000
          280 -65 callgsubr
          -512 -94 callsubr
          479 vlineto
          -333 hmoveto
          -365 -81 callsubr
          -29 callsubr
          -26 callgsubr
          hintmask 1111100010000000
          -118 144 rmoveto
          -103 callsubr
          233 hmoveto
          -103 callsubr
          -26 -842 rmoveto
          hintmask 1111011001000000
          -80 callsubr
        </CharString>
        <CharString name="ij.end">
          19 -5 callsubr
          98 -40 callsubr
          10 39 -39 73 40 -22 callgsubr
          hintmask 1111010101000000
          288 10 callsubr
          -341 hmoveto
          -365 -81 callsubr
          -29 callsubr
          -26 callgsubr
          hintmask 1111100010000000
          -118 144 rmoveto
          -103 callsubr
          241 hmoveto
          -103 callsubr
          -26 -842 rmoveto
          hintmask 1111011001000000
          -80 callsubr
        </CharString>
        <CharString name="j">
          -196 -250 52 698 -20 98 -1 callgsubr
          hintmask 11110100
          47 -65 callgsubr
          -512 -94 callsubr
          479 -47 callgsubr
        </CharString>
        <CharString name="j.end">
          -222 -250 52 698 -20 98 -1 callgsubr
          hintmask 11110100
          47 500 rmoveto
          -512 vlineto
          -65 -27 -66 -44 -69 vvcurveto
          -54 40 -44 66 67 58 46 125 vhcurveto
          579 -47 callgsubr
        </CharString>
        <CharString name="j_x">
          147 -71 callsubr
          385 105 -60 -20 98 -1 callgsubr
          295 122 -45 45 hintmask 1101110110000000
          219 -65 callgsubr
          125 -318 -71 -115 -22 -16 -104 -32 rlinecurve
          481 -100 -513 vlineto
          -64 -26 -67 -41 -71 vvcurveto
          -55 40 -44 66 67 58 46 125 vhcurveto
          62 vlineto
          103 33 54 25 58 99 rrcurveto
          -26 callsubr
          hintmask 1110111010000000
          -106 callgsubr
          hintmask 1101111001000000
          -100 callsubr
          -304 144 rmoveto
          -103 callsubr
          -26 -842 rmoveto
          -30 -18 20 32 hvcurveto
          hintmask 1110110110000000
          45 36 26 56 23 5 callgsubr
        </CharString>
        <CharString name="j_z">
          158 -250 52 198 -21 callsubr
          78 -1 callgsubr
          71 -36 callsubr
          hintmask 1101011011100000
          47 10 callsubr
          378 -78 callsubr
          -88 callsubr
          hvcurveto
          13 -17 6 13 vvcurveto
          hintmask 1100111101100000
          -104 callsubr
          hintmask 1011011101100000
          -98 callgsubr
          -496 559 rmoveto
          -103 callsubr
          -26 -842 56 callgsubr
          hintmask 1101011011100000
          -33 callsubr
        </CharString>
        <CharString name="k">
          44 -10 callsubr
          289 76 135 -20 220 68 callsubr
          145 103 hintmask 01111110
          61 callsubr
          212 vlineto
          57 20 27 20 35 hhcurveto
          33 30 -18 -70 hvcurveto
          -13 -1 -69 -11 vvcurveto
          hintmask 10111110
          -62 32 -52 81 41 67 13 172 31 vhcurveto
          -37 hlineto
          -76 -16 -24 -33 -35 hhcurveto
          -35 -4 34 18 hvcurveto
          16 3 44 27 vvcurveto
          65 -17 91 -119 vhcurveto
          -10 hlineto
          167 135 rlineto
          -97 hlineto
          -172 -163 rlineto
          363 vlineto
          endchar
        </CharString>
        <CharString name="k.end">
          67 -10 callsubr
          289 76 135 -20 220 68 callsubr
          145 100 -100 190 hintmask 01111101
          61 callsubr
          212 vlineto
          57 20 27 20 35 hhcurveto
          33 30 -18 -70 hvcurveto
          -13 -1 -69 -11 vvcurveto
          hintmask 10111101
          -63 33 -51 78 32 48 11 59 vhcurveto
          4 -1 5 5 vvcurveto
          -6 -11 -20 -2 -11 hhcurveto
          hintmask 10111110
          -43 -4 28 23 hvcurveto
          19 3 41 28 vvcurveto
          65 -17 91 -119 vhcurveto
          -10 hlineto
          167 135 rlineto
          -97 hlineto
          -172 -163 rlineto
          363 vlineto
          endchar
        </CharString>
        <CharString name="k.salt">
          44 -10 callsubr
          289 76 60 81 194 68 callsubr
          145 103 hintmask 01111110
          61 callsubr
          212 vlineto
          57 20 27 20 35 hhcurveto
          33 30 -18 -70 hvcurveto
          -13 -1 -69 -11 vvcurveto
          hintmask 10111110
          -62 32 -52 81 41 67 13 172 31 vhcurveto
          -37 hlineto
          -76 -16 -24 -33 -35 hhcurveto
          -35 -4 34 18 hvcurveto
          16 3 44 27 vvcurveto
          65 -17 91 -119 -10 -10 -1 -3 -12 vhcurveto
          45 43 31 19 38 16 17 -10 21 hhcurveto
          17 21 12 26 22 -22 31 -37 -52 -52 -38 -141 -121 hvcurveto
          373 vlineto
          endchar
        </CharString>
        <CharString name="l">
          35 callgsubr
          -547 0 callsubr
          endchar
        </CharString>
        <CharString name="l.end">
          -184 -6 76 630 22 callsubr
          hintmask 11010000
          47 686 rmoveto
          -551 -81 callsubr
          hintmask 11100000
          -29 callsubr
          540 vlineto
          endchar
        </CharString>
        <CharString name="l_x">
          176 -6 76 385 105 -60 -20 220 -20 hstemhm
          47 -48 callsubr
          hintmask 10111100
          219 -34 callgsubr
          540 vlineto
          -100 -14 rlineto
          -547 24 callsubr
          73 30 100 67 vhcurveto
          -91 42 39 -39 62 hhcurveto
          43 61 18 167 30 hvcurveto
          -35 hlineto
          -64 -13 -28 -45 -33 hhcurveto
          -39 -20 64 45 -18 -46 callgsubr
        </CharString>
        <CharString name="l_z">
          179 -37 callsubr
          8 callsubr
          200 22 callsubr
          9 -36 callsubr
          hintmask 1001010111000000
          47 686 rmoveto
          -551 -81 callsubr
          hintmask 1001011011000000
          -29 callsubr
          540 vlineto
          399 -615 rmoveto
          -12 -2 -15 -9 -24 hhcurveto
          -27 -85 5 1 -17 hvcurveto
          2 callsubr
          hintmask 0010111011000000
          -104 callsubr
          hintmask 0101011011000000
          -98 callgsubr
          endchar
        </CharString>
        <CharString name="less">
          -54 122 -21 328 -20 hstem
          302 429 rmoveto
          -275 -150 rlineto
          -54 vlineto
          275 -124 rlineto
          57 vlineto
          -219 96 219 120 rlineto
          endchar
        </CharString>
        <CharString name="logicalnot">
          40 51 250 -70 70 hstemhm
          312 80 hintmask 01100000
          391 301 rmoveto
          -350 -70 271 hlineto
          hintmask 10100000
          -180 81 vlineto
          endchar
        </CharString>
        <CharString name="lslash">
          35 callgsubr
          -335 vlineto
          -61 -45 9 -43 52 38 rlineto
          -162 vlineto
          -65 23 -80 92 44 65 18 167 30 vhcurveto
          -102 callsubr
          216 vlineto
          130 97 -7 44 -123 -92 rlineto
          275 vlineto
          endchar
        </CharString>
        <CharString name="m">
          280 24 callgsubr
          hintmask 10011110
          -59 callsubr
          hintmask 10101110
          -77 callsubr
          hintmask 01101110
          -81 33 -72 84 42 -30 callsubr
          hintmask 10101110
          -76 -16 -25 -33 -31 -60 callsubr
          hintmask 10011110
          69 vlineto
          endchar
        </CharString>
        <CharString name="m.end">
          293 24 callgsubr
          -97 184 hintmask 10011110
          -59 callsubr
          hintmask 10101101
          -77 callsubr
          hintmask 01101101
          57 callsubr
          hintmask 10101110
          -6 -10 -13 -3 -19 -60 callsubr
          hintmask 10011110
          69 vlineto
          endchar
        </CharString>
        <CharString name="m_x">
          642 -12 callgsubr
          -50 105 -60 68 callsubr
          135 100 142 97 288 -53 callsubr
          hintmask 0100111110000000
          -59 callsubr
          hintmask 0110011110000000
          -77 callsubr
          hintmask 1001011110000000
          -80 31 -73 89 54 73 27 114 63 vhcurveto
          -99 44 39 -42 65 -106 callsubr
          63 -30 36 -39 -31 -22 -23 -29 -32 26 -21 29 7 7 1 3 7 vhcurveto
          hintmask 1000111101000000
          21 callsubr
          125 -317 rlineto
          -78 -34 -59 -35 -43 hhcurveto
          -53 -1 52 27 hvcurveto
          66 6 62 47 vvcurveto
          hintmask 1010011110000000
          78 -16 103 -122 -28 -48 -6 -82 -38 vhcurveto
          47 -15 -32 41 -71 hhcurveto
          -31 -44 -8 -66 -35 hvcurveto
          hintmask 1000111110000000
          69 vlineto
          endchar
        </CharString>
        <CharString name="m_z">
          658 0 70 -70 43 callgsubr
          136 -76 76 -59 59 58 callsubr
          -97 184 11 -36 callsubr
          hintmask 1000001111011000
          -59 callsubr
          hintmask 1000100110111000
          -77 callsubr
          hintmask 0011000110111000
          57 callsubr
          hintmask 1001000111011000
          -6 -10 -13 -3 -19 -60 callsubr
          hintmask 1000001111011000
          69 vlineto
          879 -78 callsubr
          hvcurveto
          hintmask 1001000111011000
          -88 callsubr
          vhcurveto
          -61 callsubr
          hintmask 1000010111011000
          -104 callsubr
          hintmask 0101000111011000
          -98 callgsubr
          endchar
        </CharString>
        <CharString name="minus">
          55 231 70 hstem
          409 301 48 callgsubr
        </CharString>
        <CharString name="mu">
          41 -145 -21 160 64 callgsubr
          hstem
          46 100 138 100 vstem
          284 -65 callgsubr
          -91 callgsubr
          -100 -666 vlineto
          100 24 rlineto
          141 vlineto
          -3 13 13 -2 15 hhcurveto
          45 45 29 65 25 hvcurveto
          -49 10 26 -45 61 hhcurveto
          -86 callsubr
          hvcurveto
          -102 callsubr
          -26 callgsubr
          endchar
        </CharString>
        <CharString name="multiply">
          -26 123 -21 316 -20 hstem
          344 166 rmoveto
          -94 93 96 96 -48 48 -96 -96 -109 111 -51 -52 109 -110 -106 -106 48 -48 106 106 95 -94 rlineto
          endchar
        </CharString>
        <CharString name="n">
          28 callsubr
          hstemhm
          46 100 154 97 hintmask 01011100
          -59 callsubr
          hintmask 10101100
          78 19 30 -88 callgsubr
          -81 callgsubr
          hintmask 10011100
          76 vlineto
          endchar
        </CharString>
        <CharString name="n.end">
          68 -6 76 -49 -21 429 76 -5 29 callsubr
          hintmask 01011100
          -59 callsubr
          hintmask 10101010
          78 19 30 -88 callgsubr
          -16 callgsubr
          hintmask 10101100
          -34 callsubr
          hintmask 10011100
          76 vlineto
          endchar
        </CharString>
        <CharString name="n_z">
          425 -37 callsubr
          136 -76 76 -59 59 -5 29 callsubr
          4 -36 callsubr
          hintmask 0010001110110000
          -59 callsubr
          hintmask 1000100101110000
          78 19 30 -88 callgsubr
          -16 callgsubr
          hintmask 1001000110110000
          -34 callsubr
          hintmask 1000001110110000
          76 vlineto
          646 -78 callsubr
          hvcurveto
          hintmask 1001000110110000
          -88 callsubr
          vhcurveto
          -61 callsubr
          hintmask 0010010110110000
          -104 callsubr
          hintmask 0101000110110000
          -98 callgsubr
          endchar
        </CharString>
        <CharString name="nacute">
          28 callsubr
          270 68 callsubr
          154 97 hintmask 01011110
          -59 callsubr
          hintmask 10101110
          78 19 30 -88 callgsubr
          -81 callgsubr
          hintmask 10011110
          76 vlineto
          61 61 -101 callgsubr
          endchar
        </CharString>
        <CharString name="nine">
          130 -6 74 -74 182 135 65 315 59 hstemhm
          31 90 -48 67 254 106 hintmask 10111010
          333 434 rmoveto
          -42 -27 -30 -16 -39 hhcurveto
          -77 -39 58 78 70 35 109 99 109 30 -127 -134 -196 -70 -166 -108 hvcurveto
          hintmask 01110110
          -45 -31 33 36 13 4 14 6 8 hvcurveto
          2 -9 -7 2 -9 hhcurveto
          -37 -15 -34 -25 -48 54 -75 91 189 93 203 224 238 -103 91 -134 hvcurveto
          hintmask 10111010
          -155 -77 -121 -116 -117 81 -85 111 78 46 45 42 12 -5 13 -9 11 hvcurveto
          endchar
        </CharString>
        <CharString name="ntilde">
          28 callsubr
          95 26 callgsubr
          46 100 154 97 hintmask 0101100110000000
          -59 callsubr
          hintmask 1010100110000000
          78 19 30 -88 callgsubr
          -81 callgsubr
          hintmask 1001010110000000
          76 vlineto
          257 165 -27 callsubr
          hintmask 1010001110000000
          -86 callgsubr
          hintmask 1010100110000000
          -66 callsubr
        </CharString>
        <CharString name="numbersign">
          113 -6 -21 168 66 126 66 319 -20 hstem
          153 36 141 36 vstem
          330 -27 rmoveto
          36 168 127 66 -127 126 127 66 -127 319 -36 -319 -141 319 -36 -319 -120 -66 123 -126 -123 -66 124 -168 32 168 141 hlineto
          -141 192 rmoveto
          141 -126 -141 hlineto
          endchar
        </CharString>
        <CharString name="o">
          18 callgsubr
          -83 callgsubr
          hintmask 10111000
          -107 callsubr
          hintmask 11010100
          -97 callgsubr
          endchar
        </CharString>
        <CharString name="o.end">
          52 -6 76 222 213 -55 55 -83 callgsubr
          hintmask 10111000
          -8 callsubr
          22 23 53 11 44 rrcurveto
          -29 hlineto
          -20 -7 -12 -30 -38 hhcurveto
          76 -17 -42 56 -94 hhcurveto
          10 12 callgsubr
          28 25 -14 -39 16 hvcurveto
          -22 -3 -15 -15 -27 vvcurveto
          hintmask 11010100
          33 callgsubr
          endchar
        </CharString>
        <CharString name="o_ae">
          635 -6 76 169 51 -51 129 -52 189 -48 48 hstemhm
          34 108 141 109 -50 50 85 105 154 87 152 64 hintmask 1100111011100000
          229 505 rmoveto
          -150 -45 -161 -117 -172 98 -61 89 108 63 99 164 21 -1 22 -2 20 hvcurveto
          24 124 4 113 112 hhcurveto
          88 19 -62 -50 -19 -2 -24 -4 -16 hvcurveto
          2 -14 -18 2 -28 hhcurveto
          -113 -80 47 callgsubr
          36 54 27 callgsubr
          -79 -22 44 98 -13 hvcurveto
          136 11 76 57 91 vvcurveto
          106 -69 28 -61 -52 -37 -22 -24 -28 vhcurveto
          32 -49 -51 14 -47 hhcurveto
          hintmask 1010111011100000
          -146 9 -137 -121 hhcurveto
          -5 hlineto
          hintmask 1100111011100000
          78 -16 -41 59 -96 hhcurveto
          10 12 callgsubr
          25 23 -11 -30 16 hvcurveto
          -21 -2 -15 -11 -26 vvcurveto
          hintmask 1101010111100000
          -50 23 -4 34 vhcurveto
          2 -14 0 -15 -16 vvcurveto
          -127 -33 -74 -70 vhcurveto
          686 386 rmoveto
          32 18 -20 -51 -74 -56 -50 -95 -10 hvcurveto
          -1 8 0 8 8 vvcurveto
          97 34 84 68 vhcurveto
          -216 -217 rmoveto
          7 5 0 -1 8 hvcurveto
          1 -12 0 -11 -10 vvcurveto
          -88 -32 -47 -45 -39 -32 36 44 60 64 29 63 vhcurveto
          endchar
        </CharString>
        <CharString name="o_s">
          346 67 callsubr
          79 48 callsubr
          26 -95 callsubr
          endchar
        </CharString>
        <CharString name="o_s.end">
          60 callgsubr
          26 -71 callgsubr
          hintmask 1101111011000000
          231 505 rmoveto
          -107 callgsubr
          58 98 22 135 -42 callgsubr
          hvcurveto
          -56 callgsubr
          8 -435 -40 callgsubr
          endchar
        </CharString>
        <CharString name="o_s_x">
          698 67 callsubr
          79 48 callsubr
          -55 110 -60 -71 callgsubr
          218 -53 callsubr
          hintmask 1100011101110000
          -9 callgsubr
          rlineto
          -94 -41 -58 -70 -71 hhcurveto
          -6 hlineto
          hintmask 1101001101110000
          86 -13 -39 72 -103 hhcurveto
          -107 callgsubr
          35 49 8 36 34 hvcurveto
          39 17 85 42 49 50 rrcurveto
          -108 46 40 -45 67 -106 callsubr
          hintmask 1100101101110000
          -106 callgsubr
          hintmask 1100011101101000
          -100 callsubr
          -616 -430 rmoveto
          -45 -52 31 130 hvcurveto
          hintmask 1101001101110000
          -16 callsubr
          hintmask 1110001011110000
          -97 callgsubr
          endchar
        </CharString>
        <CharString name="o_s_z">
          692 -6 75 -75 150 -123 -21 129 87 79 210 -136 56 callsubr
          51 -71 callgsubr
          6 -36 callsubr
          hintmask 1001010011101111
          231 505 rmoveto
          -107 callgsubr
          58 98 22 135 -42 callgsubr
          hvcurveto
          -56 callgsubr
          828 -420 rmoveto
          -12 -2 -15 -9 -24 hhcurveto
          -27 -85 5 1 -17 hvcurveto
          hintmask 1001000111101111
          -48 callgsubr
          hvcurveto
          hintmask 0011010011101111
          -88 callsubr
          vhcurveto
          -61 callsubr
          -104 callsubr
          hintmask 0100001011101111
          -98 callgsubr
          -820 -15 rmoveto
          -45 -52 31 130 4 callgsubr
          hvcurveto
          -26 -1 -14 -11 -31 vvcurveto
          hintmask 1001100011011111
          -97 callgsubr
          endchar
        </CharString>
        <CharString name="o_x">
          443 -48 96 -54 -11 callgsubr
          -55 110 -60 -20 -83 callgsubr
          73 4 callsubr
          hintmask 1000011101010000
          487 -65 callgsubr
          20 -51 -29 -52 -38 -41 -54 -7 rlinecurve
          hintmask 0101001100110000
          -43 callsubr
          hintmask 1010001100110000
          -59 36 -21 34 37 -23 callsubr
          hintmask 0100101101010000
          -87 callgsubr
          hintmask 0100011101001000
          -6 callgsubr
          -362 -430 rmoveto
          -45 -52 31 130 hvcurveto
          hintmask 1001001101010000
          -16 callsubr
          hintmask 0110001011010000
          -97 callgsubr
          endchar
        </CharString>
        <CharString name="oacute">
          18 callgsubr
          245 -20 -83 callgsubr
          hintmask 10111100
          -107 callsubr
          hintmask 11011010
          -97 callgsubr
          -30 491 -101 callgsubr
          endchar
        </CharString>
        <CharString name="oacute.end">
          52 -6 76 222 213 -55 55 245 -20 -83 callgsubr
          hintmask 10111100
          -8 callsubr
          23 23 52 11 44 rrcurveto
          -29 hlineto
          -20 -7 -12 -30 -38 hhcurveto
          76 -17 -42 56 -94 hhcurveto
          10 12 callgsubr
          28 25 -14 -39 16 hvcurveto
          -22 -3 -15 -15 -27 vvcurveto
          hintmask 11011010
          33 callgsubr
          -13 491 -101 callgsubr
          endchar
        </CharString>
        <CharString name="oacute_s">
          346 67 callsubr
          79 48 callsubr
          245 -95 callsubr
          -33 491 -101 callgsubr
          endchar
        </CharString>
        <CharString name="oacute_s.end">
          60 callgsubr
          245 -71 callgsubr
          hintmask 1101111011000000
          231 505 rmoveto
          -107 callgsubr
          58 98 22 135 -42 callgsubr
          hvcurveto
          -56 callgsubr
          8 -435 -40 callgsubr
          -30 491 -101 callgsubr
          endchar
        </CharString>
        <CharString name="oacute_s_x">
          699 -100 callgsubr
          -37 491 -101 callgsubr
          endchar
        </CharString>
        <CharString name="oacute_s_z">
          694 -100 callgsubr
          -31 491 -101 callgsubr
          endchar
        </CharString>
        <CharString name="oacute_x">
          443 -48 96 -54 -11 callgsubr
          -55 110 -60 -20 270 -20 -83 callgsubr
          73 4 callsubr
          hintmask 1000011110101000
          487 -65 callgsubr
          20 -51 -29 -52 -38 -41 -54 -7 rlinecurve
          hintmask 0101001110011000
          -43 callsubr
          hintmask 1010001110011000
          -59 36 -21 34 37 -23 callsubr
          hintmask 0100101110101000
          -87 callgsubr
          hintmask 0100011110100100
          -6 callgsubr
          -362 -430 rmoveto
          -45 -52 31 130 hvcurveto
          hintmask 1001001110101000
          -16 callsubr
          hintmask 0110001101101000
          -97 callgsubr
          -26 491 -101 callgsubr
          endchar
        </CharString>
        <CharString name="ocircumflex">
          18 callgsubr
          223 -20 -83 callgsubr
          hintmask 10111100
          -107 callsubr
          hintmask 11011010
          -97 callgsubr
          140 491 -99 callgsubr
        </CharString>
        <CharString name="odieresis">
          18 callgsubr
          87 107 hstemhm
          34 108 -34 107 52 107 -87 105 -50 50 hintmask 1011100100000000
          -107 callsubr
          hintmask 1101010010000000
          -97 callgsubr
          -131 575 rmoveto
          -105 callsubr
          hintmask 1101101000000000
          159 hmoveto
          -105 callsubr
          endchar
        </CharString>
        <CharString name="oe">
          264 5 callsubr
          hstemhm
          34 108 145 163 -108 108 154 64 hintmask 11011010
          229 505 rmoveto
          -150 -45 -161 -117 -172 98 -61 89 67 49 38 67 28 hvcurveto
          -76 32 63 -29 65 hhcurveto
          102 95 87 98 34 hvcurveto
          -20 callsubr
          -63 -72 callgsubr
          106 -67 24 -66 -79 -50 -51 -64 -29 vhcurveto
          67 -19 -42 48 -87 hhcurveto
          10 -435 rmoveto
          -45 -52 31 130 hvcurveto
          hintmask 10111010
          4 callgsubr
          vhcurveto
          -23 -1 -17 -11 -27 vvcurveto
          hintmask 11010110
          -37 18 -17 36 vhcurveto
          1 -8 0 -8 -8 vvcurveto
          -127 -33 -74 -70 vhcurveto
          211 169 rmoveto
          98 34 119 70 32 18 -21 -50 -75 -60 -56 -94 -15 vhcurveto
          endchar
        </CharString>
        <CharString name="ogonek">
          -122 -193 49 -49 198 hstemhm
          68 65 hintmask 10100000
          121 5 rmoveto
          -35 -33 -18 -40 -33 vvcurveto
          -39 35 -53 62 -35 callsubr
          -42 -20 33 35 hvcurveto
          hintmask 01100000
          33 16 34 32 14 vhcurveto
          endchar
        </CharString>
        <CharString name="ograve">
          18 callgsubr
          245 -20 -83 callgsubr
          hintmask 10111100
          -107 callsubr
          hintmask 11011010
          -97 callgsubr
          -40 680 -70 callsubr
        </CharString>
        <CharString name="ohungarumlaut">
          18 callgsubr
          56 189 -83 callgsubr
          hintmask 10111100
          -107 callsubr
          hintmask 11011010
          -97 callgsubr
          -96 491 -101 callgsubr
          79 -189 -101 callgsubr
          endchar
        </CharString>
        <CharString name="one">
          -105 21 -21 618 52 78 -20 hstem
          123 108 vstem
          231 748 rmoveto
          -68 -95 -71 -10 -51 hhcurveto
          -3 -52 rlineto
          112 -618 108 hlineto
          endchar
        </CharString>
        <CharString name="onehalf">
          257 0 59 callsubr
          341 -20 hstemhm
          77 53 250 57 -44 220 -62 62 -62 97 hintmask 1001011101000000
          441 -37 callgsubr
          hintmask 0011011101000000
          252 66 -18 callgsubr
          hintmask 1000111100100000
          24 21 21 33 33 27 -22 -48 vhcurveto
          hintmask 0101011010000000
          -116 -158 -60 -101 vvcurveto
          -16 3 -9 5 -8 vhcurveto
          11 18 21 4 16 hhcurveto
          hintmask 1001011100100000
          15 callsubr
          hintmask 0011011101000000
          -34 -39 12 -42 hhcurveto
          -316 641 1 callgsubr
          endchar
        </CharString>
        <CharString name="onequarter">
          247 21 -21 149 31 570 -20 hstem
          77 53 304 48 58 59 vstem
          453 -37 callgsubr
          -76 707 1 callgsubr
          410 94 -45 callsubr
        </CharString>
        <CharString name="onesuperior">
          -218 366 -21 404 -20 hstem
          80 53 vstem
          133 749 1 callgsubr
          endchar
        </CharString>
        <CharString name="ordfeminine">
          -87 466 43 1 -20 224 31 -5 -20 hstemhm
          40 59 99 55 hintmask 10011100
          198 740 rmoveto
          -22 vlineto
          hintmask 10101100
          20 -11 -22 7 -17 hhcurveto
          -80 -28 -86 -65 -93 51 -35 44 32 24 20 26 13 hvcurveto
          -30 4 14 -16 32 hhcurveto
          21 17 11 35 1 hvcurveto
          hintmask 01011100
          -2 -6 -6 0 -4 hhcurveto
          -18 -6 20 29 hvcurveto
          181 vlineto
          hintmask 10101100
          -101 -231 rmoveto
          -29 -24 22 69 48 16 66 51 15 11 -10 -11 6 hvcurveto
          -123 vlineto
          -34 -23 -27 -23 vhcurveto
          endchar
        </CharString>
        <CharString name="ordmasculine">
          -112 465 42 209 30 hstemhm
          39 59 86 57 -29 29 hintmask 11110000
          151 746 rmoveto
          -88 -24 -92 -61 -97 57 -31 56 58 31 60 78 11 0 10 -1 10 hvcurveto
          21 10 10 21 5 24 -10 12 rcurveline
          -11 -4 -13 -17 -16 hhcurveto
          45 -12 -26 28 -44 hhcurveto
          14 -239 rmoveto
          -46 -21 27 61 51 18 70 44 17 15 -8 -23 10 hvcurveto
          -10 -3 -8 -9 -14 vvcurveto
          -19 6 -11 21 vhcurveto
          hintmask 11101000
          -6 1 -6 -6 vvcurveto
          -64 -20 -40 -27 vhcurveto
          endchar
        </CharString>
        <CharString name="oslash">
          6 -82 -21 173 225 310 -20 hstemhm
          34 108 58 52 -39 52 22 105 -50 50 hintmask 11111010
          252 -103 rmoveto
          100 vlineto
          89 18 51 94 148 14 -1 14 13 vvcurveto
          61 10 66 29 26 43 -15 27 rcurveline
          -34 -33 -49 -26 -55 hhcurveto
          -6 hlineto
          hintmask 11110110
          -11 78 -32 62 -78 15 rrcurveto
          103 -52 -101 vlineto
          -137 -11 -42 -154 -112 vvcurveto
          hintmask 11111010
          -159 83 -64 83 -9 vhcurveto
          -98 vlineto
          39 173 rmoveto
          -45 -52 31 130 4 callgsubr
          hvcurveto
          -26 -1 -14 -11 -31 vvcurveto
          -34 16 -14 38 -2 vhcurveto
          hintmask 11111001
          1 -8 0 -8 -8 vvcurveto
          -127 -33 -74 -70 vhcurveto
          endchar
        </CharString>
        <CharString name="otilde">
          18 callgsubr
          70 70 -37 37 -37 66 -83 callgsubr
          hintmask 1011001100000000
          -107 callsubr
          hintmask 1100101010000000
          -97 callgsubr
          169 595 -27 callsubr
          hintmask 1100011100000000
          -86 callgsubr
          hintmask 1101001100000000
          -66 callsubr
        </CharString>
        <CharString name="p">
          10 -229 -21 244 64 382 65 32 -20 hstem
          46 101 170 100 vstem
          46 537 rmoveto
          -787 vlineto
          101 25 rlineto
          267 vlineto
          -30 24 30 -18 44 hhcurveto
          103 69 98 165 170 51 callsubr
          hvcurveto
          77 vlineto
          69 -97 rmoveto
          44 57 -40 -139 -113 -38 -90 -66 -23 -24 10 24 -19 hvcurveto
          300 vlineto
          30 16 24 18 29 hhcurveto
          endchar
        </CharString>
        <CharString name="p.calt">
          55 -229 -21 244 76 359 76 -76 108 hstemhm
          46 101 153 103 hintmask 11101100
          397 156 rmoveto
          -58 callgsubr
          -33 -47 -8 -72 -39 vhcurveto
          hintmask 11011100
          112 -101 -787 vlineto
          101 25 rlineto
          549 vlineto
          75 19 29 30 41 hhcurveto
          34 30 -22 -86 hvcurveto
          -27 -3 -122 -25 vvcurveto
          -62 callgsubr
          endchar
        </CharString>
        <CharString name="p.salt">
          25 -229 -21 244 71 375 64 -64 97 hstemhm
          46 101 28 54 86 97 hintmask 11101110
          46 537 rmoveto
          -787 vlineto
          101 25 rlineto
          546 vlineto
          64 4 19 55 46 hhcurveto
          65 34 -79 -107 -9 0 -8 -1 -9 hvcurveto
          -78 -31 -61 -46 -64 vvcurveto
          -52 27 -41 72 77 53 109 124 8 vhcurveto
          35 11 36 7 32 2 rrcurveto
          35 vlineto
          -32 -6 -35 -7 -35 -9 rrcurveto
          139 -1 -63 105 -93 hhcurveto
          -34 -43 -8 -47 -32 hvcurveto
          hintmask 11011110
          88 vlineto
          106 -472 rmoveto
          -9 -15 19 12 30 34 32 48 27 hvcurveto
          -63 -8 -19 -57 -31 hhcurveto
          endchar
        </CharString>
        <CharString name="paragraph">
          104 -60 -21 830 -20 hstem
          236 73 68 73 vstem
          309 -81 rmoveto
          369 vlineto
          24 3 25 6 19 7 rrcurveto
          -385 73 595 vlineto
          173 -111 62 -116 -139 -62 -105 -105 -118 79 -119 135 -16 vhcurveto
          -367 vlineto
          endchar
        </CharString>
        <CharString name="parenleft">
          -143 41 callsubr
          38 63 vstem
          245 750 rmoveto
          -137 -73 -70 -221 -206 vvcurveto
          -195 68 -181 139 -124 vhcurveto
          22 24 rlineto
          -143 143 -23 213 121 vvcurveto
          197 54 221 102 54 vhcurveto
          endchar
        </CharString>
        <CharString name="parenright">
          -143 41 callsubr
          169 63 vstem
          25 -250 rmoveto
          137 73 70 221 206 vvcurveto
          195 -68 181 -138 124 vhcurveto
          -23 -24 rlineto
          143 -143 23 -213 -121 vvcurveto
          -197 -53 -221 -102 -54 vhcurveto
          endchar
        </CharString>
        <CharString name="percent">
          201 51 callgsubr
          26 56 126 51 99 57 126 50 vstem
          461 -77 callgsubr
          endchar
        </CharString>
        <CharString name="period">
          -204 -5 133 hstem
          38 133 vstem
          38 61 rmoveto
          -103 callsubr
          endchar
        </CharString>
        <CharString name="periodcentered">
          -21 callgsubr
        </CharString>
        <CharString name="perthousand">
          480 51 callgsubr
          27 56 126 51 99 57 126 50 45 57 126 50 vstem
          462 -77 callgsubr
          343 167 rmoveto
          -76 -46 -69 -94 -114 46 -51 67 88 32 90 78 79 -22 81 -89 hvcurveto
          -65 -167 rmoveto
          75 26 60 43 29 28 -28 -100 -71 -23 -58 -40 -59 -4 86 36 vhcurveto
          endchar
        </CharString>
        <CharString name="plus">
          17 125 -21 143 70 122 -20 hstem
          174 83 vstem
          399 317 rmoveto
          -142 122 -83 -122 -143 -70 143 -143 83 143 142 hlineto
          endchar
        </CharString>
        <CharString name="plusminus">
          64 77 70 204 70 122 -20 hstem
          198 81 vstem
          423 421 rmoveto
          -143 122 -82 -122 -142 -70 142 -143 81 143 144 hlineto
          -2 -204 rmoveto
          -368 -70 368 hlineto
          endchar
        </CharString>
        <CharString name="q">
          32 -229 -21 244 76 380 55 -5 -20 hstemhm
          32 105 177 101 hintmask 11011100
          314 -65 callgsubr
          -46 vlineto
          hintmask 11101100
          40 -19 -41 11 -32 hhcurveto
          -136 -54 -159 -123 -168 90 -61 81 47 39 24 35 25 hvcurveto
          -303 vlineto
          101 25 rlineto
          hintmask 11011100
          725 vlineto
          -187 -430 rmoveto
          -58 -33 46 114 hvcurveto
          hintmask 11101100
          93 33 127 86 29 20 -20 -20 9 vhcurveto
          -245 vlineto
          -54 -6 -42 -41 -38 hhcurveto
          endchar
        </CharString>
        <CharString name="question">
          2 -5 133 327 245 -44 44 hstemhm
          23 77 16 133 -93 49 93 94 hintmask 11011010
          392 546 rmoveto
          86 -62 68 -128 -132 -47 -76 -63 -70 51 -36 46 28 25 14 28 11 vhcurveto
          -58 9 -26 41 29 vvcurveto
          hintmask 10110110
          48 45 32 47 52 54 -29 -80 vhcurveto
          -125 -142 -52 -110 vvcurveto
          -9 1 -9 2 -10 vhcurveto
          46 hlineto
          7 135 180 35 144 vvcurveto
          hintmask 11011010
          -276 -485 rmoveto
          -103 callsubr
          endchar
        </CharString>
        <CharString name="questiondown">
          0 -247 44 -44 245 327 133 hstemhm
          30 94 49 133 -89 49 56 77 hintmask 01111010
          30 -93 rmoveto
          -86 62 -68 128 132 47 76 63 70 -51 36 -46 -28 -25 -14 -28 -11 vhcurveto
          58 -9 26 -41 -29 vvcurveto
          hintmask 10110110
          -48 -45 -32 -47 -52 -54 29 80 vhcurveto
          125 142 52 110 vvcurveto
          9 -1 9 -2 10 vhcurveto
          -46 hlineto
          -7 -135 -180 -35 -144 vvcurveto
          hintmask 10111010
          276 485 20 callsubr
        </CharString>
        <CharString name="quotedbl">
          -82 561 189 49 callgsubr
          138 -189 rmoveto
          55 hlineto
          51 189 rlineto
          -85 hlineto
          endchar
        </CharString>
        <CharString name="quotedblbase">
          22 -105 44 callsubr
          39 -4 callsubr
          83 -4 callsubr
          hintmask 11100100
          39 69 rmoveto
          hintmask 11001100
          -84 52 53 -60 vvcurveto
          hintmask 11010100
          -89 callgsubr
          hintmask 11100100
          30 callsubr
          219 hmoveto
          hintmask 11100001
          -84 52 53 -60 vvcurveto
          hintmask 11100010
          -89 callgsubr
          hintmask 11100100
          30 callsubr
          endchar
        </CharString>
        <CharString name="quotedblleft">
          12 515 44 callsubr
          37 84 -84 106 -106 136 81 84 -84 106 -106 136 hintmask 11001100
          173 553 rmoveto
          hintmask 11100100
          84 -52 -53 60 vvcurveto
          hintmask 11010100
          -38 callsubr
          hintmask 11001001
          29 36 24 35 hvcurveto
          217 hmoveto
          hintmask 11100100
          84 -52 -53 60 vvcurveto
          hintmask 11100010
          -38 callsubr
          hintmask 11100001
          29 36 24 35 hvcurveto
          endchar
        </CharString>
        <CharString name="quotedblright">
          9 515 44 callsubr
          35 -4 callsubr
          81 -4 callsubr
          hintmask 11100100
          252 689 rmoveto
          hintmask 11100001
          -84 52 53 -60 vvcurveto
          hintmask 11100010
          -89 callgsubr
          hintmask 11100100
          30 callsubr
          -217 hmoveto
          hintmask 11001100
          -84 52 53 -60 vvcurveto
          hintmask 11010100
          -89 callgsubr
          hintmask 11100100
          30 callsubr
          endchar
        </CharString>
        <CharString name="quoteleft">
          -205 515 44 callsubr
          37 84 -84 106 -106 136 hintmask 11001000
          173 553 rmoveto
          hintmask 11100000
          84 -52 -53 60 vvcurveto
          hintmask 11010000
          -38 callsubr
          hintmask 11001000
          29 36 24 35 hvcurveto
          endchar
        </CharString>
        <CharString name="quoteright">
          -208 515 44 callsubr
          35 -4 callsubr
          hintmask 11100000
          35 689 rmoveto
          hintmask 11001000
          -84 52 53 -60 vvcurveto
          hintmask 11010000
          -89 callgsubr
          hintmask 11100000
          30 callsubr
          endchar
        </CharString>
        <CharString name="quotesinglbase">
          -197 -105 44 callsubr
          39 -4 callsubr
          hintmask 11100000
          39 69 rmoveto
          hintmask 11001000
          -84 52 53 -60 vvcurveto
          hintmask 11010000
          -89 callgsubr
          hintmask 11100000
          30 callsubr
          endchar
        </CharString>
        <CharString name="quotesingle">
          -241 582 -21 189 -20 49 callgsubr
          endchar
        </CharString>
        <CharString name="r">
          -77 21 -21 393 112 -87 87 -5 68 callsubr
          hintmask 10011000
          46 -65 callgsubr
          -500 100 368 vlineto
          hintmask 10101000
          24 23 29 26 30 hhcurveto
          hintmask 11001000
          29 4 -25 23 hhcurveto
          16 30 12 40 33 -21 27 -45 -57 -30 -42 -47 -31 hvcurveto
          hintmask 10011000
          84 vlineto
          endchar
        </CharString>
        <CharString name="r_x">
          323 -48 96 -54 76 -49 -21 393 107 -82 82 -45 105 -55 68 callsubr
          199 4 callsubr
          hintmask 1001000101100000
          367 -65 callgsubr
          111 -282 rlineto
          -66 -39 -67 -75 -72 vvcurveto
          -59 36 -21 34 37 -23 callsubr
          hintmask 0100010110100000
          -87 callgsubr
          hintmask 0011000110010000
          -6 callgsubr
          -435 hmoveto
          -500 100 368 vlineto
          hintmask 1000100110100000
          24 23 29 26 30 hhcurveto
          hintmask 1001000110100000
          29 4 -25 23 hhcurveto
          16 30 12 40 hvcurveto
          hintmask 1000001110100000
          33 -21 27 -45 -57 -30 -42 -47 -31 vhcurveto
          hintmask 1000100110100000
          84 vlineto
          endchar
        </CharString>
        <CharString name="r_z">
          187 0 68 callgsubr
          235 121 -82 82 -54 54 9 callgsubr
          390 99 hintmask 10100110
          554 85 rmoveto
          -14 -3 -15 -7 -26 hhcurveto
          -22 -87 5 1 -17 hvcurveto
          -63 callsubr
          -248 hlineto
          -123 -24 -4 -80 -57 hvcurveto
          84 -100 -500 100 368 vlineto
          hintmask 10010110
          23 22 30 27 30 hhcurveto
          hintmask 10100110
          35 -13 -39 43 hhcurveto
          27 23 27 22 hvcurveto
          hintmask 10001110
          7 -2 6 -4 5 vhcurveto
          138 hlineto
          -216 -446 rlineto
          262 hlineto
          70 44 45 42 hvcurveto
          hintmask 01100110
          35 -29 22 -29 -22 -19 -13 -19 -12 8 -12 10 -3 vhcurveto
          endchar
        </CharString>
        <CharString name="registered">
          141 79 21 215 35 95 38 85 22 hstem
          35 26 124 36 127 36 112 23 vstem
          277 79 -58 callsubr
          124 -142 rmoveto
          36 123 70 hlineto
          62 -124 37 6 -63 125 rlineto
          35 10 22 26 41 vvcurveto
          59 -38 25 -62 vhcurveto
          -98 hlineto
          35 -38 rmoveto
          64 hlineto
          33 30 -11 -35 -37 -32 -12 -29 hvcurveto
          -66 hlineto
          endchar
        </CharString>
        <CharString name="ring">
          -257 555 34 91 33 hstem
          -133 40 80 36 vstem
          -50 555 rmoveto
          -68 callsubr
        </CharString>
        <CharString name="s">
          -71 -6 75 0 60 402 -20 hstemhm
          24 106 92 106 hintmask 10111000
          -87 callsubr
          hintmask 01111000
          -90 callsubr
          endchar
        </CharString>
        <CharString name="s.end">
          -59 -6 75 0 60 402 -20 hstemhm
          24 106 92 106 hintmask 10111000
          144 511 rmoveto
          -69 callgsubr
          57 98 35 99 105 -19 41 -64 257 vhcurveto
          -23 -392 22 callgsubr
          hintmask 01111000
          -90 callsubr
          endchar
        </CharString>
        <CharString name="s_x">
          279 -6 76 385 105 -60 -20 hstemhm
          24 106 92 106 217 -53 callsubr
          hintmask 11011100
          144 511 rmoveto
          -69 callgsubr
          38 55 15 40 34 vhcurveto
          38 17 77 34 47 47 rrcurveto
          -108 46 40 -45 67 -106 callsubr
          63 -30 36 -39 -31 -22 -23 -29 -32 26 -21 29 7 7 1 3 7 vhcurveto
          hintmask 10111010
          21 callsubr
          124 -314 -23 -25 -52 -31 -44 -19 rlinecurve
          6 1 5 6 vvcurveto
          -47 callsubr
          endchar
        </CharString>
        <CharString name="s_z">
          277 -6 75 -75 150 -123 -21 446 54 31 -20 hstemhm
          24 106 92 106 9 -36 callsubr
          hintmask 1001111110000000
          144 511 rmoveto
          -69 callgsubr
          57 98 35 99 -47 callsubr
          422 -54 rmoveto
          -12 -2 -15 -9 -24 hhcurveto
          -27 -85 5 1 -17 hvcurveto
          2 callsubr
          -61 callgsubr
          86 hlineto
          hintmask 0011111110000000
          -216 -446 rlineto
          262 hlineto
          70 44 46 39 hvcurveto
          hintmask 0101111110000000
          -98 callgsubr
          endchar
        </CharString>
        <CharString name="sacute">
          -71 -6 75 681 -20 hstem
          24 106 92 106 vstem
          -87 callsubr
          -90 callsubr
          -58 422 -101 callgsubr
          endchar
        </CharString>
        <CharString name="scaron">
          -71 -6 75 0 60 613 -20 hstemhm
          24 106 92 106 hintmask 10111000
          -87 callsubr
          hintmask 01111000
          -90 callsubr
          -150 603 -82 callgsubr
        </CharString>
        <CharString name="section">
          106 -54 38 739 27 hstemhm
          43 79 -19 91 129 91 -37 59 -6 64 hintmask 11010100
          436 640 rmoveto
          107 -114 3 -28 -108 -83 -46 -101 -27 5 -22 10 -21 vhcurveto
          hintmask 11101010
          -45 -21 -30 -42 -51 -156 280 -10 -172 vvcurveto
          -76 -54 -21 -43 -55 -49 33 76 35 10 22 46 4 vhcurveto
          34 -8 -25 14 -24 hhcurveto
          -41 -43 -40 -73 -132 138 -11 51 118 70 58 97 12 -2 13 -2 11 hvcurveto
          56 15 28 56 63 vvcurveto
          hintmask 11010100
          207 -300 -5 150 vvcurveto
          54 38 46 63 55 27 -35 -37 -21 -8 -24 -15 -10 vhcurveto
          -13 15 13 -3 11 hhcurveto
          29 14 23 37 hvcurveto
          hintmask 11101010
          -6 -405 rmoveto
          -31 -12 -21 -18 -11 vhcurveto
          -59 144 -225 50 73 vvcurveto
          16 0 24 24 21 vhcurveto
          85 -106 205 -31 -128 vvcurveto
          endchar
        </CharString>
        <CharString name="semicolon">
          -166 -22 -21 254 109 0 133 hstemhm
          56 -4 callsubr
          hintmask 11010000
          56 152 rmoveto
          hintmask 11000100
          -84 52 53 -60 vvcurveto
          hintmask 11001000
          -89 callgsubr
          hintmask 10110000
          30 callsubr
          -1 234 rmoveto
          -103 callsubr
          endchar
        </CharString>
        <CharString name="seven">
          35 12 -21 597 161 -84 59 hstemhm
          14 80 1 126 110 114 hintmask 10111100
          444 732 rmoveto
          -6 -28 -27 -2 -23 hhcurveto
          hintmask 11011100
          -83 -88 25 -81 hhcurveto
          -54 -46 -11 -54 -50 38 -45 44 -1 hvcurveto
          -2 6 0 6 5 vvcurveto
          hintmask 10111100
          51 64 9 41 46 54 -11 -8 32 vhcurveto
          -1 -90 -235 -197 -208 vvcurveto
          -65 23 -95 79 18 20 5 11 21 vhcurveto
          -13 28 -22 46 82 262 224 202 97 vvcurveto
          2 0 4 -1 2 vhcurveto
          endchar
        </CharString>
        <CharString name="six">
          131 -6 76 318 65 143 154 -46 46 hstemhm
          43 106 255 67 -49 90 hintmask 11011010
          210 330 rmoveto
          42 27 30 16 39 hhcurveto
          77 39 -62 -84 -74 -31 -98 -103 -109 -30 110 134 196 71 194 108 hvcurveto
          hintmask 11101100
          45 31 -33 -36 -13 -4 -14 -6 -8 hvcurveto
          -2 9 7 -2 9 hhcurveto
          37 15 34 25 48 -56 47 -91 -189 -92 -203 -224 -238 102 -91 134 hvcurveto
          hintmask 11101010
          158 75 126 121 123 -81 89 -111 -78 -46 -45 -42 -13 5 -12 9 -11 hvcurveto
          endchar
        </CharString>
        <CharString name="slash">
          91 41 callsubr
          490 750 rmoveto
          -50 hlineto
          -425 -1000 rlineto
          50 hlineto
          endchar
        </CharString>
        <CharString name="space">
          -198 endchar
        </CharString>
        <CharString name="sterling">
          59 21 -21 332 70 339 -20 hstem
          101 96 -96 108 vstem
          391 hmoveto
          38 22 35 58 8 0 8 -1 9 hvcurveto
          -111 -73 -61 40 -85 -27 9 278 rcurveline
          -3 12 12 -1 13 hhcurveto
          68 57 47 43 1 hvcurveto
          -5 hlineto
          -13 -10 -21 -7 -22 hhcurveto
          -37 -29 14 9 -37 hvcurveto
          10 316 -97 -22 -9 -293 -44 -10 -30 -29 -13 -44 rlinecurve
          5 -2 rlineto
          16 14 17 8 24 hhcurveto
          8 9 -1 -2 8 hvcurveto
          -10 -362 rlineto
          endchar
        </CharString>
        <CharString name="t">
          -177 -6 76 395 35 152 -20 hstem
          47 100 vstem
          39 callsubr
          -57 callgsubr
          152 vlineto
          endchar
        </CharString>
        <CharString name="t.end">
          -175 -6 76 395 35 152 22 callsubr
          hintmask 11110000
          39 callsubr
          -330 57 callgsubr
          hintmask 11101000
          -75 callgsubr
          hvcurveto
          -53 callgsubr
          hintmask 11110000
          -29 callsubr
          305 77 35 -77 152 vlineto
          endchar
        </CharString>
        <CharString name="t_x">
          176 -6 76 385 45 -45 105 92 -20 hstemhm
          47 -48 callsubr
          hintmask 11011100
          39 callsubr
          -326 vlineto
          -66 22 -79 96 60 81 20 110 63 -93 callgsubr
          hintmask 10111100
          -106 callgsubr
          hintmask 11011010
          -100 callsubr
          -186 152 hlineto
          47 -582 rmoveto
          -45 -2 59 31 hvcurveto
          305 86 vlineto
          113 -286 63 callgsubr
          -64 -36 -64 -32 -57 hhcurveto
          endchar
        </CharString>
        <CharString name="t_z">
          227 0 64 -64 43 callgsubr
          8 callsubr
          -35 35 152 22 callsubr
          57 -36 callsubr
          hintmask 1001001101100000
          594 85 rmoveto
          -12 -2 -15 -9 -24 hhcurveto
          -27 -85 5 1 -17 hvcurveto
          2 callsubr
          hintmask 1000101101100000
          -104 callsubr
          hintmask 0101001101100000
          -98 callgsubr
          -547 553 rmoveto
          -138 -34 vlineto
          hintmask 0010011101100000
          -35 34 -330 57 callgsubr
          hintmask 1001001011100000
          -75 callgsubr
          hvcurveto
          -53 callgsubr
          hintmask 1000011101100000
          -29 callsubr
          305 77 35 -77 152 vlineto
          endchar
        </CharString>
        <CharString name="thorn">
          60 -229 -21 244 64 382 65 195 -20 hstem
          46 101 169 100 vstem
          46 -250 rmoveto
          101 26 rlineto
          266 vlineto
          -28 24 31 -20 35 hhcurveto
          139 40 143 111 184 -73 73 -94 -45 -34 -19 -28 -25 hvcurveto
          -12 150 -73 51 -68 41 rrcurveto
          -23 hlineto
          61 -63 16 -54 -98 vvcurveto
          169 -45 rmoveto
          45 56 -37 -147 -83 -24 -115 -85 -16 -25 10 24 -19 hvcurveto
          300 vlineto
          30 16 23 18 29 hhcurveto
          endchar
        </CharString>
        <CharString name="three">
          120 -6 70 193 48 210 234 -50 50 hstemhm
          30 93 -51 88 195 100 -77 126 hintmask 11101001
          196 257 rmoveto
          41 -15 -36 7 -24 hhcurveto
          -57 -34 -43 -76 -168 146 -24 68 143 117 108 122 86 -47 62 -113 45 hvcurveto
          hintmask 11100110
          67 32 44 73 70 vvcurveto
          108 -103 49 -99 -94 -87 -44 -92 -59 36 -39 42 21 22 10 21 18 vhcurveto
          -35 24 -16 28 28 vvcurveto
          hintmask 11011010
          38 30 35 57 69 39 -51 -57 -68 -57 -78 -116 -27 vhcurveto
          hintmask 11101001
          133 -13 63 -94 -94 vvcurveto
          -73 -39 -80 -98 -51 -67 22 88 43 16 37 57 3 vhcurveto
          endchar
        </CharString>
        <CharString name="threequarters">
          383 21 -21 149 31 119 64 callsubr
          43 -20 hstemhm
          29 62 118 53 -34 34 -34 69 275 48 58 59 hintmask 1101101100111000
          570 -37 callgsubr
          -200 445 10 callgsubr
          hintmask 1110101110011000
          -7 callgsubr
          hintmask 1110011110011000
          46 callsubr
          hintmask 1110101101011000
          19 callgsubr
          555 -48 -45 callsubr
        </CharString>
        <CharString name="threesuperior">
          -69 342 64 callsubr
          hstemhm
          41 62 118 53 -34 34 -34 69 hintmask 01101001
          135 488 10 callgsubr
          hintmask 10101100
          -7 callgsubr
          hintmask 10011100
          46 callsubr
          hintmask 10101010
          19 callgsubr
          endchar
        </CharString>
        <CharString name="tilde">
          -10 575 26 callgsubr
          hintmask 01000000
          258 665 -27 callsubr
          hintmask 00100000
          -86 callgsubr
          hintmask 10000000
          -66 callsubr
        </CharString>
        <CharString name="trademark">
          71 433 221 -32 32 4 -20 hstemhm
          50 23 64 32 hintmask 10011000
          273 433 rmoveto
          23 154 27 -154 rlineto
          32 hlineto
          30 156 17 -156 rlineto
          35 hlineto
          -22 221 rlineto
          -34 hlineto
          -33 -175 -32 175 rlineto
          -29 hlineto
          -32 -221 rlineto
          hintmask 01011000
          -37 189 rmoveto
          21 11 8 16 4 0 3 -1 4 hvcurveto
          -3 -8 -11 -3 -16 hhcurveto
          hintmask 00111000
          -25 -18 7 -32 hhcurveto
          -65 -24 -31 -32 -33 14 -11 21 hvcurveto
          -7 8 -5 11 23 vvcurveto
          32 18 10 33 4 4 0 -1 5 vhcurveto
          hintmask 10011000
          -201 32 196 vlineto
          hintmask 01011000
          -3 17 17 -4 15 hhcurveto
          endchar
        </CharString>
        <CharString name="two">
          92 -9 87 -55 55 -55 73 415 238 -49 49 hstemhm
          36 96 192 117 -117 153 hintmask 00110110
          147 96 rmoveto
          -13 -12 -1 -3 -11 hvcurveto
          17 149 313 76 244 vvcurveto
          87 -40 101 -165 -119 -72 -52 -86 -49 23 -51 47 16 19 6 19 16 vhcurveto
          -27 18 -7 36 21 vvcurveto
          hintmask 01001101
          47 33 42 62 68 29 -51 -73 vhcurveto
          -231 -288 -92 -195 vvcurveto
          -37 9 -17 4 -6 vhcurveto
          18 33 33 7 33 hhcurveto
          hintmask 10010101
          47 99 -32 77 hhcurveto
          59 47 19 67 23 -6 24 -9 23 hvcurveto
          -47 -28 -22 -22 -73 hhcurveto
          hintmask 00110110
          -66 -69 18 -57 hhcurveto
          endchar
        </CharString>
        <CharString name="twosuperior">
          -69 340 59 callsubr
          hstemhm
          41 57 -44 220 -62 62 -62 97 hintmask 0011010100000000
          107 406 -18 callgsubr
          hintmask 1000110010000000
          24 21 21 33 33 27 -22 -48 vhcurveto
          hintmask 0101001000000000
          -116 -158 -60 -101 vvcurveto
          -16 5 -8 4 -9 vhcurveto
          11 18 20 4 16 hhcurveto
          hintmask 1001010010000000
          15 callsubr
          hintmask 0011010100000000
          -34 -39 12 -42 hhcurveto
          endchar
        </CharString>
        <CharString name="u">
          41 -6 64 callgsubr
          hstem
          46 100 138 100 vstem
          284 -65 callgsubr
          -91 callgsubr
          -100 -351 vlineto
          -55 callgsubr
          45 45 29 65 25 vhcurveto
          -49 10 26 -45 61 hhcurveto
          -86 callsubr
          hvcurveto
          -102 callsubr
          -26 callgsubr
          endchar
        </CharString>
        <CharString name="u.end">
          55 -6 64 callgsubr
          hstem
          46 100 138 100 vstem
          284 -65 callgsubr
          -91 callgsubr
          -100 -351 vlineto
          -55 callgsubr
          45 45 29 65 25 vhcurveto
          -68 12 37 -26 41 hhcurveto
          39 36 24 40 -29 callgsubr
          -15 -3 -10 hhcurveto
          -47 -1 59 31 hvcurveto
          -26 callgsubr
          endchar
        </CharString>
        <CharString name="u_v">
          438 -10 callsubr
          417 104 -21 68 callsubr
          138 100 -86 86 114 100 87 135 hintmask 1001110110000000
          284 -65 callgsubr
          -91 callgsubr
          -100 -351 vlineto
          -55 callgsubr
          vhcurveto
          hintmask 0101101110000000
          42 43 25 58 26 hvcurveto
          -77 86 500 vlineto
          hintmask 1001110110000000
          436 -163 rmoveto
          hintmask 1010110110000000
          -24 callgsubr
          hintmask 1001110110000000
          -25 callsubr
          -124 -39 vlineto
          24 -11 rlineto
          -319 36 callsubr
        </CharString>
        <CharString name="u_x">
          413 -6 76 385 105 -60 68 callsubr
          138 -48 callsubr
          hintmask 10111100
          456 -13 callsubr
          63 callgsubr
          -52 callgsubr
          39 -38 62 hhcurveto
          43 61 18 167 30 hvcurveto
          -35 hlineto
          -64 -13 -28 -45 -33 hhcurveto
          -39 -20 64 45 -18 -46 callgsubr
        </CharString>
        <CharString name="u_x.end">
          416 -6 76 385 105 -60 68 callsubr
          138 -48 callsubr
          hintmask 10111100
          456 -65 callgsubr
          132 -334 rlineto
          -52 callgsubr
          40 -38 59 -44 callgsubr
          -37 -18 48 61 -24 -46 callgsubr
        </CharString>
        <CharString name="uacute">
          41 -6 64 callgsubr
          270 -20 hstem
          46 100 138 100 vstem
          284 -65 callgsubr
          -91 callgsubr
          -100 -351 vlineto
          -55 callgsubr
          45 45 29 65 25 vhcurveto
          -49 10 26 -45 61 hhcurveto
          -86 callsubr
          hvcurveto
          -102 callsubr
          -26 callgsubr
          -205 61 -101 callgsubr
          endchar
        </CharString>
        <CharString name="uacute.end">
          55 -6 64 callgsubr
          270 -20 hstem
          46 100 138 100 vstem
          284 -65 callgsubr
          -91 callgsubr
          -100 -351 vlineto
          -55 callgsubr
          45 45 29 65 25 vhcurveto
          -68 12 37 -26 41 hhcurveto
          39 36 24 40 -29 callgsubr
          -15 -3 -10 hhcurveto
          -47 -1 59 31 hvcurveto
          -26 callgsubr
          -198 61 -101 callgsubr
          endchar
        </CharString>
        <CharString name="ucircumflex">
          41 -6 64 callgsubr
          248 -20 hstem
          46 100 138 100 vstem
          284 -65 callgsubr
          -91 callgsubr
          -100 -351 vlineto
          -55 callgsubr
          45 45 29 65 25 vhcurveto
          -49 10 26 -45 61 hhcurveto
          -86 callsubr
          hvcurveto
          -102 callsubr
          -26 callgsubr
          -22 61 -99 callgsubr
        </CharString>
        <CharString name="udieresis">
          41 -6 64 callgsubr
          112 107 9 callgsubr
          -68 107 52 107 -60 100 hintmask 11110010
          284 -65 callgsubr
          -91 callgsubr
          -100 -351 vlineto
          -55 callgsubr
          45 45 29 65 25 vhcurveto
          -49 10 26 -45 61 hhcurveto
          -86 callsubr
          hvcurveto
          -102 callsubr
          -26 callgsubr
          hintmask 11101100
          -147 145 rmoveto
          -105 callsubr
          -159 hmoveto
          -105 callsubr
          endchar
        </CharString>
        <CharString name="ugrave">
          41 -6 64 callgsubr
          270 -20 hstem
          46 100 138 100 vstem
          284 -65 callgsubr
          -91 callgsubr
          -100 -351 vlineto
          -55 callgsubr
          45 45 29 65 25 vhcurveto
          -49 10 26 -45 61 hhcurveto
          -86 callsubr
          hvcurveto
          -102 callsubr
          -26 callgsubr
          -226 250 -70 callsubr
        </CharString>
        <CharString name="uhungarumlaut">
          41 -6 64 callgsubr
          81 189 hstem
          46 100 138 100 vstem
          284 -65 callgsubr
          -91 callgsubr
          -100 -351 vlineto
          -55 callgsubr
          45 45 29 65 25 vhcurveto
          -49 10 26 -45 61 hhcurveto
          -86 callsubr
          hvcurveto
          -102 callsubr
          -26 callgsubr
          -136 61 -101 callgsubr
          -181 -189 -101 callgsubr
          endchar
        </CharString>
        <CharString name="underscore">
          25 0 70 hstem
          394 70 48 callgsubr
        </CharString>
        <CharString name="uni00AD">
          -94 231 70 hstem
          59 201 vstem
          260 301 rmoveto
          -201 -70 201 hlineto
          endchar
        </CharString>
        <CharString name="v">
          -14 -6 76 347 104 -21 68 callsubr
          87 135 hintmask 11011000
          368 337 rmoveto
          -24 callgsubr
          hintmask 10111000
          -25 callsubr
          -100 -369 36 callsubr
        </CharString>
        <CharString name="w">
          210 -6 76 347 104 -21 68 callsubr
          138 100 87 135 -52 52 hintmask 10111100
          46 -65 callgsubr
          -351 vlineto
          -55 callgsubr
          41 41 24 54 26 vhcurveto
          -51 23 51 -27 52 hhcurveto
          138 47 192 151 hvcurveto
          hintmask 11011100
          -24 callgsubr
          hintmask 10111010
          -25 callsubr
          -100 -91 callgsubr
          vlineto
          endchar
        </CharString>
        <CharString name="x">
          85 -10 callsubr
          430 75 -50 105 hstemhm
          351 -53 callsubr
          73 30 hintmask 01101010
          -45 callgsubr
          hintmask 10011010
          -120 44 39 -51 60 hhcurveto
          42 93 26 156 12 hvcurveto
          -30 hlineto
          -50 -4 -35 -56 -39 hhcurveto
          -34 -22 43 65 -24 hvcurveto
          -20 53 rlineto
          67 92 38 67 71 -73 callgsubr
          hintmask 10100110
          47 callsubr
        </CharString>
        <CharString name="x.end">
          96 -10 callsubr
          430 75 -50 105 hstemhm
          351 -53 callsubr
          hintmask 01101000
          -45 callgsubr
          hintmask 10011000
          -123 45 40 -48 56 hhcurveto
          26 54 10 54 7 -1 7 -1 6 hvcurveto
          -3 -5 -10 -5 -18 hhcurveto
          -40 -20 43 65 -24 hvcurveto
          -20 53 rlineto
          67 92 38 67 71 -73 callgsubr
          hintmask 10100100
          47 callsubr
        </CharString>
        <CharString name="y">
          65 callgsubr
          hstem
          46 100 7 39 92 100 vstem
          284 -65 callgsubr
          -326 vlineto
          -66 -41 -38 -37 -85 callgsubr
          -144 -698 -74 callsubr
        </CharString>
        <CharString name="y.end">
          15 -5 callsubr
          hstem
          46 100 7 39 92 100 vstem
          284 -65 callgsubr
          -2 callgsubr
          -63 -31 callgsubr
          -144 -698 -74 callsubr
        </CharString>
        <CharString name="y_p">
          463 -250 52 192 64 382 65 -5 -20 57 68 callsubr
          7 39 92 100 116 101 170 100 hintmask 1101111111000000
          500 537 rmoveto
          -469 vlineto
          -39 -3 -39 -7 -38 -11 rrcurveto
          453 -100 -2 callgsubr
          -45 vlineto
          -77 -41 -54 -58 -60 vvcurveto
          -52 40 -45 66 67 58 46 125 vhcurveto
          82 vlineto
          36 11 39 6 41 1 rrcurveto
          -271 vlineto
          101 25 rlineto
          236 vlineto
          54 callsubr
          hvcurveto
          hintmask 1110111111000000
          171 51 callsubr
          vhcurveto
          -8 callgsubr
          -430 -638 19 callsubr
        </CharString>
        <CharString name="y_x">
          413 -71 callsubr
          385 105 -60 68 callsubr
          7 39 92 -48 callsubr
          hintmask 1101111100000000
          456 -65 callgsubr
          125 -318 -71 -115 -22 -16 -104 -32 rlinecurve
          481 -100 -326 vlineto
          -66 -41 -38 -37 -35 -25 25 65 vhcurveto
          340 -100 -351 vlineto
          -55 callgsubr
          35 36 18 39 26 vhcurveto
          -64 vlineto
          -65 -26 -66 -41 -71 vvcurveto
          -55 40 -44 66 67 58 46 125 vhcurveto
          62 vlineto
          103 33 54 25 58 99 rrcurveto
          -26 callsubr
          hintmask 1110111100000000
          -106 callgsubr
          hintmask 1101111010000000
          -100 callsubr
          -330 -698 20 callgsubr
        </CharString>
        <CharString name="y_z">
          419 -250 52 198 70 -70 43 callgsubr
          8 callsubr
          9 callgsubr
          7 39 92 100 95 -36 callsubr
          hintmask 1100101111100000
          284 -65 callgsubr
          -91 callgsubr
          -100 -351 vlineto
          hintmask 1001101111100000
          -55 callgsubr
          35 36 18 39 26 vhcurveto
          -63 -31 callgsubr
          402 -415 rmoveto
          -12 -2 -15 -9 -24 hhcurveto
          hintmask 1100101111100000
          -27 -85 5 1 -17 hvcurveto
          2 callsubr
          hintmask 1100011111100000
          -104 callsubr
          hintmask 1010101111100000
          -98 callgsubr
          -546 -283 -74 callsubr
        </CharString>
        <CharString name="yacute">
          65 callgsubr
          270 -20 hstem
          46 100 7 39 92 100 vstem
          284 -65 callgsubr
          -326 vlineto
          -66 -41 -38 -37 -85 callgsubr
          -202 61 -101 callgsubr
          7 -948 -74 callsubr
        </CharString>
        <CharString name="ydieresis">
          65 callgsubr
          112 107 9 callgsubr
          -64 110 -39 39 49 107 -64 100 hintmask 1111101010000000
          284 -65 callgsubr
          -321 vlineto
          -69 -40 -40 -38 -85 callgsubr
          -144 -698 rmoveto
          -89 callsubr
          hintmask 1111010100000000
          -158 843 rmoveto
          -105 callsubr
          159 hmoveto
          -105 callsubr
          endchar
        </CharString>
        <CharString name="yen">
          88 21 -21 157 35 80 35 438 -20 hstem
          192 108 vstem
          68 192 rmoveto
          -35 124 -157 108 157 154 35 -154 80 155 35 -155 vlineto
          165 438 rlineto
          -52 hlineto
          -134 -383 -146 383 rlineto
          -112 hlineto
          171 -438 rlineto
          -124 -35 124 -80 hlineto
          endchar
        </CharString>
        <CharString name="z">
          1 0 -21 callsubr
          hstemhm
          61 -36 callsubr
          hintmask 10101100
          368 85 rmoveto
          -12 -2 -15 -9 -24 hhcurveto
          -27 -85 5 1 -17 hvcurveto
          2 callsubr
          hintmask 10011100
          -104 callsubr
          hintmask 01101100
          -98 callgsubr
          endchar
        </CharString>
        <CharString name="zacute">
          1 0 -21 callsubr
          250 -20 hstemhm
          61 -36 callsubr
          hintmask 10101110
          368 85 rmoveto
          -12 -2 -15 -9 -24 hhcurveto
          -27 -85 5 1 -17 hvcurveto
          2 callsubr
          hintmask 10011110
          -104 callsubr
          hintmask 01101110
          -98 callgsubr
          -155 476 -101 callgsubr
          endchar
        </CharString>
        <CharString name="zcaron">
          1 0 -21 callsubr
          242 -20 hstemhm
          61 -36 callsubr
          hintmask 10101110
          368 85 rmoveto
          -12 -2 -15 -9 -24 hhcurveto
          -27 -85 5 1 -17 hvcurveto
          2 callsubr
          hintmask 10011110
          -104 callsubr
          hintmask 01101110
          -98 callgsubr
          -225 657 -82 callgsubr
        </CharString>
        <CharString name="zdotaccent">
          1 0 -21 callsubr
          77 115 hstemhm
          61 102 22 115 50 99 hintmask 10101111
          185 634 23 callsubr
          183 -549 rmoveto
          -12 -2 -15 -9 -24 hhcurveto
          -27 -85 5 1 -17 hvcurveto
          2 callsubr
          hintmask 10011111
          -104 callsubr
          hintmask 01101111
          -98 callgsubr
          endchar
        </CharString>
        <CharString name="zero">
          175 -6 75 631 50 hstem
          46 125 266 104 vstem
          304 750 rmoveto
          -169 -89 -157 -233 -250 103 -116 141 186 65 203 193 184 -59 176 -178 hvcurveto
          -133 -387 rmoveto
          173 50 164 94 57 65 -60 -236 -176 -36 -159 -99 -98 -33 154 140 vhcurveto
          endchar
        </CharString>
      <CharString index="0">
        -153 -44 -161 -116 -173 98 -61 88 109 63 93 179 hvcurveto
        11 -1 11 12 vvcurveto
        72 16 75 55 36 88 rrcurveto
        47 -202 19 -50 -56 vvcurveto
        -61 -22 -21 -48 -54 -15 -42 callsubr
        7 -4 9 hhcurveto
        17 16 13 26 32 -23 16 -23 -26 -34 -19 -59 -58 32 -86 116 return
      </CharString>
      <CharString index="1">
        63 -30 36 -39 -31 -22 -23 -29 -32 26 -21 29 7 7 1 3 7 vhcurveto
        return
      </CharString>
      <CharString index="2">
        17 callgsubr
        -159 -123 -168 90 -61 81 63 47 43 52 20 hvcurveto
        -50 10 26 -45 61 hhcurveto
        -86 callsubr
        hvcurveto
        -102 callsubr
        return
      </CharString>
      <CharString index="3">
        hhcurveto
        43 61 -85 callsubr
        hvcurveto
        -35 hlineto
        -64 -13 -28 -45 -33 hhcurveto
        -39 -20 -24 callsubr
        return
      </CharString>
      <CharString index="4">
        557 hmoveto
        736 vlineto
        10 -26 -34 4 -20 hhcurveto
        -117 -99 -137 -161 -67 hvcurveto
        1 -16 -16 0 callgsubr
        -109 -81 -39 -64 -48 35 -17 33 20 21 8 24 16 -7 11 -19 6 hvcurveto
        -1 2 0 2 2 vvcurveto
        return
      </CharString>
      <CharString index="5">
        33 62 21 77 2 vhcurveto
        -49 -129 -28 -139 -94 vvcurveto
        -147 82 -18 60 vhcurveto
        -29 54 -6 57 58 vvcurveto
        104 21 132 33 118 vhcurveto
        66 -8 69 -17 50 -24 rrcurveto
        -360 vlineto
        -175 442 rmoveto
        45 143 64 113 66 4 rrcurveto
        -312 vlineto
        -44 21 -65 19 -66 12 rrcurveto
        return
      </CharString>
      <CharString index="6">
        rmoveto
        55 hlineto
        81 189 rlineto
        -85 hlineto
        return
      </CharString>
      <CharString index="7">
        -6 75 -75 150 -123 -21 129 87 79 210 -136 56 callsubr
        270 -71 callgsubr
        8 -36 callsubr
        hintmask 1001010011101111
        231 505 rmoveto
        -107 callgsubr
        58 98 22 135 -42 callgsubr
        hvcurveto
        -56 callgsubr
        830 -420 rmoveto
        -12 -2 -15 -9 -24 hhcurveto
        -27 -85 5 1 -17 hvcurveto
        hintmask 1001000111101111
        -48 callgsubr
        hvcurveto
        hintmask 0011010011101111
        -88 callsubr
        vhcurveto
        -61 callsubr
        -104 callsubr
        hintmask 0100001011101111
        -98 callgsubr
        -822 -15 rmoveto
        -45 -52 31 130 4 callgsubr
        hvcurveto
        -26 -1 -14 -11 -31 vvcurveto
        hintmask 1001100011011111
        -97 callgsubr
        return
      </CharString>
      <CharString index="8">
        rmoveto
        -96 167 rlineto
        -21 hlineto
        -166 -167 rlineto
        34 hlineto
        141 101 86 -101 rlineto
        endchar
      </CharString>
      <CharString index="9">
        39 -29 20 -29 -21 -20 -12 -21 -10 8 -13 10 -3 vhcurveto
        return
      </CharString>
      <CharString index="10">
        -34 16 -14 38 -2 vhcurveto
        1 -8 0 -8 -8 vvcurveto
        -127 -33 -74 -70 vhcurveto
        return
      </CharString>
      <CharString index="11">
        -20 -13 callgsubr
        192 67 hintmask 11010101
        -76 callgsubr
        hintmask 10110011
        -105 25 -7 106 28 vvcurveto
        66 40 71 72 39 41 -21 -51 -38 -22 -26 -19 -8 vhcurveto
        hintmask 11010101
        -92 callgsubr
        hintmask 11011001
        -85 -35 -50 -75 -98 vvcurveto
        -108 60 -119 153 114 117 67 121 36 vhcurveto
        return
      </CharString>
      <CharString index="12">
        vlineto
        -65 -27 -66 -44 -69 vvcurveto
        -54 40 -44 66 67 58 46 125 vhcurveto
        return
      </CharString>
      <CharString index="13">
        -56 callsubr
        -87 50 -34 80 hvcurveto
        -24 21 -22 26 71 vvcurveto
        91 56 64 89 25 vhcurveto
        return
      </CharString>
      <CharString index="14">
        vhcurveto
        -91 42 39 -39 62 -106 callsubr
        return
      </CharString>
      <CharString index="15">
        -19 18 18 -8 17 hhcurveto
        33 22 31 51 98 -80 29 -73 -132 -65 -96 -88 -57 27 -54 63 -40 hvcurveto
        return
      </CharString>
      <CharString index="16">
        -321 vlineto
        -69 -40 -40 -38 -35 -25 25 65 vhcurveto
        340 return
      </CharString>
      <CharString index="17">
        41 -19 -41 12 -35 hhcurveto
        -134 -54 -160 -125 -162 90 -64 80 64 47 42 52 20 hvcurveto
        -67 12 37 -27 41 hhcurveto
        39 36 24 40 -29 callgsubr
        -15 -3 -10 hhcurveto
        -47 -1 59 31 hvcurveto
        return
      </CharString>
      <CharString index="18">
        -24 -22 -29 -27 vvcurveto
        -8 2 -9 12 -7 vhcurveto
        50 25 42 85 64 vvcurveto
        45 -20 35 -51 vhcurveto
        return
      </CharString>
      <CharString index="19">
        31 41 hhcurveto
        34 30 -22 -86 hvcurveto
        -27 -3 -122 -25 vvcurveto
        return
      </CharString>
      <CharString index="20">
        -1 4 0 3 4 vvcurveto
        43 49 45 45 30 vhcurveto
        -128 52 40 -53 73 -104 callgsubr
        -20 49 rlineto
        78 73 46 83 77 -73 callgsubr
        return
      </CharString>
      <CharString index="21">
        -52 -37 29 -66 hhcurveto
        -68 -46 -30 -58 -17 hvcurveto
        5 -2 rlineto
        16 14 17 8 24 hhcurveto
        return
      </CharString>
      <CharString index="22">
        -35 -25 25 65 vhcurveto
        340 -100 -351 vlineto
        -55 callgsubr
        35 36 18 39 26 vhcurveto
        -63 -94 callsubr
        479 vlineto
        return
      </CharString>
      <CharString index="23">
        -20 hstemhm
        34 94 -63 63 -63 97 196 82 -82 121 hintmask 1101101001000000
        440 612 rmoveto
        124 -128 13 -46 -104 -97 -68 -134 vhcurveto
        -232 293 87 -223 vvcurveto
        -88 -45 -48 -61 -52 -72 35 72 34 16 51 64 3 vhcurveto
        44 -16 -20 13 -29 hhcurveto
        hintmask 1110110001000000
        -72 -37 -80 -66 -114 109 -47 103 117 116 60 161 hvcurveto
        hintmask 1101100110000000
        267 -317 -78 194 vvcurveto
        67 38 54 70 67 29 -49 -46 -28 -11 -28 -18 -13 vhcurveto
        hintmask 1110110010000000
        -14 13 12 -7 18 hhcurveto
        36 24 31 53 hvcurveto
        return
      </CharString>
      <CharString index="24">
        hstemhm
        34 108 145 105 -50 50 return
      </CharString>
      <CharString index="25">
        rmoveto
        96 -167 rlineto
        21 hlineto
        166 167 rlineto
        -34 hlineto
        -141 -101 -86 101 rlineto
        endchar
      </CharString>
      <CharString index="26">
        -62 callgsubr
        52 6 71 47 vvcurveto
        77 30 callgsubr
        return
      </CharString>
      <CharString index="27">
        65 -85 callsubr
        return
      </CharString>
      <CharString index="28">
        -89 -62 -59 -115 hvcurveto
        -591 vlineto
        -75 -35 -55 -47 -64 vvcurveto
        -50 33 -39 73 46 40 16 49 22 vhcurveto
        -40 28 34 -25 58 hhcurveto
        63 78 29 141 hvcurveto
        545 return
      </CharString>
      <CharString index="29">
        46 179 rmoveto
        -139 61 -5 callgsubr
        vhcurveto
        18 vlineto
        66 20 66 55 33 80 -50 callgsubr
        -39 -89 -54 -67 -65 -8 rlinecurve
        -49 callsubr
        return
      </CharString>
      <CharString index="30">
        -37 callgsubr
        -67 702 rmoveto
        -76 -45 -69 -94 -114 46 -51 67 87 33 90 78 79 -23 81 -89 hvcurveto
        -65 -167 rmoveto
        75 27 60 42 29 28 -28 -100 -71 -22 -58 -40 -59 -5 86 36 vhcurveto
        398 -207 rmoveto
        -76 -46 -69 -94 -114 46 -51 67 88 32 90 78 79 -22 81 -89 hvcurveto
        -65 -167 rmoveto
        75 26 60 43 29 28 -28 -100 -71 -22 -58 -41 -59 -4 86 36 vhcurveto
        return
      </CharString>
      <CharString index="31">
        496 180 rmoveto
        -63 -24 -67 -56 -96 hhcurveto
        -107 -50 69 96 96 49 76 88 20 hvcurveto
        return
      </CharString>
      <CharString index="32">
        39 45 18 46 7 -1 5 -1 6 return
      </CharString>
      <CharString index="33">
        -43 -2 64 26 hvcurveto
        return
      </CharString>
      <CharString index="34">
        vvcurveto
        -106 callgsubr
        return
      </CharString>
      <CharString index="35">
        hhcurveto
        -57 -48 24 106 -10 hvcurveto
        135 15 82 67 93 vvcurveto
        return
      </CharString>
      <CharString index="36">
        -20 -83 callgsubr
        50 106 92 106 return
      </CharString>
      <CharString index="37">
        -57 callsubr
        -590 vlineto
        -63 -27 -67 -45 -67 vvcurveto
        -62 33 -35 72 66 59 29 141 vhcurveto
        545 return
      </CharString>
      <CharString index="38">
        -10 -98 -39 -99 -35 -99 rrcurveto
        -20 -11 -16 -27 -35 vvcurveto
        -65 32 -83 117 return
      </CharString>
      <CharString index="39">
        14 callgsubr
        -169 101 -62 90 74 67 40 60 7 -1 9 -1 9 vhcurveto
        -36 -25 -40 -13 -43 -72 callgsubr
        -218 -136 rmoveto
        98 34 119 70 32 18 -21 -50 -75 -60 -56 -94 -15 vhcurveto
        return
      </CharString>
      <CharString index="40">
        -145 vlineto
        18 callsubr
        32 30 35 61 31 hvcurveto
        -30 34 callgsubr
      </CharString>
      <CharString index="41">
        vlineto
        -47 -8 -29 -36 vhcurveto
        return
      </CharString>
      <CharString index="42">
        500 rmoveto
        return
      </CharString>
      <CharString index="43">
        16 2 40 4 43 hhcurveto
        38 90 -4 -1 15 hvcurveto
        -329 -705 rlineto
        361 hlineto
        66 41 48 45 hvcurveto
        return
      </CharString>
      <CharString index="44">
        rmoveto
        -29 -18 -59 callgsubr
        -69 -7 -47 -37 vhcurveto
        endchar
      </CharString>
      <CharString index="45">
        -81 33 -72 84 42 -30 callsubr
        -44 callsubr
        return
      </CharString>
      <CharString index="46">
        12 28 2 29 vhcurveto
        return
      </CharString>
      <CharString index="47">
        80 10 58 63 48 17 -33 -53 8 vhcurveto
        39 hlineto
        101 -60 49 return
      </CharString>
      <CharString index="48">
        -52 callsubr
        hvcurveto
        -31 vlineto
        return
      </CharString>
      <CharString index="49">
        52 6 71 47 vvcurveto
        77 -16 102 -121 return
      </CharString>
      <CharString index="50">
        -326 vlineto
        -66 22 -79 96 46 66 18 167 44 vhcurveto
        -37 hlineto
        -73 -19 -35 -36 -36 hhcurveto
        -45 -2 59 31 hvcurveto
        305 77 35 -77 return
      </CharString>
      <CharString index="51">
        -30 callgsubr
        86 -13 -39 72 -103 hhcurveto
        return
      </CharString>
      <CharString index="52">
        -114 63 -41 78 return
      </CharString>
      <CharString index="53">
        rmoveto
        35 -81 48 vlineto
        84 16 72 73 29 32 -11 -37 8 vhcurveto
        -17 -3 -11 -24 -19 vvcurveto
        return
      </CharString>
</ttFont>
